<svg width="841" height="234" viewBox="0 0 841 234" fill="none" xmlns="http://www.w3.org/2000/svg">
<mask id="path-1-outside-1_4_10" maskUnits="userSpaceOnUse" x="-1" y="-1" width="842" height="235" fill="black">
<rect fill="white" x="-1" y="-1" width="842" height="235"/>
<path d="M78.3265 80.223C26.631 89.8181 -7.26852 131.444 2.7572 173.017C12.7829 214.589 62.9948 240.604 114.69 231.009C166.386 221.414 200.285 179.788 190.26 138.215C180.234 96.6425 130.011 70.63 78.3265 80.223ZM15.132 175.353L47.5258 169.341C50.2015 178.333 54.1975 186.923 59.6011 194.9L30.8912 200.229C23.648 193.177 18.2189 184.761 15.132 175.353ZM45.3868 160.471L12.993 166.484C11.4723 156.786 12.5506 147.161 15.9178 138.14L44.5947 132.818C43.3475 142.029 43.6706 151.3 45.3868 160.471ZM56.275 130.65L121.305 118.58C127.009 126.464 131.281 135.002 133.998 144.024L56.4163 158.424C54.7247 149.212 54.6994 139.885 56.275 130.65ZM58.5554 167.294L136.148 152.892C137.807 162.11 137.843 171.435 136.256 180.672L71.2814 192.732C65.5665 184.85 61.2837 176.314 58.5554 167.294ZM147.178 150.845L180.024 144.748C181.544 154.446 180.466 164.071 177.099 173.092L147.937 178.504C149.195 169.291 148.883 160.017 147.178 150.845ZM145.039 141.975C142.374 132.98 138.389 124.388 132.997 116.41L162.126 111.003C169.358 118.057 174.787 126.473 177.885 135.879L145.039 141.975ZM152.906 103.448L126.942 108.267C120.576 100.599 112.865 93.662 104.071 87.4915C122.453 88.3146 139.513 94.072 152.906 103.448ZM86.6799 88.1988C97.687 94.4681 107.112 102.013 114.787 110.523L58.5147 120.967C61.5951 110.471 66.7203 100.234 73.8899 90.5913C76.0527 90.0508 78.2155 89.5104 80.4655 89.0928C82.5391 88.7079 84.6116 88.4622 86.6799 88.1988ZM57.609 96.2356C52.4639 104.956 48.6295 113.999 46.3711 123.221L20.8487 127.958C28.6718 114.765 41.4264 103.53 57.609 96.2356ZM40.1002 207.786L65.6557 203.043C72.0025 210.678 79.7071 217.588 88.4703 223.727C70.2671 222.833 53.3721 217.092 40.1002 207.786ZM105.98 223.081C94.9505 216.816 85.5056 209.283 77.8102 200.787L133.995 190.359C130.883 200.87 125.727 211.122 118.525 220.771C116.556 221.257 114.581 221.762 112.551 222.139C110.345 222.549 108.163 222.815 105.98 223.081ZM134.758 215.265C139.972 206.495 143.86 197.387 146.149 188.103L172.157 183.276C164.225 196.637 151.243 207.98 134.758 215.265Z"/>
<path d="M278.132 161.498C281.379 164.649 283.406 167.895 284.212 171.237C284.393 171.989 284.459 172.675 284.41 173.296C284.476 173.982 284.494 174.677 284.465 175.38C282.805 175.514 281.061 175.707 279.231 175.959C277.497 176.194 275.677 176.488 273.772 176.841C271.487 177.265 269.163 177.74 266.803 178.266C264.557 178.857 262.036 179.543 259.239 180.324C256.443 181.105 253.333 182.032 249.909 183.103C246.486 184.175 242.522 185.478 238.017 187.013C235.665 186.751 233.152 185.821 230.478 184.222C227.824 182.707 225.212 180.748 222.642 178.344C223.151 176.329 223.798 173.852 224.582 170.913C225.345 167.891 226.216 164.281 227.194 160.084C228.152 155.804 229.149 150.861 230.185 145.257C231.297 139.551 232.36 133.025 233.374 125.679C234.001 120.849 234.52 116.606 234.932 112.951C235.344 109.295 235.643 105.792 235.83 102.44C236.091 98.987 236.275 95.4175 236.381 91.7315C236.488 88.0455 236.558 83.7988 236.593 78.9913C240.563 78.9526 244.151 79.5961 247.357 80.9216C250.637 82.1459 253.966 84.1904 257.343 87.0552C256.843 88.2828 256.266 90.223 255.613 92.8759C254.959 95.5287 254.198 98.7688 253.33 102.596C252.537 106.322 251.675 110.585 250.742 115.385C249.79 120.101 248.823 125.168 247.842 130.588C246.935 135.907 246.006 140.924 245.054 145.64C244.102 150.356 243.239 154.619 242.466 158.428C241.789 162.22 241.276 165.458 240.928 168.141C240.58 170.825 240.557 172.793 240.86 174.046C242.363 173.68 243.724 173.34 244.942 173.027C246.16 172.713 247.416 172.349 248.709 171.935C249.981 171.437 251.35 170.921 252.813 170.387C254.351 169.753 256.155 168.981 258.225 168.073C260.029 167.302 261.71 166.641 263.269 166.09C264.808 165.455 266.319 164.913 267.802 164.463C269.361 163.912 270.939 163.444 272.538 163.06C274.212 162.575 276.077 162.054 278.132 161.498Z"/>
<path d="M330.041 106.428C330.993 106.251 332.129 106.215 333.448 106.319C334.841 106.322 336.123 106.477 337.291 106.784C338.439 107.007 339.407 107.308 340.195 107.685C341.078 108.045 341.57 108.434 341.67 108.852C340.612 112.715 339.706 116.593 338.954 120.486C338.181 124.296 337.616 127.936 337.259 131.406C336.902 134.877 336.733 138.095 336.751 141.059C336.865 144.006 337.173 146.524 337.677 148.613C338.241 150.952 339.001 152.863 339.955 154.344C340.889 155.742 342.103 156.651 343.598 157.072C342.616 157.953 341.271 158.77 339.562 159.524C337.853 160.277 336.285 160.787 334.856 161.052C329.713 162.006 326.396 159.392 324.905 153.209C323.757 148.447 323.994 141.594 325.619 132.65C324.641 136.847 323.327 140.888 321.677 144.774C320.006 148.575 318.198 152.01 316.251 155.077C314.304 158.145 312.199 160.761 309.935 162.928C307.747 164.992 305.597 166.395 303.488 167.136C299.923 167.623 296.714 166.691 293.858 164.34C290.983 161.906 289.021 158.517 287.973 154.172C286.845 149.493 286.799 144.351 287.835 138.747C288.872 133.142 290.618 127.799 293.074 122.717C295.625 117.617 298.643 113.215 302.128 109.513C305.594 105.728 309.258 103.389 313.123 102.497C314.136 102.571 315.304 102.878 316.628 103.418C318.048 103.94 319.402 104.605 320.692 105.413C322.076 106.204 323.281 107.071 324.305 108.016C325.308 108.877 325.948 109.675 326.225 110.409C322.536 111.618 318.977 113.981 315.547 117.498C312.211 120.998 309.351 125.02 306.964 129.566C304.653 134.01 302.984 138.641 301.956 143.458C300.929 148.275 300.879 152.606 301.806 156.449C302.189 158.037 303.097 158.916 304.531 159.086C307.172 158.072 309.869 155.433 312.622 151.168C315.354 146.82 318.375 140.367 321.684 131.809C322.274 130.129 322.919 128.263 323.618 126.213C324.413 124.145 325.188 121.993 325.942 119.758C326.697 117.523 327.404 115.297 328.063 113.08C328.797 110.761 329.457 108.544 330.041 106.428Z"/>
<path d="M404.318 144.755C403.613 146.37 402.218 147.807 400.134 149.067C398.165 150.392 396.201 151.324 394.241 151.863C392.219 150.492 389.865 148.572 387.18 146.103C384.475 143.549 381.754 140.519 379.018 137.012C375.087 141.756 371.076 146.167 366.985 150.244C362.873 154.237 358.984 157.708 355.317 160.658C354.229 160.686 353.251 160.344 352.383 159.632C351.515 158.92 350.872 157.904 350.454 156.585C352.138 155.313 354.084 153.686 356.292 151.705C358.596 149.706 360.87 147.581 363.114 145.332C365.432 142.981 367.598 140.615 369.611 138.234C371.699 135.751 373.426 133.423 374.792 131.249C372.367 128.207 370.017 125.064 367.742 121.82C365.542 118.475 363.526 115.27 361.692 112.206C359.934 109.041 358.447 106.175 357.23 103.607C355.994 100.956 355.174 98.7947 354.771 97.1237C354.489 95.954 354.451 95.1755 354.656 94.7882C354.936 94.2998 355.695 93.9406 356.933 93.7108C357.886 93.534 359.049 93.4055 360.422 93.3251C361.891 93.227 363.37 93.1708 364.859 93.1563C366.348 93.1418 367.847 93.1691 369.357 93.2381C370.846 93.2236 372.154 93.2862 373.282 93.426C373.314 94.3804 373.41 95.1919 373.571 95.8603C373.732 96.5287 373.964 97.4895 374.266 98.7428C375.052 102.001 376.144 105.29 377.541 108.61C379.014 111.828 380.938 115.268 383.314 118.93C386.271 114.279 388.843 109.262 391.028 103.881C393.192 98.4162 395.183 92.0235 397 84.703C399.481 84.6788 401.68 84.9254 403.596 85.4427C405.492 85.8765 406.788 86.5087 407.486 87.3394C407.365 91.3773 405.582 96.7713 402.135 103.522C398.688 110.272 393.999 117.645 388.067 125.642C390.166 128.57 392.601 131.653 395.372 134.893C398.123 138.048 401.105 141.336 404.318 144.755Z"/>
<path d="M418.317 134.169C418.136 133.417 417.961 132.489 417.795 131.385C417.703 130.18 417.626 128.623 417.564 126.715C417.481 124.722 417.403 122.336 417.33 119.556C417.352 116.759 417.386 113.392 417.431 109.455C417.42 108.584 417.527 107.168 417.75 105.206C417.973 103.244 418.367 101.163 418.931 98.9637C419.57 96.6628 420.42 94.41 421.48 92.2055C422.636 89.9833 424.198 88.2094 426.167 86.8837C427.867 86.9174 430.221 87.397 433.23 88.3224C436.22 89.1643 438.959 90.62 441.448 92.6894C439.781 95.2684 438.448 97.7854 437.448 100.241C436.543 102.678 435.754 105.182 435.08 107.751C434.501 110.302 433.99 112.929 433.547 115.63C433.199 118.313 432.739 121.148 432.166 124.135C431.682 126.669 431.314 129.269 431.062 131.935C430.789 134.517 430.826 136.736 431.174 138.592C431.537 140.095 431.741 141.149 431.787 141.751C431.948 142.42 431.791 142.798 431.315 142.886C430.934 142.957 430.121 142.89 428.878 142.684C427.634 142.478 426.293 142.073 424.853 141.467C423.488 140.76 422.169 139.827 420.894 138.667C419.619 137.506 418.76 136.007 418.317 134.169ZM432.486 74.7121C432.365 74.2108 432.326 73.4323 432.37 72.3767C431.793 72.0473 431.213 71.5002 430.631 70.7354C430.144 69.9529 429.82 69.2275 429.658 68.559C429.477 67.8071 429.33 66.7868 429.219 65.4981C429.182 64.1082 429.173 62.626 429.191 61.0513C429.209 59.4767 429.313 57.8426 429.501 56.149C429.67 54.3719 429.878 52.7619 430.128 51.319C431.27 51.1069 432.722 51.143 434.482 51.4274C436.317 51.6105 438.203 52.0025 440.139 52.6034C442.055 53.1207 443.858 53.7899 445.548 54.6109C447.219 55.3484 448.546 56.106 449.529 56.8836C448.703 57.9971 447.635 59.5485 446.323 61.5378C444.992 63.4434 443.738 65.4656 442.562 67.6043C441.366 69.6594 440.293 71.6044 439.343 73.4394C438.392 75.2744 437.807 76.5614 437.587 77.3005C436.404 77.3456 435.303 77.1134 434.285 76.6041C433.247 76.0112 432.647 75.3806 432.486 74.7121Z"/>
<path d="M492.591 74.9478C493.46 80.1987 493.49 84.8632 492.682 88.9412C491.855 92.9357 490.164 96.6539 487.611 100.096C485.133 103.436 481.881 106.659 477.853 109.763C473.826 112.868 469.016 116.03 463.425 119.25C463.545 119.751 463.629 120.303 463.675 120.906C463.795 121.407 463.926 121.95 464.068 122.535C464.329 123.621 464.697 124.732 465.169 125.866C465.642 127 466.237 128.025 466.955 128.939C467.673 129.853 468.541 130.565 469.56 131.074C470.558 131.5 471.724 131.589 473.057 131.342C475.628 130.864 478.031 129.895 480.266 128.432C482.5 126.97 484.541 125.326 486.389 123.499C488.312 121.57 490.025 119.594 491.527 117.569C493.104 115.444 494.483 113.529 495.664 111.826C496.798 112.401 497.778 112.961 498.606 113.506C495.53 119.314 491.823 124.367 487.486 128.664C483.224 132.859 478.918 135.84 474.568 137.608C467.836 138.159 462.189 137.025 457.628 134.205C453.143 131.284 450.295 127.317 449.086 122.304C448.26 118.878 447.948 115.314 448.149 111.61C448.426 107.805 449.123 104.097 450.242 100.485C451.436 96.7714 452.967 93.2139 454.833 89.8123C456.794 86.393 458.989 83.3232 461.418 80.6028C463.941 77.8648 466.624 75.5775 469.464 73.7408C472.4 71.8865 475.44 70.6677 478.583 70.0844C483.084 69.7725 487.754 71.3937 492.591 74.9478ZM483.731 80.9132C481.24 81.7247 478.795 83.1387 476.396 85.1553C473.997 87.1719 471.861 89.6632 469.99 92.6294C468.213 95.5779 466.728 98.9088 465.534 102.622C464.34 106.335 463.635 110.22 463.419 114.275C470.232 109.519 475.578 104.25 479.457 98.4666C483.316 92.6001 484.741 86.749 483.731 80.9132Z"/>
<path d="M556.3 37.9828C552.491 38.6899 549.317 38.3188 546.778 36.8695C544.314 35.319 542.76 33.2069 542.116 30.5333C541.954 29.8648 541.858 29.0534 541.827 28.099C541.891 27.1269 542.033 26.2713 542.253 25.5321C543.612 25.8037 545.512 25.8438 547.953 25.6525C550.47 25.36 553.347 24.9132 556.585 24.3122C561.443 23.4107 566.879 22.2272 572.893 20.7616C578.983 19.1948 584.787 17.6811 590.306 16.2204C595.824 14.7597 600.686 13.4645 604.891 12.3348C609.076 11.1216 611.787 10.4001 613.026 10.1703C616.549 9.51622 619.355 10.2175 621.443 12.2741C623.606 14.2295 625.532 17.0582 627.221 20.7602C624.705 21.0527 622.198 21.387 619.702 21.7631C617.281 22.0379 615.213 22.3344 613.498 22.6526C610.451 23.2182 607.376 23.8763 604.273 24.6267C601.266 25.3595 598.231 26.1847 595.169 27.1022C594.42 29.7727 593.639 32.9293 592.825 36.5719C591.992 40.1309 591.199 43.8571 590.447 47.7504C589.789 51.6259 589.18 55.4927 588.617 59.3506C588.035 63.1249 587.563 66.5297 587.2 69.565C586.435 75.4683 585.807 80.9097 585.316 85.8891C584.921 90.8509 584.597 95.4937 584.347 99.8176C584.171 104.04 584.098 108.069 584.127 111.905C584.157 115.74 584.261 119.474 584.441 123.107C577.858 123.456 571.679 120.937 565.902 115.549C566.039 112.818 566.269 109.851 566.591 106.648C566.988 103.345 567.438 99.6389 567.94 95.5303C568.516 91.3205 569.21 86.5652 570.022 81.2644C570.833 75.9636 571.769 69.9413 572.829 63.1976C573.217 60.6814 573.633 58.0728 574.076 55.3718C574.499 52.5872 574.884 49.8532 575.232 47.1699C575.675 44.4689 575.996 41.8779 576.193 39.397C576.486 36.8985 576.687 34.6353 576.795 32.6075C572.896 33.7677 569.177 34.8508 565.638 35.8568C562.175 36.7615 559.062 37.4701 556.3 37.9828Z"/>
<path d="M631.337 107.987C625.787 108.493 620.95 107.209 616.825 104.133C612.7 101.058 609.953 96.6798 608.583 90.9982C607.777 87.6561 607.512 84.0827 607.789 80.2778C608.065 76.4729 608.848 72.705 610.137 68.974C611.406 65.1594 613.107 61.4831 615.238 57.9449C617.37 54.4067 619.841 51.242 622.65 48.451C627.062 44.0531 631.554 41.4299 636.126 40.5814C639.516 41.4361 643.231 43.8454 647.272 47.8093C647.748 47.7209 648.176 47.6413 648.557 47.5706C648.918 47.4164 649.337 47.295 649.813 47.2066C654.861 46.2698 658.332 49.7283 660.226 57.5822C661.495 62.846 661.704 68.0447 660.852 73.1784C660.076 78.2109 658.389 82.9759 655.792 87.4733C653.291 91.9531 649.934 95.9806 645.721 99.5558C641.584 103.03 636.789 105.84 631.337 107.987ZM629.102 67.1562C627.946 69.3784 626.926 71.7501 626.041 74.2711C625.157 76.7922 624.473 79.3197 623.989 81.8536C623.486 84.304 623.21 86.6684 623.163 88.9468C623.095 91.1417 623.263 93.0746 623.666 94.7457C624.149 96.7509 624.994 98.6019 626.199 100.299C627.404 101.995 628.513 102.881 629.526 102.955C633.61 101.324 637.142 99.0531 640.122 96.1432C643.177 93.132 645.577 89.6749 647.322 85.772C649.163 81.8514 650.274 77.5861 650.654 72.9763C651.131 68.3487 650.774 63.5701 649.585 58.6405C649.061 56.4682 648.505 54.7819 647.918 53.5816C647.33 52.3814 646.591 51.3836 645.703 50.5882C641.774 52.4522 638.436 54.905 635.687 57.9468C633.033 60.9708 630.838 64.0406 629.102 67.1562Z"/>
<path d="M714.673 85.0557C712.541 84.0547 710.9 82.6135 709.75 80.732C708.695 78.8328 707.996 77.173 707.653 75.7526C707.23 73.998 707.105 72.4499 707.279 71.1082C706.898 71.1789 706.203 72.0064 705.192 73.5907C704.181 75.1751 703.087 77.0365 701.911 79.1752C700.831 81.2962 699.74 83.3754 698.64 85.4128C697.539 87.4503 696.708 88.9575 696.148 89.9344C695.192 91.3339 694.223 92.474 693.241 93.3545C692.355 94.2174 691.589 94.7525 690.942 94.9597C689.398 95.159 687.708 95.1671 685.873 94.984C684.153 94.8667 682.431 94.5318 680.706 93.9791C679.075 93.4087 677.548 92.6447 676.123 91.6871C674.793 90.7118 673.757 89.5076 673.013 88.0743C672.449 85.7349 672.033 83.8043 671.765 82.2827C671.593 80.7434 671.534 79.0523 671.587 77.2093C671.678 73.8752 672.05 70.0526 672.702 65.7416C673.449 61.4129 674.454 57.1236 675.718 52.8736C676.961 48.5401 678.513 44.4548 680.374 40.6177C682.31 36.6794 684.57 33.4666 687.154 30.9792C688.011 30.8201 689.031 30.7181 690.215 30.6731C691.378 30.5445 692.571 30.5413 693.794 30.6633C695.113 30.7677 696.357 30.9734 697.525 31.2803C698.769 31.4859 699.862 31.894 700.806 32.5045C700.15 33.4992 698.634 36.7047 696.259 42.1213C693.979 47.5201 691.774 55.0873 689.644 64.8229C689.39 65.8304 689.141 67.2733 688.897 69.1516C688.654 71.0299 688.43 72.9918 688.227 75.0373C688.024 77.0827 687.906 79.0687 687.873 80.9952C687.935 82.9041 688.097 84.4016 688.359 85.4878C688.52 86.1562 688.737 86.6399 689.008 86.9387C689.374 87.2199 689.672 87.4264 689.903 87.5581C691.211 86.7916 692.688 85.0772 694.334 82.4147C695.981 79.7522 698.192 75.7191 700.969 70.3154C701.639 68.9689 702.412 67.4288 703.287 65.695C704.258 63.9436 705.209 62.1086 706.139 60.1901C707.049 58.188 707.854 56.1619 708.554 54.1116C709.348 52.0436 709.905 50.0199 710.224 48.0403C710.363 46.967 710.557 45.7089 710.806 44.266C711.13 42.7218 711.539 41.1182 712.034 39.4552C712.624 37.7745 713.309 36.0761 714.089 34.36C714.944 32.5427 716.02 30.8154 717.317 29.1781C718.555 28.9483 719.918 28.8261 721.407 28.8116C722.896 28.7971 724.31 28.8838 725.649 29.0718C727.063 29.1585 728.307 29.3642 729.38 29.6887C730.433 29.9297 731.258 30.2567 731.855 30.6696C731.028 34.6641 729.999 38.6522 728.771 42.6338C727.542 46.6155 726.446 50.5288 725.483 54.3739C724.499 58.1354 723.801 61.8439 723.389 65.4993C722.977 69.1548 723.164 72.6117 723.95 75.8703C724.373 77.6249 724.889 79.1441 725.497 80.4279C726.18 81.6105 726.823 82.6259 727.426 83.4743C728.008 84.2391 728.513 84.8875 728.94 85.4193C729.462 85.9334 729.773 86.3994 729.874 86.8172C729.894 86.9007 729.829 87.0437 729.679 87.2462C729.604 87.3474 729.519 87.4069 729.423 87.4245C728.757 87.5483 727.869 87.5821 726.761 87.5258C725.653 87.4696 724.372 87.3146 722.918 87.0608C721.579 86.8728 720.172 86.6101 718.698 86.2728C717.319 85.9177 715.977 85.512 714.673 85.0557Z"/>
<path d="M743.04 80.0526C742.931 77.5412 742.975 74.2159 743.171 70.0768C743.442 65.8365 743.853 61.352 744.404 56.6232C744.935 51.8108 745.561 46.9808 746.283 42.1331C747.004 37.2854 747.789 32.9061 748.637 28.9952C749.25 26.1753 749.862 23.9667 750.472 22.3696C751.061 20.6888 751.807 19.2411 752.708 18.0264C754.082 17.946 755.533 17.9821 757.062 18.1347C758.592 18.2873 760.094 18.5323 761.568 18.8697C763.042 19.2071 764.384 19.6128 765.593 20.0867C766.782 20.4772 767.732 20.9118 768.445 21.3906C766.518 24.5415 764.968 28.0154 763.794 31.8123C762.715 35.5915 761.821 40.3404 761.11 46.0589C765.286 41.0939 768.883 36.4108 771.901 32.0097C775.015 27.591 777.742 22.8075 780.082 17.6593C780.553 17.1355 781.502 16.741 782.931 16.4758C784.264 16.2284 785.6 16.1986 786.939 16.3866C788.258 16.491 789.236 16.8332 789.873 17.4132C789.126 21.7419 789.226 25.8698 790.173 29.7967C791.06 33.473 792.344 36.1154 794.025 37.7237C794.051 38.2427 793.616 39.3273 792.72 40.9775C791.92 42.61 790.957 44.1855 789.83 45.7039C786.977 45.0115 784.308 43.8482 781.825 42.2142C779.321 40.4966 777.301 38.5147 775.764 36.2684C771.953 39.8565 768.798 43.279 766.3 46.536C763.782 49.7095 761.773 53.1376 760.273 56.8204C758.848 60.402 757.83 64.4318 757.218 68.9099C756.702 73.3704 756.424 78.6157 756.386 84.646C755.509 84.7216 754.391 84.6236 753.032 84.3521C751.788 84.1464 750.466 83.8243 749.067 83.3857C747.763 82.9294 746.544 82.4136 745.411 81.8384C744.277 81.2632 743.486 80.6679 743.04 80.0526Z"/>
<path d="M839.715 12.6141C840.003 14.2193 840.073 15.9522 839.924 17.8129C839.851 19.5723 839.605 21.2329 839.185 22.7948C838.746 24.273 838.208 25.5512 837.573 26.6294C836.937 27.7076 836.239 28.3173 835.477 28.4588C834.409 28.5697 833.639 28.0579 833.166 26.9235C833.106 26.6729 833.11 26.2792 833.18 25.7426C833.325 25.1047 833.459 24.425 833.584 23.7035C833.708 22.9821 833.785 22.2695 833.814 21.5657C833.939 20.8442 833.941 20.2329 833.82 19.7316C833.538 18.5618 832.973 17.6628 832.125 17.0346C831.352 16.3051 830.441 16.0376 829.394 16.2321C825.584 16.9392 823.183 19.5671 822.191 24.116C821.198 28.6648 821.679 34.9915 823.634 43.0961C823.835 43.9316 824.004 44.4241 824.139 44.5735C826.119 44.1187 827.871 43.7499 829.395 43.4671C830.994 43.083 832.555 42.7496 834.079 42.4668C834.214 42.6162 834.343 42.9416 834.463 43.4429C834.645 44.1948 834.585 44.7733 834.285 45.1782C832.195 46.0025 830.524 46.7056 829.271 47.2872C828.094 47.7677 827.202 48.1951 826.595 48.5695C825.989 48.9439 825.631 49.3159 825.521 49.6855C825.486 49.9538 825.53 50.3386 825.65 50.8399C825.812 51.5084 825.973 52.1768 826.134 52.8452C826.39 53.4959 826.64 54.3226 826.881 55.3252C828.574 62.3436 827.744 68.39 824.39 73.4643C821.132 78.5209 815.726 82.0994 808.173 84.1997C806.82 84.3636 805.358 84.2857 803.788 83.966C802.219 83.6463 800.656 83.1506 799.101 82.479C797.642 81.7898 796.295 80.9486 795.06 79.9557C793.846 79.0463 792.907 78.042 792.244 76.943C791.478 73.768 791.515 70.6187 792.354 67.4951C793.172 64.288 794.605 61.3595 796.653 58.7099C798.776 55.959 801.438 53.5882 804.639 51.5973C807.916 49.5051 811.619 47.9449 815.749 46.9164C815.245 44.8276 814.513 42.8248 813.554 40.9079C812.594 38.991 811.607 37.1665 810.592 35.4345C809.652 33.6011 808.733 31.8514 807.833 30.1852C806.914 28.4354 806.243 26.6832 805.819 24.9286C805.275 22.6727 805.265 20.3613 805.789 17.9945C806.293 15.5442 807.18 13.2408 808.451 11.0845C809.702 8.84459 811.309 6.8441 813.272 5.08301C815.236 3.32192 817.395 1.96092 819.75 1C820.858 1.05621 822.421 1.55187 824.437 2.48697C826.529 3.32083 828.613 4.33064 830.69 5.5164C832.767 6.70215 834.664 7.96504 836.38 9.30505C838.076 10.5615 839.188 11.6645 839.715 12.6141ZM806.354 78.5141C808.438 77.2543 810.289 75.6451 811.906 73.6864C813.619 71.71 814.995 69.5777 816.035 67.2897C817.076 65.0016 817.752 62.65 818.065 60.235C818.474 57.8023 818.416 55.4998 817.892 53.3274C816.048 53.9316 814.144 55.1143 812.181 56.8754C810.197 58.5529 808.427 60.4964 806.87 62.7057C805.293 64.8315 804.07 66.979 803.2 69.1482C802.33 71.3174 802.066 73.1122 802.409 74.5326C802.852 76.3707 804.167 77.6979 806.354 78.5141Z"/>
</mask>
<path d="M78.3265 80.223C26.631 89.8181 -7.26852 131.444 2.7572 173.017C12.7829 214.589 62.9948 240.604 114.69 231.009C166.386 221.414 200.285 179.788 190.26 138.215C180.234 96.6425 130.011 70.63 78.3265 80.223ZM15.132 175.353L47.5258 169.341C50.2015 178.333 54.1975 186.923 59.6011 194.9L30.8912 200.229C23.648 193.177 18.2189 184.761 15.132 175.353ZM45.3868 160.471L12.993 166.484C11.4723 156.786 12.5506 147.161 15.9178 138.14L44.5947 132.818C43.3475 142.029 43.6706 151.3 45.3868 160.471ZM56.275 130.65L121.305 118.58C127.009 126.464 131.281 135.002 133.998 144.024L56.4163 158.424C54.7247 149.212 54.6994 139.885 56.275 130.65ZM58.5554 167.294L136.148 152.892C137.807 162.11 137.843 171.435 136.256 180.672L71.2814 192.732C65.5665 184.85 61.2837 176.314 58.5554 167.294ZM147.178 150.845L180.024 144.748C181.544 154.446 180.466 164.071 177.099 173.092L147.937 178.504C149.195 169.291 148.883 160.017 147.178 150.845ZM145.039 141.975C142.374 132.98 138.389 124.388 132.997 116.41L162.126 111.003C169.358 118.057 174.787 126.473 177.885 135.879L145.039 141.975ZM152.906 103.448L126.942 108.267C120.576 100.599 112.865 93.662 104.071 87.4915C122.453 88.3146 139.513 94.072 152.906 103.448ZM86.6799 88.1988C97.687 94.4681 107.112 102.013 114.787 110.523L58.5147 120.967C61.5951 110.471 66.7203 100.234 73.8899 90.5913C76.0527 90.0508 78.2155 89.5104 80.4655 89.0928C82.5391 88.7079 84.6116 88.4622 86.6799 88.1988ZM57.609 96.2356C52.4639 104.956 48.6295 113.999 46.3711 123.221L20.8487 127.958C28.6718 114.765 41.4264 103.53 57.609 96.2356ZM40.1002 207.786L65.6557 203.043C72.0025 210.678 79.7071 217.588 88.4703 223.727C70.2671 222.833 53.3721 217.092 40.1002 207.786ZM105.98 223.081C94.9505 216.816 85.5056 209.283 77.8102 200.787L133.995 190.359C130.883 200.87 125.727 211.122 118.525 220.771C116.556 221.257 114.581 221.762 112.551 222.139C110.345 222.549 108.163 222.815 105.98 223.081ZM134.758 215.265C139.972 206.495 143.86 197.387 146.149 188.103L172.157 183.276C164.225 196.637 151.243 207.98 134.758 215.265Z" fill="#E03822"/>
<path d="M278.132 161.498C281.379 164.649 283.406 167.895 284.212 171.237C284.393 171.989 284.459 172.675 284.41 173.296C284.476 173.982 284.494 174.677 284.465 175.38C282.805 175.514 281.061 175.707 279.231 175.959C277.497 176.194 275.677 176.488 273.772 176.841C271.487 177.265 269.163 177.74 266.803 178.266C264.557 178.857 262.036 179.543 259.239 180.324C256.443 181.105 253.333 182.032 249.909 183.103C246.486 184.175 242.522 185.478 238.017 187.013C235.665 186.751 233.152 185.821 230.478 184.222C227.824 182.707 225.212 180.748 222.642 178.344C223.151 176.329 223.798 173.852 224.582 170.913C225.345 167.891 226.216 164.281 227.194 160.084C228.152 155.804 229.149 150.861 230.185 145.257C231.297 139.551 232.36 133.025 233.374 125.679C234.001 120.849 234.52 116.606 234.932 112.951C235.344 109.295 235.643 105.792 235.83 102.44C236.091 98.987 236.275 95.4175 236.381 91.7315C236.488 88.0455 236.558 83.7988 236.593 78.9913C240.563 78.9526 244.151 79.5961 247.357 80.9216C250.637 82.1459 253.966 84.1904 257.343 87.0552C256.843 88.2828 256.266 90.223 255.613 92.8759C254.959 95.5287 254.198 98.7688 253.33 102.596C252.537 106.322 251.675 110.585 250.742 115.385C249.79 120.101 248.823 125.168 247.842 130.588C246.935 135.907 246.006 140.924 245.054 145.64C244.102 150.356 243.239 154.619 242.466 158.428C241.789 162.22 241.276 165.458 240.928 168.141C240.58 170.825 240.557 172.793 240.86 174.046C242.363 173.68 243.724 173.34 244.942 173.027C246.16 172.713 247.416 172.349 248.709 171.935C249.981 171.437 251.35 170.921 252.813 170.387C254.351 169.753 256.155 168.981 258.225 168.073C260.029 167.302 261.71 166.641 263.269 166.09C264.808 165.455 266.319 164.913 267.802 164.463C269.361 163.912 270.939 163.444 272.538 163.06C274.212 162.575 276.077 162.054 278.132 161.498Z" fill="#DE445F"/>
<path d="M330.041 106.428C330.993 106.251 332.129 106.215 333.448 106.319C334.841 106.322 336.123 106.477 337.291 106.784C338.439 107.007 339.407 107.308 340.195 107.685C341.078 108.045 341.57 108.434 341.67 108.852C340.612 112.715 339.706 116.593 338.954 120.486C338.181 124.296 337.616 127.936 337.259 131.406C336.902 134.877 336.733 138.095 336.751 141.059C336.865 144.006 337.173 146.524 337.677 148.613C338.241 150.952 339.001 152.863 339.955 154.344C340.889 155.742 342.103 156.651 343.598 157.072C342.616 157.953 341.271 158.77 339.562 159.524C337.853 160.277 336.285 160.787 334.856 161.052C329.713 162.006 326.396 159.392 324.905 153.209C323.757 148.447 323.994 141.594 325.619 132.65C324.641 136.847 323.327 140.888 321.677 144.774C320.006 148.575 318.198 152.01 316.251 155.077C314.304 158.145 312.199 160.761 309.935 162.928C307.747 164.992 305.597 166.395 303.488 167.136C299.923 167.623 296.714 166.691 293.858 164.34C290.983 161.906 289.021 158.517 287.973 154.172C286.845 149.493 286.799 144.351 287.835 138.747C288.872 133.142 290.618 127.799 293.074 122.717C295.625 117.617 298.643 113.215 302.128 109.513C305.594 105.728 309.258 103.389 313.123 102.497C314.136 102.571 315.304 102.878 316.628 103.418C318.048 103.94 319.402 104.605 320.692 105.413C322.076 106.204 323.281 107.071 324.305 108.016C325.308 108.877 325.948 109.675 326.225 110.409C322.536 111.618 318.977 113.981 315.547 117.498C312.211 120.998 309.351 125.02 306.964 129.566C304.653 134.01 302.984 138.641 301.956 143.458C300.929 148.275 300.879 152.606 301.806 156.449C302.189 158.037 303.097 158.916 304.531 159.086C307.172 158.072 309.869 155.433 312.622 151.168C315.354 146.82 318.375 140.367 321.684 131.809C322.274 130.129 322.919 128.263 323.618 126.213C324.413 124.145 325.188 121.993 325.942 119.758C326.697 117.523 327.404 115.297 328.063 113.08C328.797 110.761 329.457 108.544 330.041 106.428Z" fill="#DE445F"/>
<path d="M404.318 144.755C403.613 146.37 402.218 147.807 400.134 149.067C398.165 150.392 396.201 151.324 394.241 151.863C392.219 150.492 389.865 148.572 387.18 146.103C384.475 143.549 381.754 140.519 379.018 137.012C375.087 141.756 371.076 146.167 366.985 150.244C362.873 154.237 358.984 157.708 355.317 160.658C354.229 160.686 353.251 160.344 352.383 159.632C351.515 158.92 350.872 157.904 350.454 156.585C352.138 155.313 354.084 153.686 356.292 151.705C358.596 149.706 360.87 147.581 363.114 145.332C365.432 142.981 367.598 140.615 369.611 138.234C371.699 135.751 373.426 133.423 374.792 131.249C372.367 128.207 370.017 125.064 367.742 121.82C365.542 118.475 363.526 115.27 361.692 112.206C359.934 109.041 358.447 106.175 357.23 103.607C355.994 100.956 355.174 98.7947 354.771 97.1237C354.489 95.954 354.451 95.1755 354.656 94.7882C354.936 94.2998 355.695 93.9406 356.933 93.7108C357.886 93.534 359.049 93.4055 360.422 93.3251C361.891 93.227 363.37 93.1708 364.859 93.1563C366.348 93.1418 367.847 93.1691 369.357 93.2381C370.846 93.2236 372.154 93.2862 373.282 93.426C373.314 94.3804 373.41 95.1919 373.571 95.8603C373.732 96.5287 373.964 97.4895 374.266 98.7428C375.052 102.001 376.144 105.29 377.541 108.61C379.014 111.828 380.938 115.268 383.314 118.93C386.271 114.279 388.843 109.262 391.028 103.881C393.192 98.4162 395.183 92.0235 397 84.703C399.481 84.6788 401.68 84.9254 403.596 85.4427C405.492 85.8765 406.788 86.5087 407.486 87.3394C407.365 91.3773 405.582 96.7713 402.135 103.522C398.688 110.272 393.999 117.645 388.067 125.642C390.166 128.57 392.601 131.653 395.372 134.893C398.123 138.048 401.105 141.336 404.318 144.755Z" fill="#DE445F"/>
<path d="M418.317 134.169C418.136 133.417 417.961 132.489 417.795 131.385C417.703 130.18 417.626 128.623 417.564 126.715C417.481 124.722 417.403 122.336 417.33 119.556C417.352 116.759 417.386 113.392 417.431 109.455C417.42 108.584 417.527 107.168 417.75 105.206C417.973 103.244 418.367 101.163 418.931 98.9637C419.57 96.6628 420.42 94.41 421.48 92.2055C422.636 89.9833 424.198 88.2094 426.167 86.8837C427.867 86.9174 430.221 87.397 433.23 88.3224C436.22 89.1643 438.959 90.62 441.448 92.6894C439.781 95.2684 438.448 97.7854 437.448 100.241C436.543 102.678 435.754 105.182 435.08 107.751C434.501 110.302 433.99 112.929 433.547 115.63C433.199 118.313 432.739 121.148 432.166 124.135C431.682 126.669 431.314 129.269 431.062 131.935C430.789 134.517 430.826 136.736 431.174 138.592C431.537 140.095 431.741 141.149 431.787 141.751C431.948 142.42 431.791 142.798 431.315 142.886C430.934 142.957 430.121 142.89 428.878 142.684C427.634 142.478 426.293 142.073 424.853 141.467C423.488 140.76 422.169 139.827 420.894 138.667C419.619 137.506 418.76 136.007 418.317 134.169ZM432.486 74.7121C432.365 74.2108 432.326 73.4323 432.37 72.3767C431.793 72.0473 431.213 71.5002 430.631 70.7354C430.144 69.9529 429.82 69.2275 429.658 68.559C429.477 67.8071 429.33 66.7868 429.219 65.4981C429.182 64.1082 429.173 62.626 429.191 61.0513C429.209 59.4767 429.313 57.8426 429.501 56.149C429.67 54.3719 429.878 52.7619 430.128 51.319C431.27 51.1069 432.722 51.143 434.482 51.4274C436.317 51.6105 438.203 52.0025 440.139 52.6034C442.055 53.1207 443.858 53.7899 445.548 54.6109C447.219 55.3484 448.546 56.106 449.529 56.8836C448.703 57.9971 447.635 59.5485 446.323 61.5378C444.992 63.4434 443.738 65.4656 442.562 67.6043C441.366 69.6594 440.293 71.6044 439.343 73.4394C438.392 75.2744 437.807 76.5614 437.587 77.3005C436.404 77.3456 435.303 77.1134 434.285 76.6041C433.247 76.0112 432.647 75.3806 432.486 74.7121Z" fill="#DE445F"/>
<path d="M492.591 74.9478C493.46 80.1987 493.49 84.8632 492.682 88.9412C491.855 92.9357 490.164 96.6539 487.611 100.096C485.133 103.436 481.881 106.659 477.853 109.763C473.826 112.868 469.016 116.03 463.425 119.25C463.545 119.751 463.629 120.303 463.675 120.906C463.795 121.407 463.926 121.95 464.068 122.535C464.329 123.621 464.697 124.732 465.169 125.866C465.642 127 466.237 128.025 466.955 128.939C467.673 129.853 468.541 130.565 469.56 131.074C470.558 131.5 471.724 131.589 473.057 131.342C475.628 130.864 478.031 129.895 480.266 128.432C482.5 126.97 484.541 125.326 486.389 123.499C488.312 121.57 490.025 119.594 491.527 117.569C493.104 115.444 494.483 113.529 495.664 111.826C496.798 112.401 497.778 112.961 498.606 113.506C495.53 119.314 491.823 124.367 487.486 128.664C483.224 132.859 478.918 135.84 474.568 137.608C467.836 138.159 462.189 137.025 457.628 134.205C453.143 131.284 450.295 127.317 449.086 122.304C448.26 118.878 447.948 115.314 448.149 111.61C448.426 107.805 449.123 104.097 450.242 100.485C451.436 96.7714 452.967 93.2139 454.833 89.8123C456.794 86.393 458.989 83.3232 461.418 80.6028C463.941 77.8648 466.624 75.5775 469.464 73.7408C472.4 71.8865 475.44 70.6677 478.583 70.0844C483.084 69.7725 487.754 71.3937 492.591 74.9478ZM483.731 80.9132C481.24 81.7247 478.795 83.1387 476.396 85.1553C473.997 87.1719 471.861 89.6632 469.99 92.6294C468.213 95.5779 466.728 98.9088 465.534 102.622C464.34 106.335 463.635 110.22 463.419 114.275C470.232 109.519 475.578 104.25 479.457 98.4666C483.316 92.6001 484.741 86.749 483.731 80.9132Z" fill="#DE445F"/>
<path d="M556.3 37.9828C552.491 38.6899 549.317 38.3188 546.778 36.8695C544.314 35.319 542.76 33.2069 542.116 30.5333C541.954 29.8648 541.858 29.0534 541.827 28.099C541.891 27.1269 542.033 26.2713 542.253 25.5321C543.612 25.8037 545.512 25.8438 547.953 25.6525C550.47 25.36 553.347 24.9132 556.585 24.3122C561.443 23.4107 566.879 22.2272 572.893 20.7616C578.983 19.1948 584.787 17.6811 590.306 16.2204C595.824 14.7597 600.686 13.4645 604.891 12.3348C609.076 11.1216 611.787 10.4001 613.026 10.1703C616.549 9.51622 619.355 10.2175 621.443 12.2741C623.606 14.2295 625.532 17.0582 627.221 20.7602C624.705 21.0527 622.198 21.387 619.702 21.7631C617.281 22.0379 615.213 22.3344 613.498 22.6526C610.451 23.2182 607.376 23.8763 604.273 24.6267C601.266 25.3595 598.231 26.1847 595.169 27.1022C594.42 29.7727 593.639 32.9293 592.825 36.5719C591.992 40.1309 591.199 43.8571 590.447 47.7504C589.789 51.6259 589.18 55.4927 588.617 59.3506C588.035 63.1249 587.563 66.5297 587.2 69.565C586.435 75.4683 585.807 80.9097 585.316 85.8891C584.921 90.8509 584.597 95.4937 584.347 99.8176C584.171 104.04 584.098 108.069 584.127 111.905C584.157 115.74 584.261 119.474 584.441 123.107C577.858 123.456 571.679 120.937 565.902 115.549C566.039 112.818 566.269 109.851 566.591 106.648C566.988 103.345 567.438 99.6389 567.94 95.5303C568.516 91.3205 569.21 86.5652 570.022 81.2644C570.833 75.9636 571.769 69.9413 572.829 63.1976C573.217 60.6814 573.633 58.0728 574.076 55.3718C574.499 52.5872 574.884 49.8532 575.232 47.1699C575.675 44.4689 575.996 41.8779 576.193 39.397C576.486 36.8985 576.687 34.6353 576.795 32.6075C572.896 33.7677 569.177 34.8508 565.638 35.8568C562.175 36.7615 559.062 37.4701 556.3 37.9828Z" fill="#DE445F"/>
<path d="M631.337 107.987C625.787 108.493 620.95 107.209 616.825 104.133C612.7 101.058 609.953 96.6798 608.583 90.9982C607.777 87.6561 607.512 84.0827 607.789 80.2778C608.065 76.4729 608.848 72.705 610.137 68.974C611.406 65.1594 613.107 61.4831 615.238 57.9449C617.37 54.4067 619.841 51.242 622.65 48.451C627.062 44.0531 631.554 41.4299 636.126 40.5814C639.516 41.4361 643.231 43.8454 647.272 47.8093C647.748 47.7209 648.176 47.6413 648.557 47.5706C648.918 47.4164 649.337 47.295 649.813 47.2066C654.861 46.2698 658.332 49.7283 660.226 57.5822C661.495 62.846 661.704 68.0447 660.852 73.1784C660.076 78.2109 658.389 82.9759 655.792 87.4733C653.291 91.9531 649.934 95.9806 645.721 99.5558C641.584 103.03 636.789 105.84 631.337 107.987ZM629.102 67.1562C627.946 69.3784 626.926 71.7501 626.041 74.2711C625.157 76.7922 624.473 79.3197 623.989 81.8536C623.486 84.304 623.21 86.6684 623.163 88.9468C623.095 91.1417 623.263 93.0746 623.666 94.7457C624.149 96.7509 624.994 98.6019 626.199 100.299C627.404 101.995 628.513 102.881 629.526 102.955C633.61 101.324 637.142 99.0531 640.122 96.1432C643.177 93.132 645.577 89.6749 647.322 85.772C649.163 81.8514 650.274 77.5861 650.654 72.9763C651.131 68.3487 650.774 63.5701 649.585 58.6405C649.061 56.4682 648.505 54.7819 647.918 53.5816C647.33 52.3814 646.591 51.3836 645.703 50.5882C641.774 52.4522 638.436 54.905 635.687 57.9468C633.033 60.9708 630.838 64.0406 629.102 67.1562Z" fill="#DE445F"/>
<path d="M714.673 85.0557C712.541 84.0547 710.9 82.6135 709.75 80.732C708.695 78.8328 707.996 77.173 707.653 75.7526C707.23 73.998 707.105 72.4499 707.279 71.1082C706.898 71.1789 706.203 72.0064 705.192 73.5907C704.181 75.1751 703.087 77.0365 701.911 79.1752C700.831 81.2962 699.74 83.3754 698.64 85.4128C697.539 87.4503 696.708 88.9575 696.148 89.9344C695.192 91.3339 694.223 92.474 693.241 93.3545C692.355 94.2174 691.589 94.7525 690.942 94.9597C689.398 95.159 687.708 95.1671 685.873 94.984C684.153 94.8667 682.431 94.5318 680.706 93.9791C679.075 93.4087 677.548 92.6447 676.123 91.6871C674.793 90.7118 673.757 89.5076 673.013 88.0743C672.449 85.7349 672.033 83.8043 671.765 82.2827C671.593 80.7434 671.534 79.0523 671.587 77.2093C671.678 73.8752 672.05 70.0526 672.702 65.7416C673.449 61.4129 674.454 57.1236 675.718 52.8736C676.961 48.5401 678.513 44.4548 680.374 40.6177C682.31 36.6794 684.57 33.4666 687.154 30.9792C688.011 30.8201 689.031 30.7181 690.215 30.6731C691.378 30.5445 692.571 30.5413 693.794 30.6633C695.113 30.7677 696.357 30.9734 697.525 31.2803C698.769 31.4859 699.862 31.894 700.806 32.5045C700.15 33.4992 698.634 36.7047 696.259 42.1213C693.979 47.5201 691.774 55.0873 689.644 64.8229C689.39 65.8304 689.141 67.2733 688.897 69.1516C688.654 71.0299 688.43 72.9918 688.227 75.0373C688.024 77.0827 687.906 79.0687 687.873 80.9952C687.935 82.9041 688.097 84.4016 688.359 85.4878C688.52 86.1562 688.737 86.6399 689.008 86.9387C689.374 87.2199 689.672 87.4264 689.903 87.5581C691.211 86.7916 692.688 85.0772 694.334 82.4147C695.981 79.7522 698.192 75.7191 700.969 70.3154C701.639 68.9689 702.412 67.4288 703.287 65.695C704.258 63.9436 705.209 62.1086 706.139 60.1901C707.049 58.188 707.854 56.1619 708.554 54.1116C709.348 52.0436 709.905 50.0199 710.224 48.0403C710.363 46.967 710.557 45.7089 710.806 44.266C711.13 42.7218 711.539 41.1182 712.034 39.4552C712.624 37.7745 713.309 36.0761 714.089 34.36C714.944 32.5427 716.02 30.8154 717.317 29.1781C718.555 28.9483 719.918 28.8261 721.407 28.8116C722.896 28.7971 724.31 28.8838 725.649 29.0718C727.063 29.1585 728.307 29.3642 729.38 29.6887C730.433 29.9297 731.258 30.2567 731.855 30.6696C731.028 34.6641 729.999 38.6522 728.771 42.6338C727.542 46.6155 726.446 50.5288 725.483 54.3739C724.499 58.1354 723.801 61.8439 723.389 65.4993C722.977 69.1548 723.164 72.6117 723.95 75.8703C724.373 77.6249 724.889 79.1441 725.497 80.4279C726.18 81.6105 726.823 82.6259 727.426 83.4743C728.008 84.2391 728.513 84.8875 728.94 85.4193C729.462 85.9334 729.773 86.3994 729.874 86.8172C729.894 86.9007 729.829 87.0437 729.679 87.2462C729.604 87.3474 729.519 87.4069 729.423 87.4245C728.757 87.5483 727.869 87.5821 726.761 87.5258C725.653 87.4696 724.372 87.3146 722.918 87.0608C721.579 86.8728 720.172 86.6101 718.698 86.2728C717.319 85.9177 715.977 85.512 714.673 85.0557Z" fill="#DE445F"/>
<path d="M743.04 80.0526C742.931 77.5412 742.975 74.2159 743.171 70.0768C743.442 65.8365 743.853 61.352 744.404 56.6232C744.935 51.8108 745.561 46.9808 746.283 42.1331C747.004 37.2854 747.789 32.9061 748.637 28.9952C749.25 26.1753 749.862 23.9667 750.472 22.3696C751.061 20.6888 751.807 19.2411 752.708 18.0264C754.082 17.946 755.533 17.9821 757.062 18.1347C758.592 18.2873 760.094 18.5323 761.568 18.8697C763.042 19.2071 764.384 19.6128 765.593 20.0867C766.782 20.4772 767.732 20.9118 768.445 21.3906C766.518 24.5415 764.968 28.0154 763.794 31.8123C762.715 35.5915 761.821 40.3404 761.11 46.0589C765.286 41.0939 768.883 36.4108 771.901 32.0097C775.015 27.591 777.742 22.8075 780.082 17.6593C780.553 17.1355 781.502 16.741 782.931 16.4758C784.264 16.2284 785.6 16.1986 786.939 16.3866C788.258 16.491 789.236 16.8332 789.873 17.4132C789.126 21.7419 789.226 25.8698 790.173 29.7967C791.06 33.473 792.344 36.1154 794.025 37.7237C794.051 38.2427 793.616 39.3273 792.72 40.9775C791.92 42.61 790.957 44.1855 789.83 45.7039C786.977 45.0115 784.308 43.8482 781.825 42.2142C779.321 40.4966 777.301 38.5147 775.764 36.2684C771.953 39.8565 768.798 43.279 766.3 46.536C763.782 49.7095 761.773 53.1376 760.273 56.8204C758.848 60.402 757.83 64.4318 757.218 68.9099C756.702 73.3704 756.424 78.6157 756.386 84.646C755.509 84.7216 754.391 84.6236 753.032 84.3521C751.788 84.1464 750.466 83.8243 749.067 83.3857C747.763 82.9294 746.544 82.4136 745.411 81.8384C744.277 81.2632 743.486 80.6679 743.04 80.0526Z" fill="#DE445F"/>
<path d="M839.715 12.6141C840.003 14.2193 840.073 15.9522 839.924 17.8129C839.851 19.5723 839.605 21.2329 839.185 22.7948C838.746 24.273 838.208 25.5512 837.573 26.6294C836.937 27.7076 836.239 28.3173 835.477 28.4588C834.409 28.5697 833.639 28.0579 833.166 26.9235C833.106 26.6729 833.11 26.2792 833.18 25.7426C833.325 25.1047 833.459 24.425 833.584 23.7035C833.708 22.9821 833.785 22.2695 833.814 21.5657C833.939 20.8442 833.941 20.2329 833.82 19.7316C833.538 18.5618 832.973 17.6628 832.125 17.0346C831.352 16.3051 830.441 16.0376 829.394 16.2321C825.584 16.9392 823.183 19.5671 822.191 24.116C821.198 28.6648 821.679 34.9915 823.634 43.0961C823.835 43.9316 824.004 44.4241 824.139 44.5735C826.119 44.1187 827.871 43.7499 829.395 43.4671C830.994 43.083 832.555 42.7496 834.079 42.4668C834.214 42.6162 834.343 42.9416 834.463 43.4429C834.645 44.1948 834.585 44.7733 834.285 45.1782C832.195 46.0025 830.524 46.7056 829.271 47.2872C828.094 47.7677 827.202 48.1951 826.595 48.5695C825.989 48.9439 825.631 49.3159 825.521 49.6855C825.486 49.9538 825.53 50.3386 825.65 50.8399C825.812 51.5084 825.973 52.1768 826.134 52.8452C826.39 53.4959 826.64 54.3226 826.881 55.3252C828.574 62.3436 827.744 68.39 824.39 73.4643C821.132 78.5209 815.726 82.0994 808.173 84.1997C806.82 84.3636 805.358 84.2857 803.788 83.966C802.219 83.6463 800.656 83.1506 799.101 82.479C797.642 81.7898 796.295 80.9486 795.06 79.9557C793.846 79.0463 792.907 78.042 792.244 76.943C791.478 73.768 791.515 70.6187 792.354 67.4951C793.172 64.288 794.605 61.3595 796.653 58.7099C798.776 55.959 801.438 53.5882 804.639 51.5973C807.916 49.5051 811.619 47.9449 815.749 46.9164C815.245 44.8276 814.513 42.8248 813.554 40.9079C812.594 38.991 811.607 37.1665 810.592 35.4345C809.652 33.6011 808.733 31.8514 807.833 30.1852C806.914 28.4354 806.243 26.6832 805.819 24.9286C805.275 22.6727 805.265 20.3613 805.789 17.9945C806.293 15.5442 807.18 13.2408 808.451 11.0845C809.702 8.84459 811.309 6.8441 813.272 5.08301C815.236 3.32192 817.395 1.96092 819.75 1C820.858 1.05621 822.421 1.55187 824.437 2.48697C826.529 3.32083 828.613 4.33064 830.69 5.5164C832.767 6.70215 834.664 7.96504 836.38 9.30505C838.076 10.5615 839.188 11.6645 839.715 12.6141ZM806.354 78.5141C808.438 77.2543 810.289 75.6451 811.906 73.6864C813.619 71.71 814.995 69.5777 816.035 67.2897C817.076 65.0016 817.752 62.65 818.065 60.235C818.474 57.8023 818.416 55.4998 817.892 53.3274C816.048 53.9316 814.144 55.1143 812.181 56.8754C810.197 58.5529 808.427 60.4964 806.87 62.7057C805.293 64.8315 804.07 66.979 803.2 69.1482C802.33 71.3174 802.066 73.1122 802.409 74.5326C802.852 76.3707 804.167 77.6979 806.354 78.5141Z" fill="#DE445F"/>
<path d="M78.3265 80.223C26.631 89.8181 -7.26852 131.444 2.7572 173.017C12.7829 214.589 62.9948 240.604 114.69 231.009C166.386 221.414 200.285 179.788 190.26 138.215C180.234 96.6425 130.011 70.63 78.3265 80.223ZM15.132 175.353L47.5258 169.341C50.2015 178.333 54.1975 186.923 59.6011 194.9L30.8912 200.229C23.648 193.177 18.2189 184.761 15.132 175.353ZM45.3868 160.471L12.993 166.484C11.4723 156.786 12.5506 147.161 15.9178 138.14L44.5947 132.818C43.3475 142.029 43.6706 151.3 45.3868 160.471ZM56.275 130.65L121.305 118.58C127.009 126.464 131.281 135.002 133.998 144.024L56.4163 158.424C54.7247 149.212 54.6994 139.885 56.275 130.65ZM58.5554 167.294L136.148 152.892C137.807 162.11 137.843 171.435 136.256 180.672L71.2814 192.732C65.5665 184.85 61.2837 176.314 58.5554 167.294ZM147.178 150.845L180.024 144.748C181.544 154.446 180.466 164.071 177.099 173.092L147.937 178.504C149.195 169.291 148.883 160.017 147.178 150.845ZM145.039 141.975C142.374 132.98 138.389 124.388 132.997 116.41L162.126 111.003C169.358 118.057 174.787 126.473 177.885 135.879L145.039 141.975ZM152.906 103.448L126.942 108.267C120.576 100.599 112.865 93.662 104.071 87.4915C122.453 88.3146 139.513 94.072 152.906 103.448ZM86.6799 88.1988C97.687 94.4681 107.112 102.013 114.787 110.523L58.5147 120.967C61.5951 110.471 66.7203 100.234 73.8899 90.5913C76.0527 90.0508 78.2155 89.5104 80.4655 89.0928C82.5391 88.7079 84.6116 88.4622 86.6799 88.1988ZM57.609 96.2356C52.4639 104.956 48.6295 113.999 46.3711 123.221L20.8487 127.958C28.6718 114.765 41.4264 103.53 57.609 96.2356ZM40.1002 207.786L65.6557 203.043C72.0025 210.678 79.7071 217.588 88.4703 223.727C70.2671 222.833 53.3721 217.092 40.1002 207.786ZM105.98 223.081C94.9505 216.816 85.5056 209.283 77.8102 200.787L133.995 190.359C130.883 200.87 125.727 211.122 118.525 220.771C116.556 221.257 114.581 221.762 112.551 222.139C110.345 222.549 108.163 222.815 105.98 223.081ZM134.758 215.265C139.972 206.495 143.86 197.387 146.149 188.103L172.157 183.276C164.225 196.637 151.243 207.98 134.758 215.265Z" stroke="#B9715A" stroke-width="2" mask="url(#path-1-outside-1_4_10)"/>
<path d="M278.132 161.498C281.379 164.649 283.406 167.895 284.212 171.237C284.393 171.989 284.459 172.675 284.41 173.296C284.476 173.982 284.494 174.677 284.465 175.38C282.805 175.514 281.061 175.707 279.231 175.959C277.497 176.194 275.677 176.488 273.772 176.841C271.487 177.265 269.163 177.74 266.803 178.266C264.557 178.857 262.036 179.543 259.239 180.324C256.443 181.105 253.333 182.032 249.909 183.103C246.486 184.175 242.522 185.478 238.017 187.013C235.665 186.751 233.152 185.821 230.478 184.222C227.824 182.707 225.212 180.748 222.642 178.344C223.151 176.329 223.798 173.852 224.582 170.913C225.345 167.891 226.216 164.281 227.194 160.084C228.152 155.804 229.149 150.861 230.185 145.257C231.297 139.551 232.36 133.025 233.374 125.679C234.001 120.849 234.52 116.606 234.932 112.951C235.344 109.295 235.643 105.792 235.83 102.44C236.091 98.987 236.275 95.4175 236.381 91.7315C236.488 88.0455 236.558 83.7988 236.593 78.9913C240.563 78.9526 244.151 79.5961 247.357 80.9216C250.637 82.1459 253.966 84.1904 257.343 87.0552C256.843 88.2828 256.266 90.223 255.613 92.8759C254.959 95.5287 254.198 98.7688 253.33 102.596C252.537 106.322 251.675 110.585 250.742 115.385C249.79 120.101 248.823 125.168 247.842 130.588C246.935 135.907 246.006 140.924 245.054 145.64C244.102 150.356 243.239 154.619 242.466 158.428C241.789 162.22 241.276 165.458 240.928 168.141C240.58 170.825 240.557 172.793 240.86 174.046C242.363 173.68 243.724 173.34 244.942 173.027C246.16 172.713 247.416 172.349 248.709 171.935C249.981 171.437 251.35 170.921 252.813 170.387C254.351 169.753 256.155 168.981 258.225 168.073C260.029 167.302 261.71 166.641 263.269 166.09C264.808 165.455 266.319 164.913 267.802 164.463C269.361 163.912 270.939 163.444 272.538 163.06C274.212 162.575 276.077 162.054 278.132 161.498Z" stroke="#B9715A" stroke-width="2" mask="url(#path-1-outside-1_4_10)"/>
<path d="M330.041 106.428C330.993 106.251 332.129 106.215 333.448 106.319C334.841 106.322 336.123 106.477 337.291 106.784C338.439 107.007 339.407 107.308 340.195 107.685C341.078 108.045 341.57 108.434 341.67 108.852C340.612 112.715 339.706 116.593 338.954 120.486C338.181 124.296 337.616 127.936 337.259 131.406C336.902 134.877 336.733 138.095 336.751 141.059C336.865 144.006 337.173 146.524 337.677 148.613C338.241 150.952 339.001 152.863 339.955 154.344C340.889 155.742 342.103 156.651 343.598 157.072C342.616 157.953 341.271 158.77 339.562 159.524C337.853 160.277 336.285 160.787 334.856 161.052C329.713 162.006 326.396 159.392 324.905 153.209C323.757 148.447 323.994 141.594 325.619 132.65C324.641 136.847 323.327 140.888 321.677 144.774C320.006 148.575 318.198 152.01 316.251 155.077C314.304 158.145 312.199 160.761 309.935 162.928C307.747 164.992 305.597 166.395 303.488 167.136C299.923 167.623 296.714 166.691 293.858 164.34C290.983 161.906 289.021 158.517 287.973 154.172C286.845 149.493 286.799 144.351 287.835 138.747C288.872 133.142 290.618 127.799 293.074 122.717C295.625 117.617 298.643 113.215 302.128 109.513C305.594 105.728 309.258 103.389 313.123 102.497C314.136 102.571 315.304 102.878 316.628 103.418C318.048 103.94 319.402 104.605 320.692 105.413C322.076 106.204 323.281 107.071 324.305 108.016C325.308 108.877 325.948 109.675 326.225 110.409C322.536 111.618 318.977 113.981 315.547 117.498C312.211 120.998 309.351 125.02 306.964 129.566C304.653 134.01 302.984 138.641 301.956 143.458C300.929 148.275 300.879 152.606 301.806 156.449C302.189 158.037 303.097 158.916 304.531 159.086C307.172 158.072 309.869 155.433 312.622 151.168C315.354 146.82 318.375 140.367 321.684 131.809C322.274 130.129 322.919 128.263 323.618 126.213C324.413 124.145 325.188 121.993 325.942 119.758C326.697 117.523 327.404 115.297 328.063 113.08C328.797 110.761 329.457 108.544 330.041 106.428Z" stroke="#B9715A" stroke-width="2" mask="url(#path-1-outside-1_4_10)"/>
<path d="M404.318 144.755C403.613 146.37 402.218 147.807 400.134 149.067C398.165 150.392 396.201 151.324 394.241 151.863C392.219 150.492 389.865 148.572 387.18 146.103C384.475 143.549 381.754 140.519 379.018 137.012C375.087 141.756 371.076 146.167 366.985 150.244C362.873 154.237 358.984 157.708 355.317 160.658C354.229 160.686 353.251 160.344 352.383 159.632C351.515 158.92 350.872 157.904 350.454 156.585C352.138 155.313 354.084 153.686 356.292 151.705C358.596 149.706 360.87 147.581 363.114 145.332C365.432 142.981 367.598 140.615 369.611 138.234C371.699 135.751 373.426 133.423 374.792 131.249C372.367 128.207 370.017 125.064 367.742 121.82C365.542 118.475 363.526 115.27 361.692 112.206C359.934 109.041 358.447 106.175 357.23 103.607C355.994 100.956 355.174 98.7947 354.771 97.1237C354.489 95.954 354.451 95.1755 354.656 94.7882C354.936 94.2998 355.695 93.9406 356.933 93.7108C357.886 93.534 359.049 93.4055 360.422 93.3251C361.891 93.227 363.37 93.1708 364.859 93.1563C366.348 93.1418 367.847 93.1691 369.357 93.2381C370.846 93.2236 372.154 93.2862 373.282 93.426C373.314 94.3804 373.41 95.1919 373.571 95.8603C373.732 96.5287 373.964 97.4895 374.266 98.7428C375.052 102.001 376.144 105.29 377.541 108.61C379.014 111.828 380.938 115.268 383.314 118.93C386.271 114.279 388.843 109.262 391.028 103.881C393.192 98.4162 395.183 92.0235 397 84.703C399.481 84.6788 401.68 84.9254 403.596 85.4427C405.492 85.8765 406.788 86.5087 407.486 87.3394C407.365 91.3773 405.582 96.7713 402.135 103.522C398.688 110.272 393.999 117.645 388.067 125.642C390.166 128.57 392.601 131.653 395.372 134.893C398.123 138.048 401.105 141.336 404.318 144.755Z" stroke="#B9715A" stroke-width="2" mask="url(#path-1-outside-1_4_10)"/>
<path d="M418.317 134.169C418.136 133.417 417.961 132.489 417.795 131.385C417.703 130.18 417.626 128.623 417.564 126.715C417.481 124.722 417.403 122.336 417.33 119.556C417.352 116.759 417.386 113.392 417.431 109.455C417.42 108.584 417.527 107.168 417.75 105.206C417.973 103.244 418.367 101.163 418.931 98.9637C419.57 96.6628 420.42 94.41 421.48 92.2055C422.636 89.9833 424.198 88.2094 426.167 86.8837C427.867 86.9174 430.221 87.397 433.23 88.3224C436.22 89.1643 438.959 90.62 441.448 92.6894C439.781 95.2684 438.448 97.7854 437.448 100.241C436.543 102.678 435.754 105.182 435.08 107.751C434.501 110.302 433.99 112.929 433.547 115.63C433.199 118.313 432.739 121.148 432.166 124.135C431.682 126.669 431.314 129.269 431.062 131.935C430.789 134.517 430.826 136.736 431.174 138.592C431.537 140.095 431.741 141.149 431.787 141.751C431.948 142.42 431.791 142.798 431.315 142.886C430.934 142.957 430.121 142.89 428.878 142.684C427.634 142.478 426.293 142.073 424.853 141.467C423.488 140.76 422.169 139.827 420.894 138.667C419.619 137.506 418.76 136.007 418.317 134.169ZM432.486 74.7121C432.365 74.2108 432.326 73.4323 432.37 72.3767C431.793 72.0473 431.213 71.5002 430.631 70.7354C430.144 69.9529 429.82 69.2275 429.658 68.559C429.477 67.8071 429.33 66.7868 429.219 65.4981C429.182 64.1082 429.173 62.626 429.191 61.0513C429.209 59.4767 429.313 57.8426 429.501 56.149C429.67 54.3719 429.878 52.7619 430.128 51.319C431.27 51.1069 432.722 51.143 434.482 51.4274C436.317 51.6105 438.203 52.0025 440.139 52.6034C442.055 53.1207 443.858 53.7899 445.548 54.6109C447.219 55.3484 448.546 56.106 449.529 56.8836C448.703 57.9971 447.635 59.5485 446.323 61.5378C444.992 63.4434 443.738 65.4656 442.562 67.6043C441.366 69.6594 440.293 71.6044 439.343 73.4394C438.392 75.2744 437.807 76.5614 437.587 77.3005C436.404 77.3456 435.303 77.1134 434.285 76.6041C433.247 76.0112 432.647 75.3806 432.486 74.7121Z" stroke="#B9715A" stroke-width="2" mask="url(#path-1-outside-1_4_10)"/>
<path d="M492.591 74.9478C493.46 80.1987 493.49 84.8632 492.682 88.9412C491.855 92.9357 490.164 96.6539 487.611 100.096C485.133 103.436 481.881 106.659 477.853 109.763C473.826 112.868 469.016 116.03 463.425 119.25C463.545 119.751 463.629 120.303 463.675 120.906C463.795 121.407 463.926 121.95 464.068 122.535C464.329 123.621 464.697 124.732 465.169 125.866C465.642 127 466.237 128.025 466.955 128.939C467.673 129.853 468.541 130.565 469.56 131.074C470.558 131.5 471.724 131.589 473.057 131.342C475.628 130.864 478.031 129.895 480.266 128.432C482.5 126.97 484.541 125.326 486.389 123.499C488.312 121.57 490.025 119.594 491.527 117.569C493.104 115.444 494.483 113.529 495.664 111.826C496.798 112.401 497.778 112.961 498.606 113.506C495.53 119.314 491.823 124.367 487.486 128.664C483.224 132.859 478.918 135.84 474.568 137.608C467.836 138.159 462.189 137.025 457.628 134.205C453.143 131.284 450.295 127.317 449.086 122.304C448.26 118.878 447.948 115.314 448.149 111.61C448.426 107.805 449.123 104.097 450.242 100.485C451.436 96.7714 452.967 93.2139 454.833 89.8123C456.794 86.393 458.989 83.3232 461.418 80.6028C463.941 77.8648 466.624 75.5775 469.464 73.7408C472.4 71.8865 475.44 70.6677 478.583 70.0844C483.084 69.7725 487.754 71.3937 492.591 74.9478ZM483.731 80.9132C481.24 81.7247 478.795 83.1387 476.396 85.1553C473.997 87.1719 471.861 89.6632 469.99 92.6294C468.213 95.5779 466.728 98.9088 465.534 102.622C464.34 106.335 463.635 110.22 463.419 114.275C470.232 109.519 475.578 104.25 479.457 98.4666C483.316 92.6001 484.741 86.749 483.731 80.9132Z" stroke="#B9715A" stroke-width="2" mask="url(#path-1-outside-1_4_10)"/>
<path d="M556.3 37.9828C552.491 38.6899 549.317 38.3188 546.778 36.8695C544.314 35.319 542.76 33.2069 542.116 30.5333C541.954 29.8648 541.858 29.0534 541.827 28.099C541.891 27.1269 542.033 26.2713 542.253 25.5321C543.612 25.8037 545.512 25.8438 547.953 25.6525C550.47 25.36 553.347 24.9132 556.585 24.3122C561.443 23.4107 566.879 22.2272 572.893 20.7616C578.983 19.1948 584.787 17.6811 590.306 16.2204C595.824 14.7597 600.686 13.4645 604.891 12.3348C609.076 11.1216 611.787 10.4001 613.026 10.1703C616.549 9.51622 619.355 10.2175 621.443 12.2741C623.606 14.2295 625.532 17.0582 627.221 20.7602C624.705 21.0527 622.198 21.387 619.702 21.7631C617.281 22.0379 615.213 22.3344 613.498 22.6526C610.451 23.2182 607.376 23.8763 604.273 24.6267C601.266 25.3595 598.231 26.1847 595.169 27.1022C594.42 29.7727 593.639 32.9293 592.825 36.5719C591.992 40.1309 591.199 43.8571 590.447 47.7504C589.789 51.6259 589.18 55.4927 588.617 59.3506C588.035 63.1249 587.563 66.5297 587.2 69.565C586.435 75.4683 585.807 80.9097 585.316 85.8891C584.921 90.8509 584.597 95.4937 584.347 99.8176C584.171 104.04 584.098 108.069 584.127 111.905C584.157 115.74 584.261 119.474 584.441 123.107C577.858 123.456 571.679 120.937 565.902 115.549C566.039 112.818 566.269 109.851 566.591 106.648C566.988 103.345 567.438 99.6389 567.94 95.5303C568.516 91.3205 569.21 86.5652 570.022 81.2644C570.833 75.9636 571.769 69.9413 572.829 63.1976C573.217 60.6814 573.633 58.0728 574.076 55.3718C574.499 52.5872 574.884 49.8532 575.232 47.1699C575.675 44.4689 575.996 41.8779 576.193 39.397C576.486 36.8985 576.687 34.6353 576.795 32.6075C572.896 33.7677 569.177 34.8508 565.638 35.8568C562.175 36.7615 559.062 37.4701 556.3 37.9828Z" stroke="#B9715A" stroke-width="2" mask="url(#path-1-outside-1_4_10)"/>
<path d="M631.337 107.987C625.787 108.493 620.95 107.209 616.825 104.133C612.7 101.058 609.953 96.6798 608.583 90.9982C607.777 87.6561 607.512 84.0827 607.789 80.2778C608.065 76.4729 608.848 72.705 610.137 68.974C611.406 65.1594 613.107 61.4831 615.238 57.9449C617.37 54.4067 619.841 51.242 622.65 48.451C627.062 44.0531 631.554 41.4299 636.126 40.5814C639.516 41.4361 643.231 43.8454 647.272 47.8093C647.748 47.7209 648.176 47.6413 648.557 47.5706C648.918 47.4164 649.337 47.295 649.813 47.2066C654.861 46.2698 658.332 49.7283 660.226 57.5822C661.495 62.846 661.704 68.0447 660.852 73.1784C660.076 78.2109 658.389 82.9759 655.792 87.4733C653.291 91.9531 649.934 95.9806 645.721 99.5558C641.584 103.03 636.789 105.84 631.337 107.987ZM629.102 67.1562C627.946 69.3784 626.926 71.7501 626.041 74.2711C625.157 76.7922 624.473 79.3197 623.989 81.8536C623.486 84.304 623.21 86.6684 623.163 88.9468C623.095 91.1417 623.263 93.0746 623.666 94.7457C624.149 96.7509 624.994 98.6019 626.199 100.299C627.404 101.995 628.513 102.881 629.526 102.955C633.61 101.324 637.142 99.0531 640.122 96.1432C643.177 93.132 645.577 89.6749 647.322 85.772C649.163 81.8514 650.274 77.5861 650.654 72.9763C651.131 68.3487 650.774 63.5701 649.585 58.6405C649.061 56.4682 648.505 54.7819 647.918 53.5816C647.33 52.3814 646.591 51.3836 645.703 50.5882C641.774 52.4522 638.436 54.905 635.687 57.9468C633.033 60.9708 630.838 64.0406 629.102 67.1562Z" stroke="#B9715A" stroke-width="2" mask="url(#path-1-outside-1_4_10)"/>
<path d="M714.673 85.0557C712.541 84.0547 710.9 82.6135 709.75 80.732C708.695 78.8328 707.996 77.173 707.653 75.7526C707.23 73.998 707.105 72.4499 707.279 71.1082C706.898 71.1789 706.203 72.0064 705.192 73.5907C704.181 75.1751 703.087 77.0365 701.911 79.1752C700.831 81.2962 699.74 83.3754 698.64 85.4128C697.539 87.4503 696.708 88.9575 696.148 89.9344C695.192 91.3339 694.223 92.474 693.241 93.3545C692.355 94.2174 691.589 94.7525 690.942 94.9597C689.398 95.159 687.708 95.1671 685.873 94.984C684.153 94.8667 682.431 94.5318 680.706 93.9791C679.075 93.4087 677.548 92.6447 676.123 91.6871C674.793 90.7118 673.757 89.5076 673.013 88.0743C672.449 85.7349 672.033 83.8043 671.765 82.2827C671.593 80.7434 671.534 79.0523 671.587 77.2093C671.678 73.8752 672.05 70.0526 672.702 65.7416C673.449 61.4129 674.454 57.1236 675.718 52.8736C676.961 48.5401 678.513 44.4548 680.374 40.6177C682.31 36.6794 684.57 33.4666 687.154 30.9792C688.011 30.8201 689.031 30.7181 690.215 30.6731C691.378 30.5445 692.571 30.5413 693.794 30.6633C695.113 30.7677 696.357 30.9734 697.525 31.2803C698.769 31.4859 699.862 31.894 700.806 32.5045C700.15 33.4992 698.634 36.7047 696.259 42.1213C693.979 47.5201 691.774 55.0873 689.644 64.8229C689.39 65.8304 689.141 67.2733 688.897 69.1516C688.654 71.0299 688.43 72.9918 688.227 75.0373C688.024 77.0827 687.906 79.0687 687.873 80.9952C687.935 82.9041 688.097 84.4016 688.359 85.4878C688.52 86.1562 688.737 86.6399 689.008 86.9387C689.374 87.2199 689.672 87.4264 689.903 87.5581C691.211 86.7916 692.688 85.0772 694.334 82.4147C695.981 79.7522 698.192 75.7191 700.969 70.3154C701.639 68.9689 702.412 67.4288 703.287 65.695C704.258 63.9436 705.209 62.1086 706.139 60.1901C707.049 58.188 707.854 56.1619 708.554 54.1116C709.348 52.0436 709.905 50.0199 710.224 48.0403C710.363 46.967 710.557 45.7089 710.806 44.266C711.13 42.7218 711.539 41.1182 712.034 39.4552C712.624 37.7745 713.309 36.0761 714.089 34.36C714.944 32.5427 716.02 30.8154 717.317 29.1781C718.555 28.9483 719.918 28.8261 721.407 28.8116C722.896 28.7971 724.31 28.8838 725.649 29.0718C727.063 29.1585 728.307 29.3642 729.38 29.6887C730.433 29.9297 731.258 30.2567 731.855 30.6696C731.028 34.6641 729.999 38.6522 728.771 42.6338C727.542 46.6155 726.446 50.5288 725.483 54.3739C724.499 58.1354 723.801 61.8439 723.389 65.4993C722.977 69.1548 723.164 72.6117 723.95 75.8703C724.373 77.6249 724.889 79.1441 725.497 80.4279C726.18 81.6105 726.823 82.6259 727.426 83.4743C728.008 84.2391 728.513 84.8875 728.94 85.4193C729.462 85.9334 729.773 86.3994 729.874 86.8172C729.894 86.9007 729.829 87.0437 729.679 87.2462C729.604 87.3474 729.519 87.4069 729.423 87.4245C728.757 87.5483 727.869 87.5821 726.761 87.5258C725.653 87.4696 724.372 87.3146 722.918 87.0608C721.579 86.8728 720.172 86.6101 718.698 86.2728C717.319 85.9177 715.977 85.512 714.673 85.0557Z" stroke="#B9715A" stroke-width="2" mask="url(#path-1-outside-1_4_10)"/>
<path d="M743.04 80.0526C742.931 77.5412 742.975 74.2159 743.171 70.0768C743.442 65.8365 743.853 61.352 744.404 56.6232C744.935 51.8108 745.561 46.9808 746.283 42.1331C747.004 37.2854 747.789 32.9061 748.637 28.9952C749.25 26.1753 749.862 23.9667 750.472 22.3696C751.061 20.6888 751.807 19.2411 752.708 18.0264C754.082 17.946 755.533 17.9821 757.062 18.1347C758.592 18.2873 760.094 18.5323 761.568 18.8697C763.042 19.2071 764.384 19.6128 765.593 20.0867C766.782 20.4772 767.732 20.9118 768.445 21.3906C766.518 24.5415 764.968 28.0154 763.794 31.8123C762.715 35.5915 761.821 40.3404 761.11 46.0589C765.286 41.0939 768.883 36.4108 771.901 32.0097C775.015 27.591 777.742 22.8075 780.082 17.6593C780.553 17.1355 781.502 16.741 782.931 16.4758C784.264 16.2284 785.6 16.1986 786.939 16.3866C788.258 16.491 789.236 16.8332 789.873 17.4132C789.126 21.7419 789.226 25.8698 790.173 29.7967C791.06 33.473 792.344 36.1154 794.025 37.7237C794.051 38.2427 793.616 39.3273 792.72 40.9775C791.92 42.61 790.957 44.1855 789.83 45.7039C786.977 45.0115 784.308 43.8482 781.825 42.2142C779.321 40.4966 777.301 38.5147 775.764 36.2684C771.953 39.8565 768.798 43.279 766.3 46.536C763.782 49.7095 761.773 53.1376 760.273 56.8204C758.848 60.402 757.83 64.4318 757.218 68.9099C756.702 73.3704 756.424 78.6157 756.386 84.646C755.509 84.7216 754.391 84.6236 753.032 84.3521C751.788 84.1464 750.466 83.8243 749.067 83.3857C747.763 82.9294 746.544 82.4136 745.411 81.8384C744.277 81.2632 743.486 80.6679 743.04 80.0526Z" stroke="#B9715A" stroke-width="2" mask="url(#path-1-outside-1_4_10)"/>
<path d="M839.715 12.6141C840.003 14.2193 840.073 15.9522 839.924 17.8129C839.851 19.5723 839.605 21.2329 839.185 22.7948C838.746 24.273 838.208 25.5512 837.573 26.6294C836.937 27.7076 836.239 28.3173 835.477 28.4588C834.409 28.5697 833.639 28.0579 833.166 26.9235C833.106 26.6729 833.11 26.2792 833.18 25.7426C833.325 25.1047 833.459 24.425 833.584 23.7035C833.708 22.9821 833.785 22.2695 833.814 21.5657C833.939 20.8442 833.941 20.2329 833.82 19.7316C833.538 18.5618 832.973 17.6628 832.125 17.0346C831.352 16.3051 830.441 16.0376 829.394 16.2321C825.584 16.9392 823.183 19.5671 822.191 24.116C821.198 28.6648 821.679 34.9915 823.634 43.0961C823.835 43.9316 824.004 44.4241 824.139 44.5735C826.119 44.1187 827.871 43.7499 829.395 43.4671C830.994 43.083 832.555 42.7496 834.079 42.4668C834.214 42.6162 834.343 42.9416 834.463 43.4429C834.645 44.1948 834.585 44.7733 834.285 45.1782C832.195 46.0025 830.524 46.7056 829.271 47.2872C828.094 47.7677 827.202 48.1951 826.595 48.5695C825.989 48.9439 825.631 49.3159 825.521 49.6855C825.486 49.9538 825.53 50.3386 825.65 50.8399C825.812 51.5084 825.973 52.1768 826.134 52.8452C826.39 53.4959 826.64 54.3226 826.881 55.3252C828.574 62.3436 827.744 68.39 824.39 73.4643C821.132 78.5209 815.726 82.0994 808.173 84.1997C806.82 84.3636 805.358 84.2857 803.788 83.966C802.219 83.6463 800.656 83.1506 799.101 82.479C797.642 81.7898 796.295 80.9486 795.06 79.9557C793.846 79.0463 792.907 78.042 792.244 76.943C791.478 73.768 791.515 70.6187 792.354 67.4951C793.172 64.288 794.605 61.3595 796.653 58.7099C798.776 55.959 801.438 53.5882 804.639 51.5973C807.916 49.5051 811.619 47.9449 815.749 46.9164C815.245 44.8276 814.513 42.8248 813.554 40.9079C812.594 38.991 811.607 37.1665 810.592 35.4345C809.652 33.6011 808.733 31.8514 807.833 30.1852C806.914 28.4354 806.243 26.6832 805.819 24.9286C805.275 22.6727 805.265 20.3613 805.789 17.9945C806.293 15.5442 807.18 13.2408 808.451 11.0845C809.702 8.84459 811.309 6.8441 813.272 5.08301C815.236 3.32192 817.395 1.96092 819.75 1C820.858 1.05621 822.421 1.55187 824.437 2.48697C826.529 3.32083 828.613 4.33064 830.69 5.5164C832.767 6.70215 834.664 7.96504 836.38 9.30505C838.076 10.5615 839.188 11.6645 839.715 12.6141ZM806.354 78.5141C808.438 77.2543 810.289 75.6451 811.906 73.6864C813.619 71.71 814.995 69.5777 816.035 67.2897C817.076 65.0016 817.752 62.65 818.065 60.235C818.474 57.8023 818.416 55.4998 817.892 53.3274C816.048 53.9316 814.144 55.1143 812.181 56.8754C810.197 58.5529 808.427 60.4964 806.87 62.7057C805.293 64.8315 804.07 66.979 803.2 69.1482C802.33 71.3174 802.066 73.1122 802.409 74.5326C802.852 76.3707 804.167 77.6979 806.354 78.5141Z" stroke="#B9715A" stroke-width="2" mask="url(#path-1-outside-1_4_10)"/>
</svg>
