<svg width="753" height="156" viewBox="0 0 753 156" fill="none" xmlns="http://www.w3.org/2000/svg">
<mask id="path-1-outside-1_4_11" maskUnits="userSpaceOnUse" x="0" y="0" width="753" height="156" fill="black">
<rect fill="white" width="753" height="156"/>
<path d="M85 1C38.6814 1 1 35.5413 1 78C1 120.459 38.6814 155 85 155C131.319 155 169 120.459 169 78C169 35.5413 131.309 1 85 1ZM11.1294 82.5294H40.1539C40.5887 91.8056 42.2391 100.928 45.2235 109.706H19.4998C14.7464 101.499 11.8311 92.2858 11.1294 82.5294ZM40.1539 73.4706H11.1294C11.8311 63.7142 14.7464 54.5014 19.4998 46.2941H45.1939C42.2193 55.0721 40.5788 64.1944 40.1539 73.4706ZM55.6593 46.2941H113.926C117.187 55.0359 119.084 64.1581 119.549 73.4706H50.0362C50.4908 64.1581 52.3981 55.0359 55.6593 46.2941ZM50.0362 82.5294H119.559C119.074 91.8419 117.177 100.964 113.906 109.706H55.6889C52.4179 100.964 50.5106 91.8419 50.0362 82.5294ZM129.441 82.5294H158.871C158.169 92.2858 155.254 101.499 150.5 109.706H124.371C127.356 100.928 129.006 91.8056 129.441 82.5294ZM129.441 73.4706C129.016 64.1944 127.376 55.0721 124.401 46.2941H150.5C155.244 54.5014 158.159 63.7142 158.871 73.4706H129.441ZM144.156 37.2353H120.893C117.019 28.5841 111.84 20.404 105.575 12.7765C121.169 16.9164 134.609 25.64 144.156 37.2353ZM90.5144 10.3125C98.6574 18.4382 105.18 27.5242 110.002 37.2353H59.5826C64.3953 27.5333 70.9078 18.4564 79.0508 10.3306C81.0174 10.1947 82.984 10.0588 85 10.0588C86.8579 10.0588 88.6861 10.1947 90.5144 10.3125ZM63.9209 12.8942C57.7049 20.4855 52.5464 28.6294 48.7021 37.2353H25.8344C35.272 25.7578 48.5341 17.0885 63.9209 12.8942ZM25.8344 118.765H48.7318C52.5958 127.38 57.7741 135.533 64.0198 143.124C48.5934 138.948 35.2918 130.269 25.8344 118.765ZM79.1694 145.669C71.0066 137.544 64.4645 128.467 59.6221 118.765H109.963C105.12 128.476 98.5784 137.562 90.4056 145.688C88.6169 145.805 86.8184 145.941 85 145.941C83.0235 145.941 81.0965 145.805 79.1694 145.669ZM105.466 143.251C111.752 135.623 116.969 127.425 120.853 118.765H144.156C134.59 130.387 121.11 139.12 105.466 143.251Z"/>
<path d="M239.544 116.704C241.677 120.373 242.744 123.915 242.744 127.328C242.744 128.096 242.659 128.779 242.488 129.376C242.403 130.059 242.275 130.741 242.104 131.424C240.653 131.253 239.117 131.125 237.496 131.04C235.96 130.955 234.339 130.912 232.632 130.912C230.584 130.912 228.493 130.955 226.36 131.04C224.312 131.211 222.008 131.424 219.448 131.68C216.888 131.936 214.029 132.277 210.872 132.704C207.715 133.131 204.045 133.685 199.864 134.368C197.901 133.685 195.939 132.32 193.976 130.272C192.013 128.309 190.179 125.92 188.472 123.104C189.325 121.227 190.392 118.923 191.672 116.192C192.952 113.376 194.445 110.005 196.152 106.08C197.859 102.069 199.736 97.4187 201.784 92.128C203.917 86.752 206.179 80.5653 208.568 73.568C210.104 68.96 211.427 64.9067 212.536 61.408C213.645 57.9093 214.627 54.5387 215.48 51.296C216.419 47.968 217.315 44.512 218.168 40.928C219.021 37.344 219.96 33.2053 220.984 28.512C224.397 29.1947 227.341 30.4747 229.816 32.352C232.376 34.144 234.808 36.7467 237.112 40.16C236.429 41.2693 235.533 43.0613 234.424 45.536C233.315 48.0107 231.992 51.04 230.456 54.624C229.005 58.1227 227.384 62.1333 225.592 66.656C223.8 71.0933 221.923 75.872 219.96 80.992C218.083 86.0267 216.248 90.7627 214.456 95.2C212.664 99.6373 211.043 103.648 209.592 107.232C208.227 110.816 207.117 113.888 206.264 116.448C205.411 119.008 204.984 120.928 204.984 122.208C206.349 122.123 207.587 122.037 208.696 121.952C209.805 121.867 210.957 121.739 212.152 121.568C213.347 121.312 214.627 121.056 215.992 120.8C217.443 120.459 219.149 120.032 221.112 119.52C222.819 119.093 224.397 118.752 225.848 118.496C227.299 118.155 228.707 117.899 230.072 117.728C231.523 117.472 232.973 117.301 234.424 117.216C235.96 117.045 237.667 116.875 239.544 116.704Z"/>
<path d="M295.451 72.288C296.304 72.288 297.286 72.4587 298.395 72.8C299.59 73.056 300.656 73.44 301.595 73.952C302.534 74.3787 303.302 74.848 303.899 75.36C304.582 75.872 304.923 76.3413 304.923 76.768C303.216 80.352 301.638 83.9787 300.187 87.648C298.736 91.232 297.499 94.688 296.475 98.016C295.451 101.344 294.64 104.459 294.043 107.36C293.531 110.261 293.275 112.779 293.275 114.912C293.275 117.301 293.531 119.307 294.043 120.928C294.555 122.464 295.408 123.573 296.603 124.256C295.579 124.939 294.256 125.493 292.635 125.92C291.014 126.347 289.563 126.56 288.283 126.56C283.675 126.56 281.371 123.403 281.371 117.088C281.371 112.224 282.992 105.568 286.235 97.12C284.528 101.045 282.566 104.757 280.347 108.256C278.128 111.669 275.867 114.699 273.563 117.344C271.259 119.989 268.912 122.165 266.523 123.872C264.219 125.493 262.086 126.475 260.123 126.816C256.966 126.645 254.406 125.152 252.443 122.336C250.48 119.435 249.499 115.765 249.499 111.328C249.499 106.549 250.523 101.515 252.571 96.224C254.619 90.9333 257.222 86.0267 260.379 81.504C263.622 76.9813 267.12 73.2267 270.875 70.24C274.63 67.168 278.256 65.5467 281.755 65.376C282.608 65.632 283.547 66.144 284.571 66.912C285.68 67.68 286.704 68.576 287.643 69.6C288.667 70.624 289.52 71.6907 290.203 72.8C290.886 73.824 291.27 74.72 291.355 75.488C287.942 76 284.4 77.664 280.731 80.48C277.147 83.296 273.862 86.7093 270.875 90.72C267.974 94.6453 265.584 98.8693 263.707 103.392C261.83 107.915 260.891 112.139 260.891 116.064C260.891 117.685 261.488 118.709 262.683 119.136C265.158 118.624 268.016 116.533 271.259 112.864C274.502 109.109 278.427 103.349 283.035 95.584C283.888 94.048 284.827 92.3413 285.851 90.464C286.96 88.5867 288.07 86.624 289.179 84.576C290.288 82.528 291.355 80.48 292.379 78.432C293.488 76.2987 294.512 74.2507 295.451 72.288Z"/>
<path d="M351.224 123.232C350.285 124.683 348.792 125.835 346.744 126.688C344.781 127.627 342.904 128.181 341.112 128.352C339.661 126.645 338.04 124.341 336.248 121.44C334.456 118.453 332.749 114.997 331.128 111.072C326.776 114.997 322.424 118.581 318.072 121.824C313.72 124.981 309.667 127.669 305.912 129.888C304.973 129.717 304.205 129.205 303.608 128.352C303.011 127.499 302.669 126.389 302.584 125.024C304.291 124.085 306.296 122.848 308.6 121.312C310.989 119.776 313.379 118.112 315.768 116.32C318.243 114.443 320.589 112.523 322.808 110.56C325.112 108.512 327.075 106.549 328.696 104.672C327.245 101.259 325.88 97.76 324.6 94.176C323.405 90.5067 322.339 87.008 321.4 83.68C320.547 80.2667 319.864 77.1947 319.352 74.464C318.84 71.648 318.584 69.3867 318.584 67.68C318.584 66.4853 318.712 65.7173 318.968 65.376C319.309 64.9493 320.035 64.736 321.144 64.736C321.997 64.736 323.021 64.8213 324.216 64.992C325.496 65.1627 326.776 65.376 328.056 65.632C329.336 65.888 330.616 66.1867 331.896 66.528C333.176 66.784 334.285 67.0827 335.224 67.424C335.053 68.3627 334.968 69.1733 334.968 69.856C334.968 70.5387 334.968 71.52 334.968 72.8C334.968 76.128 335.224 79.5413 335.736 83.04C336.333 86.4533 337.272 90.1653 338.552 94.176C342.051 90.1653 345.293 85.728 348.28 80.864C351.267 75.9147 354.296 70.0267 357.368 63.2C359.501 63.6267 361.336 64.2667 362.872 65.12C364.408 65.888 365.389 66.7413 365.816 67.68C364.877 71.6053 362.232 76.5547 357.88 82.528C353.528 88.5013 347.981 94.8587 341.24 101.6C342.435 104.843 343.885 108.299 345.592 111.968C347.299 115.552 349.176 119.307 351.224 123.232Z"/>
<path d="M365.419 115.424C365.419 114.656 365.462 113.717 365.547 112.608C365.718 111.413 365.974 109.877 366.315 108C366.656 106.037 367.083 103.691 367.595 100.96C368.192 98.2293 368.918 94.944 369.771 91.104C369.942 90.2507 370.326 88.8853 370.923 87.008C371.52 85.1307 372.288 83.168 373.227 81.12C374.251 78.9867 375.446 76.9387 376.811 74.976C378.262 73.0133 379.968 71.5627 381.931 70.624C383.382 70.9653 385.302 71.8613 387.691 73.312C390.08 74.6773 392.128 76.5973 393.835 79.072C391.872 81.2907 390.208 83.5093 388.843 85.728C387.563 87.9467 386.368 90.2507 385.259 92.64C384.235 95.0293 383.254 97.504 382.315 100.064C381.462 102.624 380.48 105.312 379.371 108.128C378.432 110.517 377.579 112.992 376.811 115.552C376.043 118.027 375.616 120.203 375.531 122.08C375.531 123.616 375.488 124.683 375.403 125.28C375.403 125.963 375.19 126.304 374.763 126.304C374.422 126.304 373.739 126.091 372.715 125.664C371.691 125.237 370.624 124.597 369.515 123.744C368.491 122.805 367.552 121.653 366.699 120.288C365.846 118.923 365.419 117.301 365.419 115.424ZM389.867 59.872C389.867 59.36 389.995 58.592 390.251 57.568C389.824 57.1413 389.44 56.5013 389.099 55.648C388.843 54.7947 388.715 54.0267 388.715 53.344C388.715 52.576 388.8 51.552 388.971 50.272C389.227 48.9067 389.526 47.456 389.867 45.92C390.208 44.384 390.635 42.8053 391.147 41.184C391.659 39.4773 392.171 37.9413 392.683 36.576C393.707 36.576 394.944 36.8747 396.395 37.472C397.931 37.984 399.467 38.7093 401.003 39.648C402.539 40.5013 403.947 41.4827 405.227 42.592C406.507 43.616 407.488 44.5973 408.171 45.536C407.232 46.4747 405.995 47.7973 404.459 49.504C402.923 51.1253 401.43 52.8747 399.979 54.752C398.528 56.544 397.206 58.2507 396.011 59.872C394.816 61.4933 394.048 62.6453 393.707 63.328C392.683 63.1573 391.787 62.7307 391.019 62.048C390.251 61.28 389.867 60.5547 389.867 59.872Z"/>
<path d="M441.365 71.008C441.024 76.2987 440.085 80.864 438.549 84.704C437.013 88.4587 434.794 91.7867 431.893 94.688C429.077 97.504 425.621 100.064 421.525 102.368C417.429 104.672 412.65 106.891 407.189 109.024C407.189 109.536 407.146 110.091 407.061 110.688C407.061 111.2 407.061 111.755 407.061 112.352C407.061 113.461 407.146 114.613 407.317 115.808C407.488 117.003 407.786 118.112 408.213 119.136C408.64 120.16 409.237 121.013 410.005 121.696C410.773 122.293 411.754 122.592 412.949 122.592C415.253 122.592 417.514 122.08 419.733 121.056C421.952 120.032 424.042 118.795 426.005 117.344C428.053 115.808 429.93 114.187 431.637 112.48C433.429 110.688 435.008 109.067 436.373 107.616C437.226 108.384 437.952 109.109 438.549 109.792C434.709 114.912 430.485 119.179 425.877 122.592C421.354 125.92 417.045 128.053 412.949 128.992C407.061 128.309 402.453 126.176 399.125 122.592C395.882 118.923 394.261 114.528 394.261 109.408C394.261 105.909 394.73 102.368 395.669 98.784C396.693 95.1147 398.058 91.616 399.765 88.288C401.557 84.8747 403.605 81.6747 405.909 78.688C408.298 75.7013 410.816 73.0987 413.461 70.88C416.192 68.6613 418.965 66.912 421.781 65.632C424.682 64.352 427.541 63.712 430.357 63.712C434.282 64.224 437.952 66.656 441.365 71.008ZM432.533 75.232C430.229 75.5733 427.84 76.512 425.365 78.048C422.89 79.584 420.544 81.632 418.325 84.192C416.192 86.752 414.229 89.7387 412.437 93.152C410.645 96.5653 409.237 100.235 408.213 104.16C415.04 100.747 420.714 96.5653 425.237 91.616C429.76 86.5813 432.192 81.12 432.533 75.232Z"/>
<path d="M503.647 46.432C500.234 46.432 497.588 45.4933 495.711 43.616C493.919 41.6533 493.023 39.3067 493.023 36.576C493.023 35.8933 493.108 35.0827 493.279 34.144C493.535 33.2053 493.834 32.3947 494.175 31.712C495.284 32.224 496.906 32.608 499.039 32.864C501.258 33.0347 503.818 33.12 506.719 33.12C511.071 33.12 515.978 32.9493 521.439 32.608C526.986 32.1813 532.276 31.7547 537.311 31.328C542.346 30.9013 546.783 30.5173 550.623 30.176C554.463 29.7493 556.938 29.536 558.047 29.536C561.204 29.536 563.466 30.7307 564.831 33.12C566.282 35.424 567.348 38.5387 568.031 42.464C565.812 42.2933 563.594 42.1653 561.375 42.08C559.242 41.9093 557.407 41.824 555.871 41.824C553.14 41.824 550.367 41.9093 547.551 42.08C544.82 42.2507 542.047 42.5067 539.231 42.848C538.036 45.3227 536.714 48.2667 535.263 51.68C533.812 55.008 532.362 58.5067 530.911 62.176C529.546 65.8453 528.223 69.5147 526.943 73.184C525.663 76.768 524.554 80.0107 523.615 82.912C521.738 88.544 520.074 93.7493 518.623 98.528C517.258 103.307 516.02 107.787 514.911 111.968C513.887 116.064 512.991 119.989 512.223 123.744C511.455 127.499 510.772 131.168 510.175 134.752C504.458 133.899 499.679 130.315 495.839 124C496.522 121.355 497.332 118.496 498.271 115.424C499.295 112.267 500.447 108.725 501.727 104.8C503.092 100.789 504.671 96.2667 506.463 91.232C508.255 86.1973 510.303 80.48 512.607 74.08C513.46 71.6907 514.356 69.216 515.295 66.656C516.234 64.0107 517.13 61.408 517.983 58.848C518.922 56.288 519.732 53.8133 520.415 51.424C521.183 49.0347 521.823 46.8587 522.335 44.896C518.751 45.3227 515.338 45.7067 512.095 46.048C508.938 46.304 506.122 46.432 503.647 46.432Z"/>
<path d="M553.52 128.48C548.656 127.968 544.773 125.835 541.872 122.08C538.971 118.325 537.52 113.547 537.52 107.744C537.52 104.331 538.032 100.789 539.056 97.12C540.08 93.4507 541.531 89.9093 543.408 86.496C545.285 82.9973 547.504 79.712 550.064 76.64C552.624 73.568 555.397 70.9227 558.384 68.704C563.077 65.2053 567.472 63.456 571.568 63.456C574.299 64.9067 576.987 67.936 579.632 72.544C580.059 72.544 580.443 72.544 580.784 72.544C581.125 72.4587 581.509 72.416 581.936 72.416C586.459 72.416 588.72 76.4267 588.72 84.448C588.72 89.824 587.824 94.944 586.032 99.808C584.325 104.587 581.893 108.939 578.736 112.864C575.664 116.789 571.952 120.117 567.6 122.848C563.333 125.493 558.64 127.371 553.52 128.48ZM560.048 88.16C558.597 90.1227 557.232 92.256 555.952 94.56C554.672 96.864 553.563 99.2107 552.624 101.6C551.685 103.904 550.96 106.165 550.448 108.384C549.936 110.517 549.68 112.437 549.68 114.144C549.68 116.192 550.021 118.155 550.704 120.032C551.387 121.909 552.155 122.976 553.008 123.232C556.848 122.379 560.347 120.8 563.504 118.496C566.747 116.107 569.52 113.163 571.824 109.664C574.213 106.165 576.048 102.197 577.328 97.76C578.693 93.3227 579.376 88.5867 579.376 83.552C579.376 81.3333 579.248 79.584 578.992 78.304C578.736 77.024 578.309 75.9147 577.712 74.976C573.957 76.0853 570.587 77.8773 567.6 80.352C564.699 82.8267 562.181 85.4293 560.048 88.16Z"/>
<path d="M629.732 121.184C628.111 119.819 627.001 118.112 626.404 116.064C625.892 114.016 625.636 112.267 625.636 110.816C625.636 109.024 625.849 107.488 626.276 106.208C625.935 106.208 625.167 106.891 623.972 108.256C622.777 109.621 621.455 111.243 620.004 113.12C618.639 114.997 617.273 116.832 615.908 118.624C614.543 120.416 613.519 121.739 612.836 122.592C611.727 123.787 610.66 124.725 609.636 125.408C608.697 126.091 607.929 126.475 607.332 126.56C605.967 126.475 604.516 126.176 602.98 125.664C601.529 125.237 600.121 124.597 598.756 123.744C597.476 122.891 596.324 121.867 595.3 120.672C594.361 119.477 593.721 118.112 593.38 116.576C593.38 114.187 593.423 112.224 593.508 110.688C593.679 109.152 593.977 107.488 594.404 105.696C595.172 102.453 596.281 98.784 597.732 94.688C599.268 90.592 601.017 86.5813 602.98 82.656C604.943 78.6453 607.119 74.9333 609.508 71.52C611.983 68.0213 614.585 65.2907 617.316 63.328C618.084 63.328 618.98 63.4133 620.004 63.584C621.028 63.6693 622.052 63.8827 623.076 64.224C624.185 64.5653 625.209 64.992 626.148 65.504C627.172 65.9307 628.025 66.528 628.708 67.296C627.94 68.1493 625.977 71.008 622.82 75.872C619.748 80.736 616.292 87.7333 612.452 96.864C612.025 97.8027 611.513 99.168 610.916 100.96C610.319 102.752 609.721 104.629 609.124 106.592C608.527 108.555 608.015 110.475 607.588 112.352C607.247 114.229 607.076 115.723 607.076 116.832C607.076 117.515 607.161 118.027 607.332 118.368C607.588 118.709 607.801 118.965 607.972 119.136C609.252 118.624 610.873 117.216 612.836 114.912C614.799 112.608 617.529 109.067 621.028 104.288C621.881 103.093 622.863 101.728 623.972 100.192C625.167 98.656 626.361 97.0347 627.556 95.328C628.751 93.536 629.86 91.7013 630.884 89.824C631.993 87.9467 632.889 86.0693 633.572 84.192C633.913 83.168 634.34 81.9733 634.852 80.608C635.449 79.1573 636.132 77.664 636.9 76.128C637.753 74.592 638.692 73.056 639.716 71.52C640.825 69.8987 642.105 68.4053 643.556 67.04C644.665 67.04 645.86 67.168 647.14 67.424C648.42 67.68 649.615 68.0213 650.724 68.448C651.919 68.7893 652.943 69.216 653.796 69.728C654.649 70.1547 655.289 70.624 655.716 71.136C654.18 74.8907 652.473 78.6027 650.596 82.272C648.719 85.9413 646.969 89.568 645.348 93.152C643.727 96.6507 642.361 100.149 641.252 103.648C640.143 107.147 639.588 110.56 639.588 113.888C639.588 115.68 639.716 117.259 639.972 118.624C640.313 119.904 640.655 121.013 640.996 121.952C641.337 122.805 641.636 123.531 641.892 124.128C642.233 124.725 642.404 125.237 642.404 125.664C642.404 125.749 642.319 125.877 642.148 126.048C642.063 126.133 641.977 126.176 641.892 126.176C641.295 126.176 640.527 126.048 639.588 125.792C638.649 125.536 637.583 125.152 636.388 124.64C635.279 124.213 634.127 123.701 632.932 123.104C631.823 122.507 630.756 121.867 629.732 121.184Z"/>
<path d="M655.094 121.44C655.521 118.965 656.246 115.723 657.27 111.712C658.379 107.616 659.659 103.307 661.11 98.784C662.561 94.176 664.097 89.568 665.718 84.96C667.339 80.352 668.918 76.2133 670.454 72.544C671.563 69.8987 672.545 67.8507 673.398 66.4C674.251 64.864 675.19 63.584 676.214 62.56C677.409 62.7307 678.646 63.0293 679.926 63.456C681.206 63.8827 682.443 64.3947 683.638 64.992C684.833 65.5893 685.899 66.2293 686.838 66.912C687.777 67.5093 688.502 68.1067 689.014 68.704C686.71 71.4347 684.662 74.5493 682.87 78.048C681.163 81.5467 679.414 86.0267 677.622 91.488C682.23 87.392 686.283 83.4667 689.782 79.712C693.366 75.9573 696.694 71.776 699.766 67.168C700.278 66.7413 701.174 66.528 702.454 66.528C703.649 66.528 704.801 66.7413 705.91 67.168C707.019 67.5093 707.787 68.0213 708.214 68.704C706.678 72.8 705.91 76.8533 705.91 80.864C705.91 84.6187 706.465 87.4347 707.574 89.312C707.489 89.824 706.891 90.8053 705.782 92.256C704.758 93.7067 703.606 95.072 702.326 96.352C700.022 95.1573 697.974 93.536 696.182 91.488C694.39 89.3547 693.067 87.0507 692.214 84.576C688.203 87.392 684.79 90.1653 681.974 92.896C679.158 95.5413 676.726 98.528 674.678 101.856C672.715 105.099 671.009 108.853 669.558 113.12C668.193 117.387 666.87 122.464 665.59 128.352C664.822 128.267 663.883 127.968 662.774 127.456C661.75 127.029 660.683 126.475 659.574 125.792C658.55 125.109 657.611 124.384 656.758 123.616C655.905 122.848 655.35 122.123 655.094 121.44Z"/>
<path d="M751.951 73.056C751.866 74.6773 751.567 76.384 751.055 78.176C750.628 79.8827 750.074 81.4613 749.391 82.912C748.708 84.2773 747.983 85.4293 747.215 86.368C746.447 87.3067 745.722 87.776 745.039 87.776C744.1 87.6907 743.546 87.0507 743.375 85.856C743.375 85.6 743.46 85.216 743.631 84.704C743.887 84.1067 744.143 83.4667 744.399 82.784C744.655 82.1013 744.868 81.4187 745.039 80.736C745.295 80.0533 745.423 79.456 745.423 78.944C745.423 77.7493 745.124 76.768 744.527 76C744.015 75.1467 743.29 74.72 742.351 74.72C738.938 74.72 736.335 76.8533 734.543 81.12C732.751 85.3867 731.855 91.6587 731.855 99.936C731.855 100.789 731.898 101.301 731.983 101.472C733.775 101.387 735.354 101.344 736.719 101.344C738.17 101.259 739.578 101.216 740.943 101.216C741.028 101.387 741.071 101.728 741.071 102.24C741.071 103.008 740.9 103.563 740.559 103.904C738.596 104.331 737.018 104.715 735.823 105.056C734.714 105.312 733.86 105.568 733.263 105.824C732.666 106.08 732.282 106.379 732.111 106.72C732.026 106.976 731.983 107.36 731.983 107.872C731.983 108.555 731.983 109.237 731.983 109.92C732.068 110.603 732.111 111.456 732.111 112.48C732.111 119.648 730.148 125.408 726.223 129.76C722.383 134.112 717.007 136.629 710.095 137.312C708.9 137.227 707.663 136.885 706.383 136.288C705.103 135.691 703.866 134.923 702.671 133.984C701.562 133.045 700.58 131.979 699.727 130.784C698.874 129.675 698.276 128.523 697.935 127.328C697.935 124.085 698.618 121.013 699.983 118.112C701.348 115.125 703.183 112.523 705.487 110.304C707.876 108 710.65 106.165 713.807 104.8C717.05 103.349 720.548 102.496 724.303 102.24C724.303 100.107 724.09 98.016 723.663 95.968C723.236 93.92 722.767 91.9573 722.255 90.08C721.828 88.1173 721.402 86.24 720.975 84.448C720.548 82.5707 720.335 80.736 720.335 78.944C720.335 76.64 720.804 74.3787 721.743 72.16C722.682 69.856 723.919 67.7653 725.455 65.888C726.991 63.9253 728.783 62.2613 730.831 60.896C732.879 59.5307 735.012 58.592 737.231 58.08C738.17 58.336 739.407 59.104 740.943 60.384C742.564 61.5787 744.143 62.944 745.679 64.48C747.215 66.016 748.58 67.5947 749.775 69.216C750.97 70.752 751.695 72.032 751.951 73.056ZM709.711 131.424C711.759 130.571 713.679 129.333 715.471 127.712C717.348 126.091 718.97 124.256 720.335 122.208C721.7 120.16 722.767 117.984 723.535 115.68C724.388 113.376 724.815 111.115 724.815 108.896C723.108 109.152 721.231 109.963 719.183 111.328C717.135 112.608 715.215 114.187 713.423 116.064C711.631 117.856 710.138 119.733 708.943 121.696C707.748 123.659 707.151 125.365 707.151 126.816C707.151 128.693 708.004 130.229 709.711 131.424Z"/>
</mask>
<path d="M85 1C38.6814 1 1 35.5413 1 78C1 120.459 38.6814 155 85 155C131.319 155 169 120.459 169 78C169 35.5413 131.309 1 85 1ZM11.1294 82.5294H40.1539C40.5887 91.8056 42.2391 100.928 45.2235 109.706H19.4998C14.7464 101.499 11.8311 92.2858 11.1294 82.5294ZM40.1539 73.4706H11.1294C11.8311 63.7142 14.7464 54.5014 19.4998 46.2941H45.1939C42.2193 55.0721 40.5788 64.1944 40.1539 73.4706ZM55.6593 46.2941H113.926C117.187 55.0359 119.084 64.1581 119.549 73.4706H50.0362C50.4908 64.1581 52.3981 55.0359 55.6593 46.2941ZM50.0362 82.5294H119.559C119.074 91.8419 117.177 100.964 113.906 109.706H55.6889C52.4179 100.964 50.5106 91.8419 50.0362 82.5294ZM129.441 82.5294H158.871C158.169 92.2858 155.254 101.499 150.5 109.706H124.371C127.356 100.928 129.006 91.8056 129.441 82.5294ZM129.441 73.4706C129.016 64.1944 127.376 55.0721 124.401 46.2941H150.5C155.244 54.5014 158.159 63.7142 158.871 73.4706H129.441ZM144.156 37.2353H120.893C117.019 28.5841 111.84 20.404 105.575 12.7765C121.169 16.9164 134.609 25.64 144.156 37.2353ZM90.5144 10.3125C98.6574 18.4382 105.18 27.5242 110.002 37.2353H59.5826C64.3953 27.5333 70.9078 18.4564 79.0508 10.3306C81.0174 10.1947 82.984 10.0588 85 10.0588C86.8579 10.0588 88.6861 10.1947 90.5144 10.3125ZM63.9209 12.8942C57.7049 20.4855 52.5464 28.6294 48.7021 37.2353H25.8344C35.272 25.7578 48.5341 17.0885 63.9209 12.8942ZM25.8344 118.765H48.7318C52.5958 127.38 57.7741 135.533 64.0198 143.124C48.5934 138.948 35.2918 130.269 25.8344 118.765ZM79.1694 145.669C71.0066 137.544 64.4645 128.467 59.6221 118.765H109.963C105.12 128.476 98.5784 137.562 90.4056 145.688C88.6169 145.805 86.8184 145.941 85 145.941C83.0235 145.941 81.0965 145.805 79.1694 145.669ZM105.466 143.251C111.752 135.623 116.969 127.425 120.853 118.765H144.156C134.59 130.387 121.11 139.12 105.466 143.251Z" fill="#E03822"/>
<path d="M239.544 116.704C241.677 120.373 242.744 123.915 242.744 127.328C242.744 128.096 242.659 128.779 242.488 129.376C242.403 130.059 242.275 130.741 242.104 131.424C240.653 131.253 239.117 131.125 237.496 131.04C235.96 130.955 234.339 130.912 232.632 130.912C230.584 130.912 228.493 130.955 226.36 131.04C224.312 131.211 222.008 131.424 219.448 131.68C216.888 131.936 214.029 132.277 210.872 132.704C207.715 133.131 204.045 133.685 199.864 134.368C197.901 133.685 195.939 132.32 193.976 130.272C192.013 128.309 190.179 125.92 188.472 123.104C189.325 121.227 190.392 118.923 191.672 116.192C192.952 113.376 194.445 110.005 196.152 106.08C197.859 102.069 199.736 97.4187 201.784 92.128C203.917 86.752 206.179 80.5653 208.568 73.568C210.104 68.96 211.427 64.9067 212.536 61.408C213.645 57.9093 214.627 54.5387 215.48 51.296C216.419 47.968 217.315 44.512 218.168 40.928C219.021 37.344 219.96 33.2053 220.984 28.512C224.397 29.1947 227.341 30.4747 229.816 32.352C232.376 34.144 234.808 36.7467 237.112 40.16C236.429 41.2693 235.533 43.0613 234.424 45.536C233.315 48.0107 231.992 51.04 230.456 54.624C229.005 58.1227 227.384 62.1333 225.592 66.656C223.8 71.0933 221.923 75.872 219.96 80.992C218.083 86.0267 216.248 90.7627 214.456 95.2C212.664 99.6373 211.043 103.648 209.592 107.232C208.227 110.816 207.117 113.888 206.264 116.448C205.411 119.008 204.984 120.928 204.984 122.208C206.349 122.123 207.587 122.037 208.696 121.952C209.805 121.867 210.957 121.739 212.152 121.568C213.347 121.312 214.627 121.056 215.992 120.8C217.443 120.459 219.149 120.032 221.112 119.52C222.819 119.093 224.397 118.752 225.848 118.496C227.299 118.155 228.707 117.899 230.072 117.728C231.523 117.472 232.973 117.301 234.424 117.216C235.96 117.045 237.667 116.875 239.544 116.704Z" fill="#DE445F"/>
<path d="M295.451 72.288C296.304 72.288 297.286 72.4587 298.395 72.8C299.59 73.056 300.656 73.44 301.595 73.952C302.534 74.3787 303.302 74.848 303.899 75.36C304.582 75.872 304.923 76.3413 304.923 76.768C303.216 80.352 301.638 83.9787 300.187 87.648C298.736 91.232 297.499 94.688 296.475 98.016C295.451 101.344 294.64 104.459 294.043 107.36C293.531 110.261 293.275 112.779 293.275 114.912C293.275 117.301 293.531 119.307 294.043 120.928C294.555 122.464 295.408 123.573 296.603 124.256C295.579 124.939 294.256 125.493 292.635 125.92C291.014 126.347 289.563 126.56 288.283 126.56C283.675 126.56 281.371 123.403 281.371 117.088C281.371 112.224 282.992 105.568 286.235 97.12C284.528 101.045 282.566 104.757 280.347 108.256C278.128 111.669 275.867 114.699 273.563 117.344C271.259 119.989 268.912 122.165 266.523 123.872C264.219 125.493 262.086 126.475 260.123 126.816C256.966 126.645 254.406 125.152 252.443 122.336C250.48 119.435 249.499 115.765 249.499 111.328C249.499 106.549 250.523 101.515 252.571 96.224C254.619 90.9333 257.222 86.0267 260.379 81.504C263.622 76.9813 267.12 73.2267 270.875 70.24C274.63 67.168 278.256 65.5467 281.755 65.376C282.608 65.632 283.547 66.144 284.571 66.912C285.68 67.68 286.704 68.576 287.643 69.6C288.667 70.624 289.52 71.6907 290.203 72.8C290.886 73.824 291.27 74.72 291.355 75.488C287.942 76 284.4 77.664 280.731 80.48C277.147 83.296 273.862 86.7093 270.875 90.72C267.974 94.6453 265.584 98.8693 263.707 103.392C261.83 107.915 260.891 112.139 260.891 116.064C260.891 117.685 261.488 118.709 262.683 119.136C265.158 118.624 268.016 116.533 271.259 112.864C274.502 109.109 278.427 103.349 283.035 95.584C283.888 94.048 284.827 92.3413 285.851 90.464C286.96 88.5867 288.07 86.624 289.179 84.576C290.288 82.528 291.355 80.48 292.379 78.432C293.488 76.2987 294.512 74.2507 295.451 72.288Z" fill="#DE445F"/>
<path d="M351.224 123.232C350.285 124.683 348.792 125.835 346.744 126.688C344.781 127.627 342.904 128.181 341.112 128.352C339.661 126.645 338.04 124.341 336.248 121.44C334.456 118.453 332.749 114.997 331.128 111.072C326.776 114.997 322.424 118.581 318.072 121.824C313.72 124.981 309.667 127.669 305.912 129.888C304.973 129.717 304.205 129.205 303.608 128.352C303.011 127.499 302.669 126.389 302.584 125.024C304.291 124.085 306.296 122.848 308.6 121.312C310.989 119.776 313.379 118.112 315.768 116.32C318.243 114.443 320.589 112.523 322.808 110.56C325.112 108.512 327.075 106.549 328.696 104.672C327.245 101.259 325.88 97.76 324.6 94.176C323.405 90.5067 322.339 87.008 321.4 83.68C320.547 80.2667 319.864 77.1947 319.352 74.464C318.84 71.648 318.584 69.3867 318.584 67.68C318.584 66.4853 318.712 65.7173 318.968 65.376C319.309 64.9493 320.035 64.736 321.144 64.736C321.997 64.736 323.021 64.8213 324.216 64.992C325.496 65.1627 326.776 65.376 328.056 65.632C329.336 65.888 330.616 66.1867 331.896 66.528C333.176 66.784 334.285 67.0827 335.224 67.424C335.053 68.3627 334.968 69.1733 334.968 69.856C334.968 70.5387 334.968 71.52 334.968 72.8C334.968 76.128 335.224 79.5413 335.736 83.04C336.333 86.4533 337.272 90.1653 338.552 94.176C342.051 90.1653 345.293 85.728 348.28 80.864C351.267 75.9147 354.296 70.0267 357.368 63.2C359.501 63.6267 361.336 64.2667 362.872 65.12C364.408 65.888 365.389 66.7413 365.816 67.68C364.877 71.6053 362.232 76.5547 357.88 82.528C353.528 88.5013 347.981 94.8587 341.24 101.6C342.435 104.843 343.885 108.299 345.592 111.968C347.299 115.552 349.176 119.307 351.224 123.232Z" fill="#DE445F"/>
<path d="M365.419 115.424C365.419 114.656 365.462 113.717 365.547 112.608C365.718 111.413 365.974 109.877 366.315 108C366.656 106.037 367.083 103.691 367.595 100.96C368.192 98.2293 368.918 94.944 369.771 91.104C369.942 90.2507 370.326 88.8853 370.923 87.008C371.52 85.1307 372.288 83.168 373.227 81.12C374.251 78.9867 375.446 76.9387 376.811 74.976C378.262 73.0133 379.968 71.5627 381.931 70.624C383.382 70.9653 385.302 71.8613 387.691 73.312C390.08 74.6773 392.128 76.5973 393.835 79.072C391.872 81.2907 390.208 83.5093 388.843 85.728C387.563 87.9467 386.368 90.2507 385.259 92.64C384.235 95.0293 383.254 97.504 382.315 100.064C381.462 102.624 380.48 105.312 379.371 108.128C378.432 110.517 377.579 112.992 376.811 115.552C376.043 118.027 375.616 120.203 375.531 122.08C375.531 123.616 375.488 124.683 375.403 125.28C375.403 125.963 375.19 126.304 374.763 126.304C374.422 126.304 373.739 126.091 372.715 125.664C371.691 125.237 370.624 124.597 369.515 123.744C368.491 122.805 367.552 121.653 366.699 120.288C365.846 118.923 365.419 117.301 365.419 115.424ZM389.867 59.872C389.867 59.36 389.995 58.592 390.251 57.568C389.824 57.1413 389.44 56.5013 389.099 55.648C388.843 54.7947 388.715 54.0267 388.715 53.344C388.715 52.576 388.8 51.552 388.971 50.272C389.227 48.9067 389.526 47.456 389.867 45.92C390.208 44.384 390.635 42.8053 391.147 41.184C391.659 39.4773 392.171 37.9413 392.683 36.576C393.707 36.576 394.944 36.8747 396.395 37.472C397.931 37.984 399.467 38.7093 401.003 39.648C402.539 40.5013 403.947 41.4827 405.227 42.592C406.507 43.616 407.488 44.5973 408.171 45.536C407.232 46.4747 405.995 47.7973 404.459 49.504C402.923 51.1253 401.43 52.8747 399.979 54.752C398.528 56.544 397.206 58.2507 396.011 59.872C394.816 61.4933 394.048 62.6453 393.707 63.328C392.683 63.1573 391.787 62.7307 391.019 62.048C390.251 61.28 389.867 60.5547 389.867 59.872Z" fill="#DE445F"/>
<path d="M441.365 71.008C441.024 76.2987 440.085 80.864 438.549 84.704C437.013 88.4587 434.794 91.7867 431.893 94.688C429.077 97.504 425.621 100.064 421.525 102.368C417.429 104.672 412.65 106.891 407.189 109.024C407.189 109.536 407.146 110.091 407.061 110.688C407.061 111.2 407.061 111.755 407.061 112.352C407.061 113.461 407.146 114.613 407.317 115.808C407.488 117.003 407.786 118.112 408.213 119.136C408.64 120.16 409.237 121.013 410.005 121.696C410.773 122.293 411.754 122.592 412.949 122.592C415.253 122.592 417.514 122.08 419.733 121.056C421.952 120.032 424.042 118.795 426.005 117.344C428.053 115.808 429.93 114.187 431.637 112.48C433.429 110.688 435.008 109.067 436.373 107.616C437.226 108.384 437.952 109.109 438.549 109.792C434.709 114.912 430.485 119.179 425.877 122.592C421.354 125.92 417.045 128.053 412.949 128.992C407.061 128.309 402.453 126.176 399.125 122.592C395.882 118.923 394.261 114.528 394.261 109.408C394.261 105.909 394.73 102.368 395.669 98.784C396.693 95.1147 398.058 91.616 399.765 88.288C401.557 84.8747 403.605 81.6747 405.909 78.688C408.298 75.7013 410.816 73.0987 413.461 70.88C416.192 68.6613 418.965 66.912 421.781 65.632C424.682 64.352 427.541 63.712 430.357 63.712C434.282 64.224 437.952 66.656 441.365 71.008ZM432.533 75.232C430.229 75.5733 427.84 76.512 425.365 78.048C422.89 79.584 420.544 81.632 418.325 84.192C416.192 86.752 414.229 89.7387 412.437 93.152C410.645 96.5653 409.237 100.235 408.213 104.16C415.04 100.747 420.714 96.5653 425.237 91.616C429.76 86.5813 432.192 81.12 432.533 75.232Z" fill="#DE445F"/>
<path d="M503.647 46.432C500.234 46.432 497.588 45.4933 495.711 43.616C493.919 41.6533 493.023 39.3067 493.023 36.576C493.023 35.8933 493.108 35.0827 493.279 34.144C493.535 33.2053 493.834 32.3947 494.175 31.712C495.284 32.224 496.906 32.608 499.039 32.864C501.258 33.0347 503.818 33.12 506.719 33.12C511.071 33.12 515.978 32.9493 521.439 32.608C526.986 32.1813 532.276 31.7547 537.311 31.328C542.346 30.9013 546.783 30.5173 550.623 30.176C554.463 29.7493 556.938 29.536 558.047 29.536C561.204 29.536 563.466 30.7307 564.831 33.12C566.282 35.424 567.348 38.5387 568.031 42.464C565.812 42.2933 563.594 42.1653 561.375 42.08C559.242 41.9093 557.407 41.824 555.871 41.824C553.14 41.824 550.367 41.9093 547.551 42.08C544.82 42.2507 542.047 42.5067 539.231 42.848C538.036 45.3227 536.714 48.2667 535.263 51.68C533.812 55.008 532.362 58.5067 530.911 62.176C529.546 65.8453 528.223 69.5147 526.943 73.184C525.663 76.768 524.554 80.0107 523.615 82.912C521.738 88.544 520.074 93.7493 518.623 98.528C517.258 103.307 516.02 107.787 514.911 111.968C513.887 116.064 512.991 119.989 512.223 123.744C511.455 127.499 510.772 131.168 510.175 134.752C504.458 133.899 499.679 130.315 495.839 124C496.522 121.355 497.332 118.496 498.271 115.424C499.295 112.267 500.447 108.725 501.727 104.8C503.092 100.789 504.671 96.2667 506.463 91.232C508.255 86.1973 510.303 80.48 512.607 74.08C513.46 71.6907 514.356 69.216 515.295 66.656C516.234 64.0107 517.13 61.408 517.983 58.848C518.922 56.288 519.732 53.8133 520.415 51.424C521.183 49.0347 521.823 46.8587 522.335 44.896C518.751 45.3227 515.338 45.7067 512.095 46.048C508.938 46.304 506.122 46.432 503.647 46.432Z" fill="#DE445F"/>
<path d="M553.52 128.48C548.656 127.968 544.773 125.835 541.872 122.08C538.971 118.325 537.52 113.547 537.52 107.744C537.52 104.331 538.032 100.789 539.056 97.12C540.08 93.4507 541.531 89.9093 543.408 86.496C545.285 82.9973 547.504 79.712 550.064 76.64C552.624 73.568 555.397 70.9227 558.384 68.704C563.077 65.2053 567.472 63.456 571.568 63.456C574.299 64.9067 576.987 67.936 579.632 72.544C580.059 72.544 580.443 72.544 580.784 72.544C581.125 72.4587 581.509 72.416 581.936 72.416C586.459 72.416 588.72 76.4267 588.72 84.448C588.72 89.824 587.824 94.944 586.032 99.808C584.325 104.587 581.893 108.939 578.736 112.864C575.664 116.789 571.952 120.117 567.6 122.848C563.333 125.493 558.64 127.371 553.52 128.48ZM560.048 88.16C558.597 90.1227 557.232 92.256 555.952 94.56C554.672 96.864 553.563 99.2107 552.624 101.6C551.685 103.904 550.96 106.165 550.448 108.384C549.936 110.517 549.68 112.437 549.68 114.144C549.68 116.192 550.021 118.155 550.704 120.032C551.387 121.909 552.155 122.976 553.008 123.232C556.848 122.379 560.347 120.8 563.504 118.496C566.747 116.107 569.52 113.163 571.824 109.664C574.213 106.165 576.048 102.197 577.328 97.76C578.693 93.3227 579.376 88.5867 579.376 83.552C579.376 81.3333 579.248 79.584 578.992 78.304C578.736 77.024 578.309 75.9147 577.712 74.976C573.957 76.0853 570.587 77.8773 567.6 80.352C564.699 82.8267 562.181 85.4293 560.048 88.16Z" fill="#DE445F"/>
<path d="M629.732 121.184C628.111 119.819 627.001 118.112 626.404 116.064C625.892 114.016 625.636 112.267 625.636 110.816C625.636 109.024 625.849 107.488 626.276 106.208C625.935 106.208 625.167 106.891 623.972 108.256C622.777 109.621 621.455 111.243 620.004 113.12C618.639 114.997 617.273 116.832 615.908 118.624C614.543 120.416 613.519 121.739 612.836 122.592C611.727 123.787 610.66 124.725 609.636 125.408C608.697 126.091 607.929 126.475 607.332 126.56C605.967 126.475 604.516 126.176 602.98 125.664C601.529 125.237 600.121 124.597 598.756 123.744C597.476 122.891 596.324 121.867 595.3 120.672C594.361 119.477 593.721 118.112 593.38 116.576C593.38 114.187 593.423 112.224 593.508 110.688C593.679 109.152 593.977 107.488 594.404 105.696C595.172 102.453 596.281 98.784 597.732 94.688C599.268 90.592 601.017 86.5813 602.98 82.656C604.943 78.6453 607.119 74.9333 609.508 71.52C611.983 68.0213 614.585 65.2907 617.316 63.328C618.084 63.328 618.98 63.4133 620.004 63.584C621.028 63.6693 622.052 63.8827 623.076 64.224C624.185 64.5653 625.209 64.992 626.148 65.504C627.172 65.9307 628.025 66.528 628.708 67.296C627.94 68.1493 625.977 71.008 622.82 75.872C619.748 80.736 616.292 87.7333 612.452 96.864C612.025 97.8027 611.513 99.168 610.916 100.96C610.319 102.752 609.721 104.629 609.124 106.592C608.527 108.555 608.015 110.475 607.588 112.352C607.247 114.229 607.076 115.723 607.076 116.832C607.076 117.515 607.161 118.027 607.332 118.368C607.588 118.709 607.801 118.965 607.972 119.136C609.252 118.624 610.873 117.216 612.836 114.912C614.799 112.608 617.529 109.067 621.028 104.288C621.881 103.093 622.863 101.728 623.972 100.192C625.167 98.656 626.361 97.0347 627.556 95.328C628.751 93.536 629.86 91.7013 630.884 89.824C631.993 87.9467 632.889 86.0693 633.572 84.192C633.913 83.168 634.34 81.9733 634.852 80.608C635.449 79.1573 636.132 77.664 636.9 76.128C637.753 74.592 638.692 73.056 639.716 71.52C640.825 69.8987 642.105 68.4053 643.556 67.04C644.665 67.04 645.86 67.168 647.14 67.424C648.42 67.68 649.615 68.0213 650.724 68.448C651.919 68.7893 652.943 69.216 653.796 69.728C654.649 70.1547 655.289 70.624 655.716 71.136C654.18 74.8907 652.473 78.6027 650.596 82.272C648.719 85.9413 646.969 89.568 645.348 93.152C643.727 96.6507 642.361 100.149 641.252 103.648C640.143 107.147 639.588 110.56 639.588 113.888C639.588 115.68 639.716 117.259 639.972 118.624C640.313 119.904 640.655 121.013 640.996 121.952C641.337 122.805 641.636 123.531 641.892 124.128C642.233 124.725 642.404 125.237 642.404 125.664C642.404 125.749 642.319 125.877 642.148 126.048C642.063 126.133 641.977 126.176 641.892 126.176C641.295 126.176 640.527 126.048 639.588 125.792C638.649 125.536 637.583 125.152 636.388 124.64C635.279 124.213 634.127 123.701 632.932 123.104C631.823 122.507 630.756 121.867 629.732 121.184Z" fill="#DE445F"/>
<path d="M655.094 121.44C655.521 118.965 656.246 115.723 657.27 111.712C658.379 107.616 659.659 103.307 661.11 98.784C662.561 94.176 664.097 89.568 665.718 84.96C667.339 80.352 668.918 76.2133 670.454 72.544C671.563 69.8987 672.545 67.8507 673.398 66.4C674.251 64.864 675.19 63.584 676.214 62.56C677.409 62.7307 678.646 63.0293 679.926 63.456C681.206 63.8827 682.443 64.3947 683.638 64.992C684.833 65.5893 685.899 66.2293 686.838 66.912C687.777 67.5093 688.502 68.1067 689.014 68.704C686.71 71.4347 684.662 74.5493 682.87 78.048C681.163 81.5467 679.414 86.0267 677.622 91.488C682.23 87.392 686.283 83.4667 689.782 79.712C693.366 75.9573 696.694 71.776 699.766 67.168C700.278 66.7413 701.174 66.528 702.454 66.528C703.649 66.528 704.801 66.7413 705.91 67.168C707.019 67.5093 707.787 68.0213 708.214 68.704C706.678 72.8 705.91 76.8533 705.91 80.864C705.91 84.6187 706.465 87.4347 707.574 89.312C707.489 89.824 706.891 90.8053 705.782 92.256C704.758 93.7067 703.606 95.072 702.326 96.352C700.022 95.1573 697.974 93.536 696.182 91.488C694.39 89.3547 693.067 87.0507 692.214 84.576C688.203 87.392 684.79 90.1653 681.974 92.896C679.158 95.5413 676.726 98.528 674.678 101.856C672.715 105.099 671.009 108.853 669.558 113.12C668.193 117.387 666.87 122.464 665.59 128.352C664.822 128.267 663.883 127.968 662.774 127.456C661.75 127.029 660.683 126.475 659.574 125.792C658.55 125.109 657.611 124.384 656.758 123.616C655.905 122.848 655.35 122.123 655.094 121.44Z" fill="#DE445F"/>
<path d="M751.951 73.056C751.866 74.6773 751.567 76.384 751.055 78.176C750.628 79.8827 750.074 81.4613 749.391 82.912C748.708 84.2773 747.983 85.4293 747.215 86.368C746.447 87.3067 745.722 87.776 745.039 87.776C744.1 87.6907 743.546 87.0507 743.375 85.856C743.375 85.6 743.46 85.216 743.631 84.704C743.887 84.1067 744.143 83.4667 744.399 82.784C744.655 82.1013 744.868 81.4187 745.039 80.736C745.295 80.0533 745.423 79.456 745.423 78.944C745.423 77.7493 745.124 76.768 744.527 76C744.015 75.1467 743.29 74.72 742.351 74.72C738.938 74.72 736.335 76.8533 734.543 81.12C732.751 85.3867 731.855 91.6587 731.855 99.936C731.855 100.789 731.898 101.301 731.983 101.472C733.775 101.387 735.354 101.344 736.719 101.344C738.17 101.259 739.578 101.216 740.943 101.216C741.028 101.387 741.071 101.728 741.071 102.24C741.071 103.008 740.9 103.563 740.559 103.904C738.596 104.331 737.018 104.715 735.823 105.056C734.714 105.312 733.86 105.568 733.263 105.824C732.666 106.08 732.282 106.379 732.111 106.72C732.026 106.976 731.983 107.36 731.983 107.872C731.983 108.555 731.983 109.237 731.983 109.92C732.068 110.603 732.111 111.456 732.111 112.48C732.111 119.648 730.148 125.408 726.223 129.76C722.383 134.112 717.007 136.629 710.095 137.312C708.9 137.227 707.663 136.885 706.383 136.288C705.103 135.691 703.866 134.923 702.671 133.984C701.562 133.045 700.58 131.979 699.727 130.784C698.874 129.675 698.276 128.523 697.935 127.328C697.935 124.085 698.618 121.013 699.983 118.112C701.348 115.125 703.183 112.523 705.487 110.304C707.876 108 710.65 106.165 713.807 104.8C717.05 103.349 720.548 102.496 724.303 102.24C724.303 100.107 724.09 98.016 723.663 95.968C723.236 93.92 722.767 91.9573 722.255 90.08C721.828 88.1173 721.402 86.24 720.975 84.448C720.548 82.5707 720.335 80.736 720.335 78.944C720.335 76.64 720.804 74.3787 721.743 72.16C722.682 69.856 723.919 67.7653 725.455 65.888C726.991 63.9253 728.783 62.2613 730.831 60.896C732.879 59.5307 735.012 58.592 737.231 58.08C738.17 58.336 739.407 59.104 740.943 60.384C742.564 61.5787 744.143 62.944 745.679 64.48C747.215 66.016 748.58 67.5947 749.775 69.216C750.97 70.752 751.695 72.032 751.951 73.056ZM709.711 131.424C711.759 130.571 713.679 129.333 715.471 127.712C717.348 126.091 718.97 124.256 720.335 122.208C721.7 120.16 722.767 117.984 723.535 115.68C724.388 113.376 724.815 111.115 724.815 108.896C723.108 109.152 721.231 109.963 719.183 111.328C717.135 112.608 715.215 114.187 713.423 116.064C711.631 117.856 710.138 119.733 708.943 121.696C707.748 123.659 707.151 125.365 707.151 126.816C707.151 128.693 708.004 130.229 709.711 131.424Z" fill="#DE445F"/>
<path d="M85 1C38.6814 1 1 35.5413 1 78C1 120.459 38.6814 155 85 155C131.319 155 169 120.459 169 78C169 35.5413 131.309 1 85 1ZM11.1294 82.5294H40.1539C40.5887 91.8056 42.2391 100.928 45.2235 109.706H19.4998C14.7464 101.499 11.8311 92.2858 11.1294 82.5294ZM40.1539 73.4706H11.1294C11.8311 63.7142 14.7464 54.5014 19.4998 46.2941H45.1939C42.2193 55.0721 40.5788 64.1944 40.1539 73.4706ZM55.6593 46.2941H113.926C117.187 55.0359 119.084 64.1581 119.549 73.4706H50.0362C50.4908 64.1581 52.3981 55.0359 55.6593 46.2941ZM50.0362 82.5294H119.559C119.074 91.8419 117.177 100.964 113.906 109.706H55.6889C52.4179 100.964 50.5106 91.8419 50.0362 82.5294ZM129.441 82.5294H158.871C158.169 92.2858 155.254 101.499 150.5 109.706H124.371C127.356 100.928 129.006 91.8056 129.441 82.5294ZM129.441 73.4706C129.016 64.1944 127.376 55.0721 124.401 46.2941H150.5C155.244 54.5014 158.159 63.7142 158.871 73.4706H129.441ZM144.156 37.2353H120.893C117.019 28.5841 111.84 20.404 105.575 12.7765C121.169 16.9164 134.609 25.64 144.156 37.2353ZM90.5144 10.3125C98.6574 18.4382 105.18 27.5242 110.002 37.2353H59.5826C64.3953 27.5333 70.9078 18.4564 79.0508 10.3306C81.0174 10.1947 82.984 10.0588 85 10.0588C86.8579 10.0588 88.6861 10.1947 90.5144 10.3125ZM63.9209 12.8942C57.7049 20.4855 52.5464 28.6294 48.7021 37.2353H25.8344C35.272 25.7578 48.5341 17.0885 63.9209 12.8942ZM25.8344 118.765H48.7318C52.5958 127.38 57.7741 135.533 64.0198 143.124C48.5934 138.948 35.2918 130.269 25.8344 118.765ZM79.1694 145.669C71.0066 137.544 64.4645 128.467 59.6221 118.765H109.963C105.12 128.476 98.5784 137.562 90.4056 145.688C88.6169 145.805 86.8184 145.941 85 145.941C83.0235 145.941 81.0965 145.805 79.1694 145.669ZM105.466 143.251C111.752 135.623 116.969 127.425 120.853 118.765H144.156C134.59 130.387 121.11 139.12 105.466 143.251Z" stroke="#B9715A" stroke-width="2" mask="url(#path-1-outside-1_4_11)"/>
<path d="M239.544 116.704C241.677 120.373 242.744 123.915 242.744 127.328C242.744 128.096 242.659 128.779 242.488 129.376C242.403 130.059 242.275 130.741 242.104 131.424C240.653 131.253 239.117 131.125 237.496 131.04C235.96 130.955 234.339 130.912 232.632 130.912C230.584 130.912 228.493 130.955 226.36 131.04C224.312 131.211 222.008 131.424 219.448 131.68C216.888 131.936 214.029 132.277 210.872 132.704C207.715 133.131 204.045 133.685 199.864 134.368C197.901 133.685 195.939 132.32 193.976 130.272C192.013 128.309 190.179 125.92 188.472 123.104C189.325 121.227 190.392 118.923 191.672 116.192C192.952 113.376 194.445 110.005 196.152 106.08C197.859 102.069 199.736 97.4187 201.784 92.128C203.917 86.752 206.179 80.5653 208.568 73.568C210.104 68.96 211.427 64.9067 212.536 61.408C213.645 57.9093 214.627 54.5387 215.48 51.296C216.419 47.968 217.315 44.512 218.168 40.928C219.021 37.344 219.96 33.2053 220.984 28.512C224.397 29.1947 227.341 30.4747 229.816 32.352C232.376 34.144 234.808 36.7467 237.112 40.16C236.429 41.2693 235.533 43.0613 234.424 45.536C233.315 48.0107 231.992 51.04 230.456 54.624C229.005 58.1227 227.384 62.1333 225.592 66.656C223.8 71.0933 221.923 75.872 219.96 80.992C218.083 86.0267 216.248 90.7627 214.456 95.2C212.664 99.6373 211.043 103.648 209.592 107.232C208.227 110.816 207.117 113.888 206.264 116.448C205.411 119.008 204.984 120.928 204.984 122.208C206.349 122.123 207.587 122.037 208.696 121.952C209.805 121.867 210.957 121.739 212.152 121.568C213.347 121.312 214.627 121.056 215.992 120.8C217.443 120.459 219.149 120.032 221.112 119.52C222.819 119.093 224.397 118.752 225.848 118.496C227.299 118.155 228.707 117.899 230.072 117.728C231.523 117.472 232.973 117.301 234.424 117.216C235.96 117.045 237.667 116.875 239.544 116.704Z" stroke="#B9715A" stroke-width="2" mask="url(#path-1-outside-1_4_11)"/>
<path d="M295.451 72.288C296.304 72.288 297.286 72.4587 298.395 72.8C299.59 73.056 300.656 73.44 301.595 73.952C302.534 74.3787 303.302 74.848 303.899 75.36C304.582 75.872 304.923 76.3413 304.923 76.768C303.216 80.352 301.638 83.9787 300.187 87.648C298.736 91.232 297.499 94.688 296.475 98.016C295.451 101.344 294.64 104.459 294.043 107.36C293.531 110.261 293.275 112.779 293.275 114.912C293.275 117.301 293.531 119.307 294.043 120.928C294.555 122.464 295.408 123.573 296.603 124.256C295.579 124.939 294.256 125.493 292.635 125.92C291.014 126.347 289.563 126.56 288.283 126.56C283.675 126.56 281.371 123.403 281.371 117.088C281.371 112.224 282.992 105.568 286.235 97.12C284.528 101.045 282.566 104.757 280.347 108.256C278.128 111.669 275.867 114.699 273.563 117.344C271.259 119.989 268.912 122.165 266.523 123.872C264.219 125.493 262.086 126.475 260.123 126.816C256.966 126.645 254.406 125.152 252.443 122.336C250.48 119.435 249.499 115.765 249.499 111.328C249.499 106.549 250.523 101.515 252.571 96.224C254.619 90.9333 257.222 86.0267 260.379 81.504C263.622 76.9813 267.12 73.2267 270.875 70.24C274.63 67.168 278.256 65.5467 281.755 65.376C282.608 65.632 283.547 66.144 284.571 66.912C285.68 67.68 286.704 68.576 287.643 69.6C288.667 70.624 289.52 71.6907 290.203 72.8C290.886 73.824 291.27 74.72 291.355 75.488C287.942 76 284.4 77.664 280.731 80.48C277.147 83.296 273.862 86.7093 270.875 90.72C267.974 94.6453 265.584 98.8693 263.707 103.392C261.83 107.915 260.891 112.139 260.891 116.064C260.891 117.685 261.488 118.709 262.683 119.136C265.158 118.624 268.016 116.533 271.259 112.864C274.502 109.109 278.427 103.349 283.035 95.584C283.888 94.048 284.827 92.3413 285.851 90.464C286.96 88.5867 288.07 86.624 289.179 84.576C290.288 82.528 291.355 80.48 292.379 78.432C293.488 76.2987 294.512 74.2507 295.451 72.288Z" stroke="#B9715A" stroke-width="2" mask="url(#path-1-outside-1_4_11)"/>
<path d="M351.224 123.232C350.285 124.683 348.792 125.835 346.744 126.688C344.781 127.627 342.904 128.181 341.112 128.352C339.661 126.645 338.04 124.341 336.248 121.44C334.456 118.453 332.749 114.997 331.128 111.072C326.776 114.997 322.424 118.581 318.072 121.824C313.72 124.981 309.667 127.669 305.912 129.888C304.973 129.717 304.205 129.205 303.608 128.352C303.011 127.499 302.669 126.389 302.584 125.024C304.291 124.085 306.296 122.848 308.6 121.312C310.989 119.776 313.379 118.112 315.768 116.32C318.243 114.443 320.589 112.523 322.808 110.56C325.112 108.512 327.075 106.549 328.696 104.672C327.245 101.259 325.88 97.76 324.6 94.176C323.405 90.5067 322.339 87.008 321.4 83.68C320.547 80.2667 319.864 77.1947 319.352 74.464C318.84 71.648 318.584 69.3867 318.584 67.68C318.584 66.4853 318.712 65.7173 318.968 65.376C319.309 64.9493 320.035 64.736 321.144 64.736C321.997 64.736 323.021 64.8213 324.216 64.992C325.496 65.1627 326.776 65.376 328.056 65.632C329.336 65.888 330.616 66.1867 331.896 66.528C333.176 66.784 334.285 67.0827 335.224 67.424C335.053 68.3627 334.968 69.1733 334.968 69.856C334.968 70.5387 334.968 71.52 334.968 72.8C334.968 76.128 335.224 79.5413 335.736 83.04C336.333 86.4533 337.272 90.1653 338.552 94.176C342.051 90.1653 345.293 85.728 348.28 80.864C351.267 75.9147 354.296 70.0267 357.368 63.2C359.501 63.6267 361.336 64.2667 362.872 65.12C364.408 65.888 365.389 66.7413 365.816 67.68C364.877 71.6053 362.232 76.5547 357.88 82.528C353.528 88.5013 347.981 94.8587 341.24 101.6C342.435 104.843 343.885 108.299 345.592 111.968C347.299 115.552 349.176 119.307 351.224 123.232Z" stroke="#B9715A" stroke-width="2" mask="url(#path-1-outside-1_4_11)"/>
<path d="M365.419 115.424C365.419 114.656 365.462 113.717 365.547 112.608C365.718 111.413 365.974 109.877 366.315 108C366.656 106.037 367.083 103.691 367.595 100.96C368.192 98.2293 368.918 94.944 369.771 91.104C369.942 90.2507 370.326 88.8853 370.923 87.008C371.52 85.1307 372.288 83.168 373.227 81.12C374.251 78.9867 375.446 76.9387 376.811 74.976C378.262 73.0133 379.968 71.5627 381.931 70.624C383.382 70.9653 385.302 71.8613 387.691 73.312C390.08 74.6773 392.128 76.5973 393.835 79.072C391.872 81.2907 390.208 83.5093 388.843 85.728C387.563 87.9467 386.368 90.2507 385.259 92.64C384.235 95.0293 383.254 97.504 382.315 100.064C381.462 102.624 380.48 105.312 379.371 108.128C378.432 110.517 377.579 112.992 376.811 115.552C376.043 118.027 375.616 120.203 375.531 122.08C375.531 123.616 375.488 124.683 375.403 125.28C375.403 125.963 375.19 126.304 374.763 126.304C374.422 126.304 373.739 126.091 372.715 125.664C371.691 125.237 370.624 124.597 369.515 123.744C368.491 122.805 367.552 121.653 366.699 120.288C365.846 118.923 365.419 117.301 365.419 115.424ZM389.867 59.872C389.867 59.36 389.995 58.592 390.251 57.568C389.824 57.1413 389.44 56.5013 389.099 55.648C388.843 54.7947 388.715 54.0267 388.715 53.344C388.715 52.576 388.8 51.552 388.971 50.272C389.227 48.9067 389.526 47.456 389.867 45.92C390.208 44.384 390.635 42.8053 391.147 41.184C391.659 39.4773 392.171 37.9413 392.683 36.576C393.707 36.576 394.944 36.8747 396.395 37.472C397.931 37.984 399.467 38.7093 401.003 39.648C402.539 40.5013 403.947 41.4827 405.227 42.592C406.507 43.616 407.488 44.5973 408.171 45.536C407.232 46.4747 405.995 47.7973 404.459 49.504C402.923 51.1253 401.43 52.8747 399.979 54.752C398.528 56.544 397.206 58.2507 396.011 59.872C394.816 61.4933 394.048 62.6453 393.707 63.328C392.683 63.1573 391.787 62.7307 391.019 62.048C390.251 61.28 389.867 60.5547 389.867 59.872Z" stroke="#B9715A" stroke-width="2" mask="url(#path-1-outside-1_4_11)"/>
<path d="M441.365 71.008C441.024 76.2987 440.085 80.864 438.549 84.704C437.013 88.4587 434.794 91.7867 431.893 94.688C429.077 97.504 425.621 100.064 421.525 102.368C417.429 104.672 412.65 106.891 407.189 109.024C407.189 109.536 407.146 110.091 407.061 110.688C407.061 111.2 407.061 111.755 407.061 112.352C407.061 113.461 407.146 114.613 407.317 115.808C407.488 117.003 407.786 118.112 408.213 119.136C408.64 120.16 409.237 121.013 410.005 121.696C410.773 122.293 411.754 122.592 412.949 122.592C415.253 122.592 417.514 122.08 419.733 121.056C421.952 120.032 424.042 118.795 426.005 117.344C428.053 115.808 429.93 114.187 431.637 112.48C433.429 110.688 435.008 109.067 436.373 107.616C437.226 108.384 437.952 109.109 438.549 109.792C434.709 114.912 430.485 119.179 425.877 122.592C421.354 125.92 417.045 128.053 412.949 128.992C407.061 128.309 402.453 126.176 399.125 122.592C395.882 118.923 394.261 114.528 394.261 109.408C394.261 105.909 394.73 102.368 395.669 98.784C396.693 95.1147 398.058 91.616 399.765 88.288C401.557 84.8747 403.605 81.6747 405.909 78.688C408.298 75.7013 410.816 73.0987 413.461 70.88C416.192 68.6613 418.965 66.912 421.781 65.632C424.682 64.352 427.541 63.712 430.357 63.712C434.282 64.224 437.952 66.656 441.365 71.008ZM432.533 75.232C430.229 75.5733 427.84 76.512 425.365 78.048C422.89 79.584 420.544 81.632 418.325 84.192C416.192 86.752 414.229 89.7387 412.437 93.152C410.645 96.5653 409.237 100.235 408.213 104.16C415.04 100.747 420.714 96.5653 425.237 91.616C429.76 86.5813 432.192 81.12 432.533 75.232Z" stroke="#B9715A" stroke-width="2" mask="url(#path-1-outside-1_4_11)"/>
<path d="M503.647 46.432C500.234 46.432 497.588 45.4933 495.711 43.616C493.919 41.6533 493.023 39.3067 493.023 36.576C493.023 35.8933 493.108 35.0827 493.279 34.144C493.535 33.2053 493.834 32.3947 494.175 31.712C495.284 32.224 496.906 32.608 499.039 32.864C501.258 33.0347 503.818 33.12 506.719 33.12C511.071 33.12 515.978 32.9493 521.439 32.608C526.986 32.1813 532.276 31.7547 537.311 31.328C542.346 30.9013 546.783 30.5173 550.623 30.176C554.463 29.7493 556.938 29.536 558.047 29.536C561.204 29.536 563.466 30.7307 564.831 33.12C566.282 35.424 567.348 38.5387 568.031 42.464C565.812 42.2933 563.594 42.1653 561.375 42.08C559.242 41.9093 557.407 41.824 555.871 41.824C553.14 41.824 550.367 41.9093 547.551 42.08C544.82 42.2507 542.047 42.5067 539.231 42.848C538.036 45.3227 536.714 48.2667 535.263 51.68C533.812 55.008 532.362 58.5067 530.911 62.176C529.546 65.8453 528.223 69.5147 526.943 73.184C525.663 76.768 524.554 80.0107 523.615 82.912C521.738 88.544 520.074 93.7493 518.623 98.528C517.258 103.307 516.02 107.787 514.911 111.968C513.887 116.064 512.991 119.989 512.223 123.744C511.455 127.499 510.772 131.168 510.175 134.752C504.458 133.899 499.679 130.315 495.839 124C496.522 121.355 497.332 118.496 498.271 115.424C499.295 112.267 500.447 108.725 501.727 104.8C503.092 100.789 504.671 96.2667 506.463 91.232C508.255 86.1973 510.303 80.48 512.607 74.08C513.46 71.6907 514.356 69.216 515.295 66.656C516.234 64.0107 517.13 61.408 517.983 58.848C518.922 56.288 519.732 53.8133 520.415 51.424C521.183 49.0347 521.823 46.8587 522.335 44.896C518.751 45.3227 515.338 45.7067 512.095 46.048C508.938 46.304 506.122 46.432 503.647 46.432Z" stroke="#B9715A" stroke-width="2" mask="url(#path-1-outside-1_4_11)"/>
<path d="M553.52 128.48C548.656 127.968 544.773 125.835 541.872 122.08C538.971 118.325 537.52 113.547 537.52 107.744C537.52 104.331 538.032 100.789 539.056 97.12C540.08 93.4507 541.531 89.9093 543.408 86.496C545.285 82.9973 547.504 79.712 550.064 76.64C552.624 73.568 555.397 70.9227 558.384 68.704C563.077 65.2053 567.472 63.456 571.568 63.456C574.299 64.9067 576.987 67.936 579.632 72.544C580.059 72.544 580.443 72.544 580.784 72.544C581.125 72.4587 581.509 72.416 581.936 72.416C586.459 72.416 588.72 76.4267 588.72 84.448C588.72 89.824 587.824 94.944 586.032 99.808C584.325 104.587 581.893 108.939 578.736 112.864C575.664 116.789 571.952 120.117 567.6 122.848C563.333 125.493 558.64 127.371 553.52 128.48ZM560.048 88.16C558.597 90.1227 557.232 92.256 555.952 94.56C554.672 96.864 553.563 99.2107 552.624 101.6C551.685 103.904 550.96 106.165 550.448 108.384C549.936 110.517 549.68 112.437 549.68 114.144C549.68 116.192 550.021 118.155 550.704 120.032C551.387 121.909 552.155 122.976 553.008 123.232C556.848 122.379 560.347 120.8 563.504 118.496C566.747 116.107 569.52 113.163 571.824 109.664C574.213 106.165 576.048 102.197 577.328 97.76C578.693 93.3227 579.376 88.5867 579.376 83.552C579.376 81.3333 579.248 79.584 578.992 78.304C578.736 77.024 578.309 75.9147 577.712 74.976C573.957 76.0853 570.587 77.8773 567.6 80.352C564.699 82.8267 562.181 85.4293 560.048 88.16Z" stroke="#B9715A" stroke-width="2" mask="url(#path-1-outside-1_4_11)"/>
<path d="M629.732 121.184C628.111 119.819 627.001 118.112 626.404 116.064C625.892 114.016 625.636 112.267 625.636 110.816C625.636 109.024 625.849 107.488 626.276 106.208C625.935 106.208 625.167 106.891 623.972 108.256C622.777 109.621 621.455 111.243 620.004 113.12C618.639 114.997 617.273 116.832 615.908 118.624C614.543 120.416 613.519 121.739 612.836 122.592C611.727 123.787 610.66 124.725 609.636 125.408C608.697 126.091 607.929 126.475 607.332 126.56C605.967 126.475 604.516 126.176 602.98 125.664C601.529 125.237 600.121 124.597 598.756 123.744C597.476 122.891 596.324 121.867 595.3 120.672C594.361 119.477 593.721 118.112 593.38 116.576C593.38 114.187 593.423 112.224 593.508 110.688C593.679 109.152 593.977 107.488 594.404 105.696C595.172 102.453 596.281 98.784 597.732 94.688C599.268 90.592 601.017 86.5813 602.98 82.656C604.943 78.6453 607.119 74.9333 609.508 71.52C611.983 68.0213 614.585 65.2907 617.316 63.328C618.084 63.328 618.98 63.4133 620.004 63.584C621.028 63.6693 622.052 63.8827 623.076 64.224C624.185 64.5653 625.209 64.992 626.148 65.504C627.172 65.9307 628.025 66.528 628.708 67.296C627.94 68.1493 625.977 71.008 622.82 75.872C619.748 80.736 616.292 87.7333 612.452 96.864C612.025 97.8027 611.513 99.168 610.916 100.96C610.319 102.752 609.721 104.629 609.124 106.592C608.527 108.555 608.015 110.475 607.588 112.352C607.247 114.229 607.076 115.723 607.076 116.832C607.076 117.515 607.161 118.027 607.332 118.368C607.588 118.709 607.801 118.965 607.972 119.136C609.252 118.624 610.873 117.216 612.836 114.912C614.799 112.608 617.529 109.067 621.028 104.288C621.881 103.093 622.863 101.728 623.972 100.192C625.167 98.656 626.361 97.0347 627.556 95.328C628.751 93.536 629.86 91.7013 630.884 89.824C631.993 87.9467 632.889 86.0693 633.572 84.192C633.913 83.168 634.34 81.9733 634.852 80.608C635.449 79.1573 636.132 77.664 636.9 76.128C637.753 74.592 638.692 73.056 639.716 71.52C640.825 69.8987 642.105 68.4053 643.556 67.04C644.665 67.04 645.86 67.168 647.14 67.424C648.42 67.68 649.615 68.0213 650.724 68.448C651.919 68.7893 652.943 69.216 653.796 69.728C654.649 70.1547 655.289 70.624 655.716 71.136C654.18 74.8907 652.473 78.6027 650.596 82.272C648.719 85.9413 646.969 89.568 645.348 93.152C643.727 96.6507 642.361 100.149 641.252 103.648C640.143 107.147 639.588 110.56 639.588 113.888C639.588 115.68 639.716 117.259 639.972 118.624C640.313 119.904 640.655 121.013 640.996 121.952C641.337 122.805 641.636 123.531 641.892 124.128C642.233 124.725 642.404 125.237 642.404 125.664C642.404 125.749 642.319 125.877 642.148 126.048C642.063 126.133 641.977 126.176 641.892 126.176C641.295 126.176 640.527 126.048 639.588 125.792C638.649 125.536 637.583 125.152 636.388 124.64C635.279 124.213 634.127 123.701 632.932 123.104C631.823 122.507 630.756 121.867 629.732 121.184Z" stroke="#B9715A" stroke-width="2" mask="url(#path-1-outside-1_4_11)"/>
<path d="M655.094 121.44C655.521 118.965 656.246 115.723 657.27 111.712C658.379 107.616 659.659 103.307 661.11 98.784C662.561 94.176 664.097 89.568 665.718 84.96C667.339 80.352 668.918 76.2133 670.454 72.544C671.563 69.8987 672.545 67.8507 673.398 66.4C674.251 64.864 675.19 63.584 676.214 62.56C677.409 62.7307 678.646 63.0293 679.926 63.456C681.206 63.8827 682.443 64.3947 683.638 64.992C684.833 65.5893 685.899 66.2293 686.838 66.912C687.777 67.5093 688.502 68.1067 689.014 68.704C686.71 71.4347 684.662 74.5493 682.87 78.048C681.163 81.5467 679.414 86.0267 677.622 91.488C682.23 87.392 686.283 83.4667 689.782 79.712C693.366 75.9573 696.694 71.776 699.766 67.168C700.278 66.7413 701.174 66.528 702.454 66.528C703.649 66.528 704.801 66.7413 705.91 67.168C707.019 67.5093 707.787 68.0213 708.214 68.704C706.678 72.8 705.91 76.8533 705.91 80.864C705.91 84.6187 706.465 87.4347 707.574 89.312C707.489 89.824 706.891 90.8053 705.782 92.256C704.758 93.7067 703.606 95.072 702.326 96.352C700.022 95.1573 697.974 93.536 696.182 91.488C694.39 89.3547 693.067 87.0507 692.214 84.576C688.203 87.392 684.79 90.1653 681.974 92.896C679.158 95.5413 676.726 98.528 674.678 101.856C672.715 105.099 671.009 108.853 669.558 113.12C668.193 117.387 666.87 122.464 665.59 128.352C664.822 128.267 663.883 127.968 662.774 127.456C661.75 127.029 660.683 126.475 659.574 125.792C658.55 125.109 657.611 124.384 656.758 123.616C655.905 122.848 655.35 122.123 655.094 121.44Z" stroke="#B9715A" stroke-width="2" mask="url(#path-1-outside-1_4_11)"/>
<path d="M751.951 73.056C751.866 74.6773 751.567 76.384 751.055 78.176C750.628 79.8827 750.074 81.4613 749.391 82.912C748.708 84.2773 747.983 85.4293 747.215 86.368C746.447 87.3067 745.722 87.776 745.039 87.776C744.1 87.6907 743.546 87.0507 743.375 85.856C743.375 85.6 743.46 85.216 743.631 84.704C743.887 84.1067 744.143 83.4667 744.399 82.784C744.655 82.1013 744.868 81.4187 745.039 80.736C745.295 80.0533 745.423 79.456 745.423 78.944C745.423 77.7493 745.124 76.768 744.527 76C744.015 75.1467 743.29 74.72 742.351 74.72C738.938 74.72 736.335 76.8533 734.543 81.12C732.751 85.3867 731.855 91.6587 731.855 99.936C731.855 100.789 731.898 101.301 731.983 101.472C733.775 101.387 735.354 101.344 736.719 101.344C738.17 101.259 739.578 101.216 740.943 101.216C741.028 101.387 741.071 101.728 741.071 102.24C741.071 103.008 740.9 103.563 740.559 103.904C738.596 104.331 737.018 104.715 735.823 105.056C734.714 105.312 733.86 105.568 733.263 105.824C732.666 106.08 732.282 106.379 732.111 106.72C732.026 106.976 731.983 107.36 731.983 107.872C731.983 108.555 731.983 109.237 731.983 109.92C732.068 110.603 732.111 111.456 732.111 112.48C732.111 119.648 730.148 125.408 726.223 129.76C722.383 134.112 717.007 136.629 710.095 137.312C708.9 137.227 707.663 136.885 706.383 136.288C705.103 135.691 703.866 134.923 702.671 133.984C701.562 133.045 700.58 131.979 699.727 130.784C698.874 129.675 698.276 128.523 697.935 127.328C697.935 124.085 698.618 121.013 699.983 118.112C701.348 115.125 703.183 112.523 705.487 110.304C707.876 108 710.65 106.165 713.807 104.8C717.05 103.349 720.548 102.496 724.303 102.24C724.303 100.107 724.09 98.016 723.663 95.968C723.236 93.92 722.767 91.9573 722.255 90.08C721.828 88.1173 721.402 86.24 720.975 84.448C720.548 82.5707 720.335 80.736 720.335 78.944C720.335 76.64 720.804 74.3787 721.743 72.16C722.682 69.856 723.919 67.7653 725.455 65.888C726.991 63.9253 728.783 62.2613 730.831 60.896C732.879 59.5307 735.012 58.592 737.231 58.08C738.17 58.336 739.407 59.104 740.943 60.384C742.564 61.5787 744.143 62.944 745.679 64.48C747.215 66.016 748.58 67.5947 749.775 69.216C750.97 70.752 751.695 72.032 751.951 73.056ZM709.711 131.424C711.759 130.571 713.679 129.333 715.471 127.712C717.348 126.091 718.97 124.256 720.335 122.208C721.7 120.16 722.767 117.984 723.535 115.68C724.388 113.376 724.815 111.115 724.815 108.896C723.108 109.152 721.231 109.963 719.183 111.328C717.135 112.608 715.215 114.187 713.423 116.064C711.631 117.856 710.138 119.733 708.943 121.696C707.748 123.659 707.151 125.365 707.151 126.816C707.151 128.693 708.004 130.229 709.711 131.424Z" stroke="#B9715A" stroke-width="2" mask="url(#path-1-outside-1_4_11)"/>
</svg>
