<svg width="739" height="235" viewBox="0 0 739 235" fill="none" xmlns="http://www.w3.org/2000/svg">
<mask id="path-1-outside-1_4_10" maskUnits="userSpaceOnUse" x="-0.202637" y="-0.188843" width="739" height="235" fill="black">
<rect fill="white" x="-0.202637" y="-0.188843" width="739" height="235"/>
<path d="M69.5806 80.9706C24.2651 90.558 -5.4507 132.151 3.3377 173.69C12.1261 215.229 56.1411 241.223 101.457 231.636C146.772 222.048 176.488 180.455 167.699 138.916C158.911 97.377 114.886 71.3853 69.5806 80.9706ZM14.1853 176.025L42.5812 170.017C44.9267 179.002 48.4295 187.585 53.1662 195.556L27.9995 200.88C21.6503 193.834 16.8912 185.425 14.1853 176.025ZM40.7061 161.154L12.3102 167.162C10.9772 157.472 11.9225 147.855 14.8741 138.842L40.0118 133.523C38.9186 142.727 39.2018 151.991 40.7061 161.154ZM50.2506 131.357L107.255 119.297C112.255 127.174 116 135.706 118.382 144.721L50.3745 159.109C48.8917 149.904 48.8695 140.584 50.2506 131.357ZM52.2495 167.971L120.266 153.581C121.72 162.792 121.752 172.11 120.361 181.339L63.405 193.389C58.3953 185.514 54.6412 176.984 52.2495 167.971ZM129.935 151.536L158.727 145.444C160.06 155.134 159.115 164.751 156.163 173.765L130.6 179.173C131.703 169.967 131.429 160.701 129.935 151.536ZM128.06 142.673C125.724 133.686 122.231 125.101 117.504 117.128L143.038 111.726C149.377 118.774 154.136 127.184 156.852 136.582L128.06 142.673ZM134.955 104.177L112.196 108.992C106.616 101.33 99.8562 94.3988 92.1476 88.2333C108.261 89.0557 123.216 94.8085 134.955 104.177ZM76.9031 88.94C86.5517 95.2043 94.8135 102.744 101.542 111.246L52.2138 121.682C54.9141 111.194 59.4068 100.966 65.6915 91.3306C67.5874 90.7906 69.4833 90.2506 71.4556 89.8333C73.2733 89.4487 75.0901 89.2032 76.9031 88.94ZM51.42 96.9704C46.9099 105.684 43.5487 114.719 41.569 123.934L19.1965 128.668C26.054 115.485 37.2345 104.259 51.42 96.9704ZM36.072 208.432L58.4735 203.692C64.037 211.321 70.7908 218.225 78.4725 224.359C62.5158 223.467 47.7059 217.73 36.072 208.432ZM93.8209 223.714C84.153 217.454 75.8737 209.927 69.1281 201.438L118.379 191.018C115.651 201.521 111.131 211.764 104.818 221.406C103.092 221.891 101.36 222.397 99.5815 222.773C97.6478 223.182 95.7344 223.448 93.8209 223.714ZM119.048 215.904C123.618 207.141 127.026 198.04 129.033 188.764L151.831 183.941C144.878 197.291 133.498 208.625 119.048 215.904Z"/>
<path d="M244.727 162.18C247.574 165.329 249.35 168.572 250.057 171.912C250.216 172.663 250.273 173.349 250.23 173.969C250.288 174.654 250.304 175.348 250.278 176.052C248.824 176.185 247.295 176.378 245.691 176.63C244.17 176.864 242.575 177.158 240.906 177.511C238.902 177.935 236.865 178.41 234.796 178.935C232.828 179.526 230.618 180.211 228.166 180.992C225.714 181.772 222.988 182.698 219.988 183.769C216.987 184.84 213.512 186.142 209.562 187.675C207.501 187.413 205.298 186.484 202.954 184.886C200.628 183.373 198.338 181.415 196.086 179.013C196.532 177 197.099 174.525 197.786 171.588C198.455 168.568 199.218 164.962 200.076 160.768C200.915 156.491 201.789 151.552 202.698 145.952C203.672 140.251 204.604 133.73 205.493 126.39C206.042 121.564 206.497 117.325 206.858 113.672C207.219 110.02 207.482 106.519 207.645 103.17C207.875 99.7195 208.036 96.1529 208.129 92.4699C208.222 88.7869 208.284 84.5436 208.314 79.7399C211.795 79.7013 214.94 80.3442 217.75 81.6686C220.625 82.892 223.543 84.9349 226.504 87.7974C226.066 89.024 225.56 90.9626 224.987 93.6133C224.414 96.264 223.747 99.5015 222.986 103.326C222.291 107.049 221.535 111.308 220.718 116.104C219.883 120.816 219.036 125.88 218.175 131.295C217.381 136.61 216.566 141.623 215.731 146.335C214.896 151.047 214.14 155.306 213.463 159.113C212.869 162.902 212.42 166.137 212.115 168.818C211.81 171.5 211.79 173.466 212.055 174.719C213.373 174.353 214.566 174.013 215.633 173.7C216.701 173.387 217.801 173.023 218.935 172.609C220.051 172.111 221.25 171.596 222.533 171.063C223.881 170.428 225.463 169.658 227.277 168.751C228.858 167.98 230.332 167.319 231.698 166.768C233.047 166.134 234.372 165.592 235.672 165.143C237.038 164.592 238.422 164.125 239.824 163.741C241.291 163.256 242.926 162.736 244.727 162.18Z"/>
<path d="M290.23 107.154C291.065 106.978 292.06 106.941 293.216 107.046C294.438 107.049 295.561 107.204 296.585 107.51C297.592 107.734 298.44 108.034 299.131 108.411C299.904 108.771 300.336 109.159 300.424 109.577C299.496 113.436 298.702 117.311 298.042 121.201C297.365 125.008 296.87 128.645 296.557 132.113C296.244 135.581 296.095 138.796 296.112 141.758C296.211 144.703 296.482 147.218 296.923 149.306C297.418 151.643 298.084 153.552 298.92 155.032C299.739 156.429 300.803 157.338 302.113 157.758C301.253 158.638 300.074 159.455 298.576 160.208C297.078 160.961 295.703 161.47 294.451 161.735C289.942 162.688 287.035 160.076 285.728 153.898C284.721 149.14 284.929 142.292 286.353 133.356C285.496 137.55 284.344 141.587 282.898 145.47C281.434 149.268 279.848 152.7 278.142 155.765C276.435 158.83 274.59 161.445 272.605 163.609C270.687 165.672 268.803 167.074 266.953 167.814C263.829 168.3 261.015 167.369 258.512 165.02C255.992 162.588 254.272 159.201 253.354 154.86C252.364 150.185 252.324 145.047 253.233 139.447C254.141 133.847 255.672 128.508 257.825 123.43C260.061 118.334 262.707 113.937 265.762 110.237C268.799 106.455 272.012 104.118 275.4 103.227C276.287 103.301 277.312 103.607 278.473 104.147C279.717 104.668 280.904 105.333 282.034 106.141C283.248 106.93 284.304 107.797 285.201 108.741C286.081 109.602 286.642 110.399 286.885 111.133C283.651 112.34 280.531 114.701 277.524 118.216C274.601 121.712 272.093 125.732 270.001 130.274C267.975 134.715 266.512 139.342 265.611 144.155C264.711 148.968 264.667 153.295 265.479 157.136C265.815 158.722 266.611 159.6 267.868 159.77C270.183 158.757 272.547 156.12 274.96 151.859C277.356 147.514 280.004 141.067 282.905 132.516C283.421 130.836 283.987 128.972 284.6 126.924C285.297 124.857 285.976 122.708 286.637 120.474C287.298 118.241 287.918 116.017 288.496 113.801C289.14 111.484 289.718 109.269 290.23 107.154Z"/>
<path d="M355.34 145.451C354.722 147.064 353.499 148.5 351.672 149.759C349.946 151.084 348.224 152.015 346.506 152.553C344.734 151.183 342.671 149.265 340.317 146.797C337.946 144.246 335.561 141.218 333.162 137.714C329.717 142.455 326.201 146.862 322.614 150.935C319.01 154.925 315.601 158.394 312.387 161.342C311.433 161.369 310.576 161.027 309.815 160.316C309.054 159.604 308.49 158.59 308.124 157.272C309.599 156 311.305 154.374 313.241 152.395C315.261 150.398 317.254 148.275 319.221 146.027C321.253 143.678 323.152 141.314 324.916 138.935C326.746 136.454 328.26 134.128 329.458 131.956C327.332 128.916 325.272 125.776 323.278 122.535C321.35 119.192 319.582 115.99 317.975 112.928C316.433 109.766 315.13 106.901 314.063 104.336C312.98 101.687 312.261 99.5275 311.908 97.8577C311.661 96.689 311.627 95.9111 311.807 95.5242C312.052 95.0361 312.718 94.6772 313.803 94.4476C314.638 94.271 315.657 94.1425 316.862 94.0622C318.149 93.9642 319.446 93.908 320.751 93.8935C322.056 93.879 323.37 93.9063 324.693 93.9753C325.998 93.9608 327.146 94.0234 328.135 94.163C328.162 95.1167 328.246 95.9275 328.388 96.5954C328.529 97.2632 328.732 98.2233 328.997 99.4756C329.686 102.732 330.643 106.018 331.868 109.335C333.159 112.551 334.845 115.988 336.928 119.647C339.521 114.999 341.775 109.986 343.69 104.61C345.587 99.1492 347.332 92.7617 348.925 85.447C351.1 85.4228 353.028 85.6692 354.707 86.1861C356.369 86.6196 357.505 87.2513 358.117 88.0813C358.011 92.116 356.448 97.5057 353.426 104.25C350.405 110.995 346.294 118.363 341.094 126.354C342.934 129.279 345.069 132.36 347.498 135.596C349.91 138.749 352.523 142.034 355.34 145.451Z"/>
<path d="M367.611 134.874C367.452 134.122 367.3 133.195 367.153 132.092C367.073 130.888 367.006 129.332 366.951 127.425C366.879 125.434 366.81 123.05 366.746 120.272C366.765 117.477 366.795 114.113 366.835 110.179C366.825 109.309 366.918 107.894 367.114 105.934C367.31 103.973 367.655 101.894 368.149 99.6963C368.71 97.3972 369.455 95.1463 370.384 92.9435C371.397 90.7231 372.767 88.9506 374.492 87.626C375.982 87.6597 378.046 88.1388 380.684 89.0635C383.304 89.9047 385.705 91.3592 387.887 93.4271C386.426 96.0039 385.258 98.519 384.381 100.972C383.588 103.408 382.896 105.909 382.305 108.476C381.798 111.026 381.35 113.65 380.962 116.349C380.657 119.03 380.253 121.863 379.751 124.848C379.327 127.38 379.004 129.977 378.783 132.641C378.544 135.221 378.577 137.438 378.882 139.292C379.2 140.795 379.379 141.847 379.419 142.45C379.56 143.117 379.422 143.496 379.005 143.584C378.671 143.654 377.959 143.587 376.869 143.382C375.778 143.176 374.602 142.771 373.34 142.166C372.144 141.459 370.988 140.526 369.87 139.367C368.753 138.208 368 136.71 367.611 134.874ZM380.031 75.4642C379.925 74.9633 379.891 74.1854 379.93 73.1306C379.424 72.8015 378.916 72.2548 378.405 71.4906C377.978 70.7088 377.694 69.9839 377.553 69.316C377.394 68.5646 377.265 67.5452 377.167 66.2575C377.135 64.8688 377.127 63.3877 377.143 61.8143C377.159 60.241 377.25 58.6082 377.415 56.916C377.563 55.1403 377.746 53.5316 377.964 52.0898C378.966 51.8779 380.238 51.9139 381.781 52.1981C383.39 52.3811 385.043 52.7727 386.74 53.3732C388.419 53.8901 390 54.5587 391.482 55.3791C392.946 56.116 394.109 56.8729 394.971 57.65C394.247 58.7626 393.31 60.3127 392.161 62.3004C390.994 64.2045 389.895 66.2251 388.864 68.362C387.816 70.4155 386.875 72.359 386.042 74.1925C385.209 76.026 384.696 77.312 384.503 78.0505C383.466 78.0955 382.501 77.8635 381.608 77.3546C380.698 76.7622 380.172 76.1321 380.031 75.4642Z"/>
<path d="M432.719 75.6996C433.48 80.9464 433.507 85.6071 432.799 89.6819C432.073 93.6732 430.591 97.3883 428.353 100.827C426.181 104.165 423.33 107.385 419.8 110.487C416.269 113.589 412.053 116.749 407.152 119.966C407.258 120.467 407.331 121.019 407.371 121.621C407.477 122.122 407.592 122.664 407.715 123.249C407.945 124.334 408.267 125.443 408.681 126.577C409.095 127.71 409.617 128.734 410.247 129.647C410.876 130.561 411.637 131.272 412.53 131.781C413.405 132.206 414.427 132.296 415.595 132.048C417.85 131.571 419.956 130.602 421.915 129.141C423.873 127.68 425.662 126.037 427.282 124.211C428.968 122.285 430.469 120.31 431.786 118.287C433.168 116.163 434.377 114.25 435.412 112.548C436.406 113.123 437.266 113.682 437.992 114.227C435.294 120.031 432.045 125.079 428.243 129.372C424.508 133.564 420.733 136.543 416.92 138.31C411.018 138.86 406.069 137.727 402.071 134.91C398.139 131.991 395.643 128.027 394.583 123.018C393.859 119.595 393.585 116.033 393.762 112.333C394.004 108.531 394.616 104.825 395.596 101.216C396.643 97.5057 397.984 93.9511 399.62 90.5522C401.34 87.1357 403.264 84.0683 405.393 81.3501C407.605 78.6143 409.956 76.3288 412.446 74.4937C415.02 72.6408 417.684 71.423 420.439 70.8401C424.385 70.5285 428.479 72.1484 432.719 75.6996ZM424.952 81.6602C422.769 82.4711 420.626 83.884 418.522 85.8989C416.419 87.9139 414.547 90.4033 412.907 93.3671C411.349 96.3132 410.047 99.6414 409.001 103.352C407.954 107.062 407.336 110.943 407.147 114.996C413.119 110.243 417.805 104.978 421.206 99.1996C424.588 93.3378 425.837 87.4914 424.952 81.6602Z"/>
<path d="M488.565 38.7643C485.226 39.4708 482.443 39.1 480.218 37.6519C478.059 36.1027 476.696 33.9923 476.131 31.3207C475.99 30.6529 475.905 29.8421 475.878 28.8884C475.934 27.9171 476.059 27.0622 476.251 26.3236C477.443 26.5949 479.108 26.635 481.248 26.4439C483.454 26.1516 485.977 25.7052 488.815 25.1047C493.073 24.2039 497.838 23.0213 503.11 21.5569C508.449 19.9914 513.536 18.4789 518.374 17.0193C523.211 15.5598 527.473 14.2657 531.159 13.1369C534.828 11.9246 537.204 11.2037 538.29 10.9741C541.379 10.3205 543.838 11.0213 545.669 13.0763C547.565 15.0301 549.253 17.8565 550.733 21.5555C548.528 21.8478 546.33 22.1818 544.142 22.5576C542.02 22.8322 540.207 23.1284 538.704 23.4464C536.033 24.0116 533.337 24.6691 530.617 25.419C527.981 26.1511 525.321 26.9756 522.637 27.8925C521.98 30.5608 521.295 33.7148 520.583 37.3545C519.852 40.9107 519.157 44.6339 518.497 48.524C517.921 52.3965 517.387 56.2601 516.894 60.1149C516.383 63.8863 515.969 67.2883 515.652 70.3211C514.981 76.2197 514.43 81.6568 514 86.6322C513.653 91.59 513.37 96.2291 513.15 100.549C512.996 104.769 512.932 108.795 512.958 112.627C512.984 116.459 513.075 120.19 513.233 123.82C507.463 124.169 502.046 121.652 496.982 116.269C497.102 113.539 497.303 110.575 497.586 107.375C497.934 104.074 498.328 100.371 498.768 96.2656C499.274 92.0592 499.882 87.3077 500.593 82.0112C501.304 76.7146 502.124 70.6972 503.054 63.9589C503.394 61.4447 503.758 58.8382 504.147 56.1393C504.518 53.357 504.856 50.6252 505.161 47.944C505.549 45.2452 505.83 42.6563 506.003 40.1774C506.26 37.6808 506.436 35.4195 506.53 33.3934C503.112 34.5526 499.852 35.6348 496.751 36.64C493.715 37.5439 490.986 38.252 488.565 38.7643Z"/>
<path d="M554.341 108.712C549.476 109.218 545.236 107.935 541.62 104.862C538.005 101.789 535.596 97.4142 534.395 91.7372C533.689 88.3978 533.457 84.8272 533.699 81.0254C533.941 77.2235 534.628 73.4586 535.758 69.7306C536.87 65.9191 538.361 62.2457 540.229 58.7104C542.098 55.175 544.264 52.0129 546.727 49.2241C550.594 44.8297 554.532 42.2086 558.539 41.3608C561.511 42.2149 564.768 44.6222 568.309 48.5829C568.727 48.4946 569.102 48.4151 569.436 48.3444C569.753 48.1903 570.12 48.0691 570.537 47.9807C574.962 47.0446 578.004 50.5004 579.665 58.348C580.777 63.6076 580.96 68.8021 580.214 73.9317C579.533 78.9602 578.055 83.7213 575.779 88.2151C573.586 92.6913 570.643 96.7156 566.95 100.288C563.323 103.759 559.12 106.567 554.341 108.712ZM552.382 67.9143C551.369 70.1348 550.475 72.5045 549.699 75.0235C548.924 77.5426 548.324 80.068 547.9 82.5999C547.459 85.0483 547.217 87.4108 547.176 89.6874C547.116 91.8805 547.263 93.8119 547.617 95.4816C548.041 97.4853 548.781 99.3348 549.837 101.03C550.894 102.726 551.866 103.61 552.754 103.684C556.334 102.054 559.43 99.7856 562.042 96.878C564.72 93.8692 566.824 90.4149 568.354 86.5151C569.967 82.5977 570.941 78.3359 571.275 73.7297C571.692 69.1058 571.38 64.3311 570.337 59.4055C569.878 57.2348 569.391 55.5499 568.875 54.3506C568.36 53.1513 567.713 52.1543 566.934 51.3596C563.491 53.2221 560.564 55.673 558.154 58.7122C555.828 61.7339 553.904 64.8012 552.382 67.9143Z"/>
<path d="M627.392 85.7995C625.523 84.7993 624.085 83.3592 623.077 81.4792C622.152 79.5815 621.539 77.9231 621.239 76.5038C620.868 74.7506 620.759 73.2037 620.911 71.8631C620.577 71.9338 619.967 72.7606 619.081 74.3437C618.195 75.9267 617.236 77.7867 616.206 79.9237C615.259 82.043 614.303 84.1205 613.338 86.1563C612.373 88.1921 611.645 89.6981 611.154 90.6742C610.316 92.0726 609.466 93.2118 608.606 94.0916C607.829 94.9538 607.157 95.4884 606.59 95.6955C605.237 95.8947 603.756 95.9027 602.147 95.7198C600.639 95.6026 599.129 95.2679 597.617 94.7157C596.188 94.1457 594.849 93.3824 593.6 92.4255C592.434 91.451 591.526 90.2477 590.874 88.8156C590.379 86.4781 590.015 84.5491 589.78 83.0287C589.629 81.4906 589.577 79.8008 589.623 77.9593C589.704 74.6279 590.029 70.8084 590.601 66.5008C591.256 62.1756 592.137 57.8897 593.245 53.6432C594.335 49.3131 595.695 45.2311 597.326 41.3971C599.023 37.462 601.004 34.2517 603.27 31.7664C604.021 31.6074 604.915 31.5054 605.952 31.4604C606.972 31.332 608.018 31.3287 609.09 31.4507C610.246 31.555 611.337 31.7605 612.361 32.0671C613.451 32.2726 614.409 32.6804 615.236 33.2904C614.662 34.2842 613.333 37.4873 611.251 42.8994C609.252 48.294 607.319 55.8551 605.453 65.5829C605.229 66.5895 605.011 68.0313 604.798 69.9081C604.584 71.7849 604.388 73.7453 604.21 75.7891C604.032 77.8329 603.929 79.8173 603.9 81.7422C603.954 83.6496 604.096 85.1459 604.326 86.2312C604.467 86.8991 604.657 87.3823 604.894 87.681C605.216 87.9619 605.477 88.1682 605.68 88.2999C606.826 87.534 608.121 85.8209 609.564 83.1605C611.007 80.5002 612.946 76.4703 615.379 71.071C615.967 69.7256 616.645 68.1867 617.412 66.4543C618.263 64.7043 619.096 62.8708 619.911 60.9538C620.709 58.9533 621.415 56.9288 622.028 54.8801C622.725 52.8139 623.213 50.7917 623.492 48.8137C623.614 47.7413 623.784 46.4842 624.003 45.0424C624.287 43.4995 624.646 41.8972 625.079 40.2355C625.596 38.5562 626.196 36.8591 626.88 35.1444C627.63 33.3286 628.573 31.6027 629.71 29.9666C630.795 29.737 631.99 29.615 633.296 29.6005C634.601 29.586 635.84 29.6726 637.014 29.8605C638.253 29.9471 639.344 30.1526 640.284 30.4769C641.208 30.7177 641.931 31.0444 642.454 31.457C641.729 35.4482 640.827 39.4331 639.75 43.4116C638.673 47.39 637.712 51.3002 636.868 55.1422C636.006 58.9007 635.394 62.6062 635.033 66.2587C634.672 69.9113 634.836 73.3655 635.525 76.6214C635.896 78.3746 636.348 79.8926 636.881 81.1754C637.479 82.357 638.043 83.3716 638.571 84.2193C639.082 84.9835 639.524 85.6313 639.898 86.1627C640.356 86.6765 640.629 87.1421 640.717 87.5595C640.735 87.643 640.678 87.7859 640.546 87.9882C640.48 88.0893 640.406 88.1487 640.322 88.1664C639.738 88.29 638.96 88.3238 637.989 88.2676C637.017 88.2114 635.894 88.0565 634.619 87.8029C633.446 87.6151 632.213 87.3526 630.92 87.0155C629.711 86.6607 628.535 86.2554 627.392 85.7995Z"/>
<path d="M652.258 80.8003C652.163 78.2909 652.202 74.9683 652.373 70.8326C652.611 66.5957 652.971 62.1147 653.454 57.3897C653.92 52.5812 654.469 47.7551 655.101 42.9113C655.733 38.0675 656.421 33.6917 657.164 29.7839C657.702 26.9662 658.238 24.7595 658.773 23.1636C659.29 21.4842 659.943 20.0376 660.733 18.8239C661.937 18.7436 663.21 18.7796 664.55 18.9321C665.891 19.0846 667.207 19.3294 668.5 19.6665C669.792 20.0036 670.968 20.409 672.028 20.8826C673.07 21.2727 673.903 21.707 674.528 22.1854C672.839 25.3338 671.48 28.8049 670.451 32.5987C669.505 36.3749 668.721 41.12 668.098 46.834C671.759 41.8729 674.912 37.1936 677.558 32.796C680.287 28.3808 682.677 23.6012 684.729 18.4571C685.142 17.9337 685.974 17.5395 687.226 17.2746C688.395 17.0273 689.566 16.9976 690.74 17.1854C691.896 17.2897 692.753 17.6317 693.312 18.2112C692.657 22.5365 692.745 26.661 693.575 30.5848C694.352 34.2581 695.477 36.8983 696.951 38.5054C696.974 39.024 696.593 40.1077 695.808 41.7566C695.106 43.3878 694.262 44.962 693.274 46.4792C690.773 45.7873 688.434 44.625 686.256 42.9923C684.062 41.2761 682.291 39.2957 680.944 37.0513C677.603 40.6365 674.837 44.0563 672.648 47.3107C670.44 50.4816 668.679 53.907 667.364 57.5868C666.115 61.1655 665.223 65.1921 664.687 69.6666C664.234 74.1235 663.991 79.3647 663.957 85.3901C663.188 85.4656 662.208 85.3677 661.017 85.0964C659.927 84.8909 658.768 84.569 657.542 84.1308C656.399 83.6748 655.33 83.1595 654.336 82.5848C653.343 82.01 652.65 81.4152 652.258 80.8003Z"/>
<path d="M737.003 13.416C737.255 15.0199 737.316 16.7514 737.186 18.6106C737.122 20.3686 736.906 22.0279 736.538 23.5884C736.153 25.0655 735.682 26.3427 735.125 27.42C734.567 28.4973 733.955 29.1066 733.287 29.2479C732.351 29.3587 731.676 28.8474 731.262 27.7139C731.209 27.4635 731.213 27.0701 731.274 26.5339C731.401 25.8965 731.519 25.2174 731.628 24.4965C731.737 23.7756 731.804 23.0636 731.83 22.3604C731.939 21.6395 731.941 21.0286 731.835 20.5277C731.587 19.3589 731.092 18.4606 730.349 17.8329C729.671 17.104 728.873 16.8367 727.955 17.031C724.615 17.7375 722.511 20.3634 721.641 24.9086C720.771 29.4538 721.192 35.7754 722.906 43.8735C723.082 44.7083 723.23 45.2004 723.349 45.3497C725.084 44.8953 726.62 44.5268 727.956 44.2442C729.357 43.8604 730.726 43.5273 732.062 43.2447C732.181 43.394 732.293 43.7191 732.399 44.22C732.558 44.9714 732.506 45.5493 732.242 45.9539C730.411 46.7776 728.946 47.4801 727.847 48.0613C726.815 48.5413 726.033 48.9684 725.502 49.3425C724.97 49.7166 724.657 50.0883 724.56 50.4576C724.53 50.7257 724.567 51.1102 724.673 51.6111C724.815 52.279 724.956 52.9469 725.097 53.6148C725.322 54.265 725.541 55.091 725.753 56.0928C727.236 63.1056 726.508 69.1471 723.569 74.2174C720.713 79.2699 715.974 82.8455 709.353 84.9441C708.167 85.1079 706.886 85.0301 705.51 84.7106C704.134 84.3911 702.764 83.8959 701.401 83.2248C700.121 82.5361 698.941 81.6957 697.858 80.7035C696.794 79.7948 695.971 78.7914 695.39 77.6933C694.719 74.5208 694.751 71.3741 695.486 68.2529C696.204 65.0484 697.46 62.1223 699.255 59.4748C701.115 56.7261 703.449 54.3571 706.255 52.3678C709.127 50.2774 712.374 48.7184 715.994 47.6908C715.552 45.6036 714.911 43.6024 714.07 41.687C713.228 39.7717 712.363 37.9487 711.473 36.218C710.65 34.3862 709.844 32.6378 709.055 30.9729C708.249 29.2245 707.661 27.4738 707.29 25.7206C706.813 23.4665 706.804 21.157 707.263 18.7921C707.705 16.3437 708.483 14.0422 709.597 11.8875C710.693 9.64945 712.102 7.65057 713.823 5.89089C715.544 4.13122 717.437 2.77131 719.502 1.81116C720.473 1.86732 721.842 2.36258 723.61 3.29693C725.443 4.13013 727.271 5.13913 729.091 6.32393C730.912 7.50874 732.574 8.77061 734.079 10.1095C735.566 11.365 736.54 12.4672 737.003 13.416ZM707.759 79.2631C709.586 78.0043 711.208 76.3964 712.626 74.4392C714.127 72.4644 715.333 70.3339 716.245 68.0476C717.157 65.7614 717.75 63.4117 718.025 60.9987C718.382 58.5679 718.332 56.2672 717.873 54.0966C716.256 54.7003 714.587 55.882 712.866 57.6417C711.127 59.3179 709.576 61.2598 708.211 63.4674C706.829 65.5915 705.756 67.7373 704.994 69.9047C704.231 72.0722 704 73.8655 704.3 75.2848C704.689 77.1214 705.842 78.4476 707.759 79.2631Z"/>
</mask>
<path d="M69.5806 80.9706C24.2651 90.558 -5.4507 132.151 3.3377 173.69C12.1261 215.229 56.1411 241.223 101.457 231.636C146.772 222.048 176.488 180.455 167.699 138.916C158.911 97.377 114.886 71.3853 69.5806 80.9706ZM14.1853 176.025L42.5812 170.017C44.9267 179.002 48.4295 187.585 53.1662 195.556L27.9995 200.88C21.6503 193.834 16.8912 185.425 14.1853 176.025ZM40.7061 161.154L12.3102 167.162C10.9772 157.472 11.9225 147.855 14.8741 138.842L40.0118 133.523C38.9186 142.727 39.2018 151.991 40.7061 161.154ZM50.2506 131.357L107.255 119.297C112.255 127.174 116 135.706 118.382 144.721L50.3745 159.109C48.8917 149.904 48.8695 140.584 50.2506 131.357ZM52.2495 167.971L120.266 153.581C121.72 162.792 121.752 172.11 120.361 181.339L63.405 193.389C58.3953 185.514 54.6412 176.984 52.2495 167.971ZM129.935 151.536L158.727 145.444C160.06 155.134 159.115 164.751 156.163 173.765L130.6 179.173C131.703 169.967 131.429 160.701 129.935 151.536ZM128.06 142.673C125.724 133.686 122.231 125.101 117.504 117.128L143.038 111.726C149.377 118.774 154.136 127.184 156.852 136.582L128.06 142.673ZM134.955 104.177L112.196 108.992C106.616 101.33 99.8562 94.3988 92.1476 88.2333C108.261 89.0557 123.216 94.8085 134.955 104.177ZM76.9031 88.94C86.5517 95.2043 94.8135 102.744 101.542 111.246L52.2138 121.682C54.9141 111.194 59.4068 100.966 65.6915 91.3306C67.5874 90.7906 69.4833 90.2506 71.4556 89.8333C73.2733 89.4487 75.0901 89.2032 76.9031 88.94ZM51.42 96.9704C46.9099 105.684 43.5487 114.719 41.569 123.934L19.1965 128.668C26.054 115.485 37.2345 104.259 51.42 96.9704ZM36.072 208.432L58.4735 203.692C64.037 211.321 70.7908 218.225 78.4725 224.359C62.5158 223.467 47.7059 217.73 36.072 208.432ZM93.8209 223.714C84.153 217.454 75.8737 209.927 69.1281 201.438L118.379 191.018C115.651 201.521 111.131 211.764 104.818 221.406C103.092 221.891 101.36 222.397 99.5815 222.773C97.6478 223.182 95.7344 223.448 93.8209 223.714ZM119.048 215.904C123.618 207.141 127.026 198.04 129.033 188.764L151.831 183.941C144.878 197.291 133.498 208.625 119.048 215.904Z" fill="#E03822"/>
<path d="M244.727 162.18C247.574 165.329 249.35 168.572 250.057 171.912C250.216 172.663 250.273 173.349 250.23 173.969C250.288 174.654 250.304 175.348 250.278 176.052C248.824 176.185 247.295 176.378 245.691 176.63C244.17 176.864 242.575 177.158 240.906 177.511C238.902 177.935 236.865 178.41 234.796 178.935C232.828 179.526 230.618 180.211 228.166 180.992C225.714 181.772 222.988 182.698 219.988 183.769C216.987 184.84 213.512 186.142 209.562 187.675C207.501 187.413 205.298 186.484 202.954 184.886C200.628 183.373 198.338 181.415 196.086 179.013C196.532 177 197.099 174.525 197.786 171.588C198.455 168.568 199.218 164.962 200.076 160.768C200.915 156.491 201.789 151.552 202.698 145.952C203.672 140.251 204.604 133.73 205.493 126.39C206.042 121.564 206.497 117.325 206.858 113.672C207.219 110.02 207.482 106.519 207.645 103.17C207.875 99.7195 208.036 96.1529 208.129 92.4699C208.222 88.7869 208.284 84.5436 208.314 79.7399C211.795 79.7013 214.94 80.3442 217.75 81.6686C220.625 82.892 223.543 84.9349 226.504 87.7974C226.066 89.024 225.56 90.9626 224.987 93.6133C224.414 96.264 223.747 99.5015 222.986 103.326C222.291 107.049 221.535 111.308 220.718 116.104C219.883 120.816 219.036 125.88 218.175 131.295C217.381 136.61 216.566 141.623 215.731 146.335C214.896 151.047 214.14 155.306 213.463 159.113C212.869 162.902 212.42 166.137 212.115 168.818C211.81 171.5 211.79 173.466 212.055 174.719C213.373 174.353 214.566 174.013 215.633 173.7C216.701 173.387 217.801 173.023 218.935 172.609C220.051 172.111 221.25 171.596 222.533 171.063C223.881 170.428 225.463 169.658 227.277 168.751C228.858 167.98 230.332 167.319 231.698 166.768C233.047 166.134 234.372 165.592 235.672 165.143C237.038 164.592 238.422 164.125 239.824 163.741C241.291 163.256 242.926 162.736 244.727 162.18Z" fill="#DE445F"/>
<path d="M290.23 107.154C291.065 106.978 292.06 106.941 293.216 107.046C294.438 107.049 295.561 107.204 296.585 107.51C297.592 107.734 298.44 108.034 299.131 108.411C299.904 108.771 300.336 109.159 300.424 109.577C299.496 113.436 298.702 117.311 298.042 121.201C297.365 125.008 296.87 128.645 296.557 132.113C296.244 135.581 296.095 138.796 296.112 141.758C296.211 144.703 296.482 147.218 296.923 149.306C297.418 151.643 298.084 153.552 298.92 155.032C299.739 156.429 300.803 157.338 302.113 157.758C301.253 158.638 300.074 159.455 298.576 160.208C297.078 160.961 295.703 161.47 294.451 161.735C289.942 162.688 287.035 160.076 285.728 153.898C284.721 149.14 284.929 142.292 286.353 133.356C285.496 137.55 284.344 141.587 282.898 145.47C281.434 149.268 279.848 152.7 278.142 155.765C276.435 158.83 274.59 161.445 272.605 163.609C270.687 165.672 268.803 167.074 266.953 167.814C263.829 168.3 261.015 167.369 258.512 165.02C255.992 162.588 254.272 159.201 253.354 154.86C252.364 150.185 252.324 145.047 253.233 139.447C254.141 133.847 255.672 128.508 257.825 123.43C260.061 118.334 262.707 113.937 265.762 110.237C268.799 106.455 272.012 104.118 275.4 103.227C276.287 103.301 277.312 103.607 278.473 104.147C279.717 104.668 280.904 105.333 282.034 106.141C283.248 106.93 284.304 107.797 285.201 108.741C286.081 109.602 286.642 110.399 286.885 111.133C283.651 112.34 280.531 114.701 277.524 118.216C274.601 121.712 272.093 125.732 270.001 130.274C267.975 134.715 266.512 139.342 265.611 144.155C264.711 148.968 264.667 153.295 265.479 157.136C265.815 158.722 266.611 159.6 267.868 159.77C270.183 158.757 272.547 156.12 274.96 151.859C277.356 147.514 280.004 141.067 282.905 132.516C283.421 130.836 283.987 128.972 284.6 126.924C285.297 124.857 285.976 122.708 286.637 120.474C287.298 118.241 287.918 116.017 288.496 113.801C289.14 111.484 289.718 109.269 290.23 107.154Z" fill="#DE445F"/>
<path d="M355.34 145.451C354.722 147.064 353.499 148.5 351.672 149.759C349.946 151.084 348.224 152.015 346.506 152.553C344.734 151.183 342.671 149.265 340.317 146.797C337.946 144.246 335.561 141.218 333.162 137.714C329.717 142.455 326.201 146.862 322.614 150.935C319.01 154.925 315.601 158.394 312.387 161.342C311.433 161.369 310.576 161.027 309.815 160.316C309.054 159.604 308.49 158.59 308.124 157.272C309.599 156 311.305 154.374 313.241 152.395C315.261 150.398 317.254 148.275 319.221 146.027C321.253 143.678 323.152 141.314 324.916 138.935C326.746 136.454 328.26 134.128 329.458 131.956C327.332 128.916 325.272 125.776 323.278 122.535C321.35 119.192 319.582 115.99 317.975 112.928C316.433 109.766 315.13 106.901 314.063 104.336C312.98 101.687 312.261 99.5275 311.908 97.8577C311.661 96.689 311.627 95.9111 311.807 95.5242C312.052 95.0361 312.718 94.6772 313.803 94.4476C314.638 94.271 315.657 94.1425 316.862 94.0622C318.149 93.9642 319.446 93.908 320.751 93.8935C322.056 93.879 323.37 93.9063 324.693 93.9753C325.998 93.9608 327.146 94.0234 328.135 94.163C328.162 95.1167 328.246 95.9275 328.388 96.5954C328.529 97.2632 328.732 98.2233 328.997 99.4756C329.686 102.732 330.643 106.018 331.868 109.335C333.159 112.551 334.845 115.988 336.928 119.647C339.521 114.999 341.775 109.986 343.69 104.61C345.587 99.1492 347.332 92.7617 348.925 85.447C351.1 85.4228 353.028 85.6692 354.707 86.1861C356.369 86.6196 357.505 87.2513 358.117 88.0813C358.011 92.116 356.448 97.5057 353.426 104.25C350.405 110.995 346.294 118.363 341.094 126.354C342.934 129.279 345.069 132.36 347.498 135.596C349.91 138.749 352.523 142.034 355.34 145.451Z" fill="#DE445F"/>
<path d="M367.611 134.874C367.452 134.122 367.3 133.195 367.153 132.092C367.073 130.888 367.006 129.332 366.951 127.425C366.879 125.434 366.81 123.05 366.746 120.272C366.765 117.477 366.795 114.113 366.835 110.179C366.825 109.309 366.918 107.894 367.114 105.934C367.31 103.973 367.655 101.894 368.149 99.6963C368.71 97.3972 369.455 95.1463 370.384 92.9435C371.397 90.7231 372.767 88.9506 374.492 87.626C375.982 87.6597 378.046 88.1388 380.684 89.0635C383.304 89.9047 385.705 91.3592 387.887 93.4271C386.426 96.0039 385.258 98.519 384.381 100.972C383.588 103.408 382.896 105.909 382.305 108.476C381.798 111.026 381.35 113.65 380.962 116.349C380.657 119.03 380.253 121.863 379.751 124.848C379.327 127.38 379.004 129.977 378.783 132.641C378.544 135.221 378.577 137.438 378.882 139.292C379.2 140.795 379.379 141.847 379.419 142.45C379.56 143.117 379.422 143.496 379.005 143.584C378.671 143.654 377.959 143.587 376.869 143.382C375.778 143.176 374.602 142.771 373.34 142.166C372.144 141.459 370.988 140.526 369.87 139.367C368.753 138.208 368 136.71 367.611 134.874ZM380.031 75.4642C379.925 74.9633 379.891 74.1854 379.93 73.1306C379.424 72.8015 378.916 72.2548 378.405 71.4906C377.978 70.7088 377.694 69.9839 377.553 69.316C377.394 68.5646 377.265 67.5452 377.167 66.2575C377.135 64.8688 377.127 63.3877 377.143 61.8143C377.159 60.241 377.25 58.6082 377.415 56.916C377.563 55.1403 377.746 53.5316 377.964 52.0898C378.966 51.8779 380.238 51.9139 381.781 52.1981C383.39 52.3811 385.043 52.7727 386.74 53.3732C388.419 53.8901 390 54.5587 391.482 55.3791C392.946 56.116 394.109 56.8729 394.971 57.65C394.247 58.7626 393.31 60.3127 392.161 62.3004C390.994 64.2045 389.895 66.2251 388.864 68.362C387.816 70.4155 386.875 72.359 386.042 74.1925C385.209 76.026 384.696 77.312 384.503 78.0505C383.466 78.0955 382.501 77.8635 381.608 77.3546C380.698 76.7622 380.172 76.1321 380.031 75.4642Z" fill="#DE445F"/>
<path d="M432.719 75.6996C433.48 80.9464 433.507 85.6071 432.799 89.6819C432.073 93.6732 430.591 97.3883 428.353 100.827C426.181 104.165 423.33 107.385 419.8 110.487C416.269 113.589 412.053 116.749 407.152 119.966C407.258 120.467 407.331 121.019 407.371 121.621C407.477 122.122 407.592 122.664 407.715 123.249C407.945 124.334 408.267 125.443 408.681 126.577C409.095 127.71 409.617 128.734 410.247 129.647C410.876 130.561 411.637 131.272 412.53 131.781C413.405 132.206 414.427 132.296 415.595 132.048C417.85 131.571 419.956 130.602 421.915 129.141C423.873 127.68 425.662 126.037 427.282 124.211C428.968 122.285 430.469 120.31 431.786 118.287C433.168 116.163 434.377 114.25 435.412 112.548C436.406 113.123 437.266 113.682 437.992 114.227C435.294 120.031 432.045 125.079 428.243 129.372C424.508 133.564 420.733 136.543 416.92 138.31C411.018 138.86 406.069 137.727 402.071 134.91C398.139 131.991 395.643 128.027 394.583 123.018C393.859 119.595 393.585 116.033 393.762 112.333C394.004 108.531 394.616 104.825 395.596 101.216C396.643 97.5057 397.984 93.9511 399.62 90.5522C401.34 87.1357 403.264 84.0683 405.393 81.3501C407.605 78.6143 409.956 76.3288 412.446 74.4937C415.02 72.6408 417.684 71.423 420.439 70.8401C424.385 70.5285 428.479 72.1484 432.719 75.6996ZM424.952 81.6602C422.769 82.4711 420.626 83.884 418.522 85.8989C416.419 87.9139 414.547 90.4033 412.907 93.3671C411.349 96.3132 410.047 99.6414 409.001 103.352C407.954 107.062 407.336 110.943 407.147 114.996C413.119 110.243 417.805 104.978 421.206 99.1996C424.588 93.3378 425.837 87.4914 424.952 81.6602Z" fill="#DE445F"/>
<path d="M488.565 38.7643C485.226 39.4708 482.443 39.1 480.218 37.6519C478.059 36.1027 476.696 33.9923 476.131 31.3207C475.99 30.6529 475.905 29.8421 475.878 28.8884C475.934 27.9171 476.059 27.0622 476.251 26.3236C477.443 26.5949 479.108 26.635 481.248 26.4439C483.454 26.1516 485.977 25.7052 488.815 25.1047C493.073 24.2039 497.838 23.0213 503.11 21.5569C508.449 19.9914 513.536 18.4789 518.374 17.0193C523.211 15.5598 527.473 14.2657 531.159 13.1369C534.828 11.9246 537.204 11.2037 538.29 10.9741C541.379 10.3205 543.838 11.0213 545.669 13.0763C547.565 15.0301 549.253 17.8565 550.733 21.5555C548.528 21.8478 546.33 22.1818 544.142 22.5576C542.02 22.8322 540.207 23.1284 538.704 23.4464C536.033 24.0116 533.337 24.6691 530.617 25.419C527.981 26.1511 525.321 26.9756 522.637 27.8925C521.98 30.5608 521.295 33.7148 520.583 37.3545C519.852 40.9107 519.157 44.6339 518.497 48.524C517.921 52.3965 517.387 56.2601 516.894 60.1149C516.383 63.8863 515.969 67.2883 515.652 70.3211C514.981 76.2197 514.43 81.6568 514 86.6322C513.653 91.59 513.37 96.2291 513.15 100.549C512.996 104.769 512.932 108.795 512.958 112.627C512.984 116.459 513.075 120.19 513.233 123.82C507.463 124.169 502.046 121.652 496.982 116.269C497.102 113.539 497.303 110.575 497.586 107.375C497.934 104.074 498.328 100.371 498.768 96.2656C499.274 92.0592 499.882 87.3077 500.593 82.0112C501.304 76.7146 502.124 70.6972 503.054 63.9589C503.394 61.4447 503.758 58.8382 504.147 56.1393C504.518 53.357 504.856 50.6252 505.161 47.944C505.549 45.2452 505.83 42.6563 506.003 40.1774C506.26 37.6808 506.436 35.4195 506.53 33.3934C503.112 34.5526 499.852 35.6348 496.751 36.64C493.715 37.5439 490.986 38.252 488.565 38.7643Z" fill="#DE445F"/>
<path d="M554.341 108.712C549.476 109.218 545.236 107.935 541.62 104.862C538.005 101.789 535.596 97.4142 534.395 91.7372C533.689 88.3978 533.457 84.8272 533.699 81.0254C533.941 77.2235 534.628 73.4586 535.758 69.7306C536.87 65.9191 538.361 62.2457 540.229 58.7104C542.098 55.175 544.264 52.0129 546.727 49.2241C550.594 44.8297 554.532 42.2086 558.539 41.3608C561.511 42.2149 564.768 44.6222 568.309 48.5829C568.727 48.4946 569.102 48.4151 569.436 48.3444C569.753 48.1903 570.12 48.0691 570.537 47.9807C574.962 47.0446 578.004 50.5004 579.665 58.348C580.777 63.6076 580.96 68.8021 580.214 73.9317C579.533 78.9602 578.055 83.7213 575.779 88.2151C573.586 92.6913 570.643 96.7156 566.95 100.288C563.323 103.759 559.12 106.567 554.341 108.712ZM552.382 67.9143C551.369 70.1348 550.475 72.5045 549.699 75.0235C548.924 77.5426 548.324 80.068 547.9 82.5999C547.459 85.0483 547.217 87.4108 547.176 89.6874C547.116 91.8805 547.263 93.8119 547.617 95.4816C548.041 97.4853 548.781 99.3348 549.837 101.03C550.894 102.726 551.866 103.61 552.754 103.684C556.334 102.054 559.43 99.7856 562.042 96.878C564.72 93.8692 566.824 90.4149 568.354 86.5151C569.967 82.5977 570.941 78.3359 571.275 73.7297C571.692 69.1058 571.38 64.3311 570.337 59.4055C569.878 57.2348 569.391 55.5499 568.875 54.3506C568.36 53.1513 567.713 52.1543 566.934 51.3596C563.491 53.2221 560.564 55.673 558.154 58.7122C555.828 61.7339 553.904 64.8012 552.382 67.9143Z" fill="#DE445F"/>
<path d="M627.392 85.7995C625.523 84.7993 624.085 83.3592 623.077 81.4792C622.152 79.5815 621.539 77.9231 621.239 76.5038C620.868 74.7506 620.759 73.2037 620.911 71.8631C620.577 71.9338 619.967 72.7606 619.081 74.3437C618.195 75.9267 617.236 77.7867 616.206 79.9237C615.259 82.043 614.303 84.1205 613.338 86.1563C612.373 88.1921 611.645 89.6981 611.154 90.6742C610.316 92.0726 609.466 93.2118 608.606 94.0916C607.829 94.9538 607.157 95.4884 606.59 95.6955C605.237 95.8947 603.756 95.9027 602.147 95.7198C600.639 95.6026 599.129 95.2679 597.617 94.7157C596.188 94.1457 594.849 93.3824 593.6 92.4255C592.434 91.451 591.526 90.2477 590.874 88.8156C590.379 86.4781 590.015 84.5491 589.78 83.0287C589.629 81.4906 589.577 79.8008 589.623 77.9593C589.704 74.6279 590.029 70.8084 590.601 66.5008C591.256 62.1756 592.137 57.8897 593.245 53.6432C594.335 49.3131 595.695 45.2311 597.326 41.3971C599.023 37.462 601.004 34.2517 603.27 31.7664C604.021 31.6074 604.915 31.5054 605.952 31.4604C606.972 31.332 608.018 31.3287 609.09 31.4507C610.246 31.555 611.337 31.7605 612.361 32.0671C613.451 32.2726 614.409 32.6804 615.236 33.2904C614.662 34.2842 613.333 37.4873 611.251 42.8994C609.252 48.294 607.319 55.8551 605.453 65.5829C605.229 66.5895 605.011 68.0313 604.798 69.9081C604.584 71.7849 604.388 73.7453 604.21 75.7891C604.032 77.8329 603.929 79.8173 603.9 81.7422C603.954 83.6496 604.096 85.1459 604.326 86.2312C604.467 86.8991 604.657 87.3823 604.894 87.681C605.216 87.9619 605.477 88.1682 605.68 88.2999C606.826 87.534 608.121 85.8209 609.564 83.1605C611.007 80.5002 612.946 76.4703 615.379 71.071C615.967 69.7256 616.645 68.1867 617.412 66.4543C618.263 64.7043 619.096 62.8708 619.911 60.9538C620.709 58.9533 621.415 56.9288 622.028 54.8801C622.725 52.8139 623.213 50.7917 623.492 48.8137C623.614 47.7413 623.784 46.4842 624.003 45.0424C624.287 43.4995 624.646 41.8972 625.079 40.2355C625.596 38.5562 626.196 36.8591 626.88 35.1444C627.63 33.3286 628.573 31.6027 629.71 29.9666C630.795 29.737 631.99 29.615 633.296 29.6005C634.601 29.586 635.84 29.6726 637.014 29.8605C638.253 29.9471 639.344 30.1526 640.284 30.4769C641.208 30.7177 641.931 31.0444 642.454 31.457C641.729 35.4482 640.827 39.4331 639.75 43.4116C638.673 47.39 637.712 51.3002 636.868 55.1422C636.006 58.9007 635.394 62.6062 635.033 66.2587C634.672 69.9113 634.836 73.3655 635.525 76.6214C635.896 78.3746 636.348 79.8926 636.881 81.1754C637.479 82.357 638.043 83.3716 638.571 84.2193C639.082 84.9835 639.524 85.6313 639.898 86.1627C640.356 86.6765 640.629 87.1421 640.717 87.5595C640.735 87.643 640.678 87.7859 640.546 87.9882C640.48 88.0893 640.406 88.1487 640.322 88.1664C639.738 88.29 638.96 88.3238 637.989 88.2676C637.017 88.2114 635.894 88.0565 634.619 87.8029C633.446 87.6151 632.213 87.3526 630.92 87.0155C629.711 86.6607 628.535 86.2554 627.392 85.7995Z" fill="#DE445F"/>
<path d="M652.258 80.8003C652.163 78.2909 652.202 74.9683 652.373 70.8326C652.611 66.5957 652.971 62.1147 653.454 57.3897C653.92 52.5812 654.469 47.7551 655.101 42.9113C655.733 38.0675 656.421 33.6917 657.164 29.7839C657.702 26.9662 658.238 24.7595 658.773 23.1636C659.29 21.4842 659.943 20.0376 660.733 18.8239C661.937 18.7436 663.21 18.7796 664.55 18.9321C665.891 19.0846 667.207 19.3294 668.5 19.6665C669.792 20.0036 670.968 20.409 672.028 20.8826C673.07 21.2727 673.903 21.707 674.528 22.1854C672.839 25.3338 671.48 28.8049 670.451 32.5987C669.505 36.3749 668.721 41.12 668.098 46.834C671.759 41.8729 674.912 37.1936 677.558 32.796C680.287 28.3808 682.677 23.6012 684.729 18.4571C685.142 17.9337 685.974 17.5395 687.226 17.2746C688.395 17.0273 689.566 16.9976 690.74 17.1854C691.896 17.2897 692.753 17.6317 693.312 18.2112C692.657 22.5365 692.745 26.661 693.575 30.5848C694.352 34.2581 695.477 36.8983 696.951 38.5054C696.974 39.024 696.593 40.1077 695.808 41.7566C695.106 43.3878 694.262 44.962 693.274 46.4792C690.773 45.7873 688.434 44.625 686.256 42.9923C684.062 41.2761 682.291 39.2957 680.944 37.0513C677.603 40.6365 674.837 44.0563 672.648 47.3107C670.44 50.4816 668.679 53.907 667.364 57.5868C666.115 61.1655 665.223 65.1921 664.687 69.6666C664.234 74.1235 663.991 79.3647 663.957 85.3901C663.188 85.4656 662.208 85.3677 661.017 85.0964C659.927 84.8909 658.768 84.569 657.542 84.1308C656.399 83.6748 655.33 83.1595 654.336 82.5848C653.343 82.01 652.65 81.4152 652.258 80.8003Z" fill="#DE445F"/>
<path d="M737.003 13.416C737.255 15.0199 737.316 16.7514 737.186 18.6106C737.122 20.3686 736.906 22.0279 736.538 23.5884C736.153 25.0655 735.682 26.3427 735.125 27.42C734.567 28.4973 733.955 29.1066 733.287 29.2479C732.351 29.3587 731.676 28.8474 731.262 27.7139C731.209 27.4635 731.213 27.0701 731.274 26.5339C731.401 25.8965 731.519 25.2174 731.628 24.4965C731.737 23.7756 731.804 23.0636 731.83 22.3604C731.939 21.6395 731.941 21.0286 731.835 20.5277C731.587 19.3589 731.092 18.4606 730.349 17.8329C729.671 17.104 728.873 16.8367 727.955 17.031C724.615 17.7375 722.511 20.3634 721.641 24.9086C720.771 29.4538 721.192 35.7754 722.906 43.8735C723.082 44.7083 723.23 45.2004 723.349 45.3497C725.084 44.8953 726.62 44.5268 727.956 44.2442C729.357 43.8604 730.726 43.5273 732.062 43.2447C732.181 43.394 732.293 43.7191 732.399 44.22C732.558 44.9714 732.506 45.5493 732.242 45.9539C730.411 46.7776 728.946 47.4801 727.847 48.0613C726.815 48.5413 726.033 48.9684 725.502 49.3425C724.97 49.7166 724.657 50.0883 724.56 50.4576C724.53 50.7257 724.567 51.1102 724.673 51.6111C724.815 52.279 724.956 52.9469 725.097 53.6148C725.322 54.265 725.541 55.091 725.753 56.0928C727.236 63.1056 726.508 69.1471 723.569 74.2174C720.713 79.2699 715.974 82.8455 709.353 84.9441C708.167 85.1079 706.886 85.0301 705.51 84.7106C704.134 84.3911 702.764 83.8959 701.401 83.2248C700.121 82.5361 698.941 81.6957 697.858 80.7035C696.794 79.7948 695.971 78.7914 695.39 77.6933C694.719 74.5208 694.751 71.3741 695.486 68.2529C696.204 65.0484 697.46 62.1223 699.255 59.4748C701.115 56.7261 703.449 54.3571 706.255 52.3678C709.127 50.2774 712.374 48.7184 715.994 47.6908C715.552 45.6036 714.911 43.6024 714.07 41.687C713.228 39.7717 712.363 37.9487 711.473 36.218C710.65 34.3862 709.844 32.6378 709.055 30.9729C708.249 29.2245 707.661 27.4738 707.29 25.7206C706.813 23.4665 706.804 21.157 707.263 18.7921C707.705 16.3437 708.483 14.0422 709.597 11.8875C710.693 9.64945 712.102 7.65057 713.823 5.89089C715.544 4.13122 717.437 2.77131 719.502 1.81116C720.473 1.86732 721.842 2.36258 723.61 3.29693C725.443 4.13013 727.271 5.13913 729.091 6.32393C730.912 7.50874 732.574 8.77061 734.079 10.1095C735.566 11.365 736.54 12.4672 737.003 13.416ZM707.759 79.2631C709.586 78.0043 711.208 76.3964 712.626 74.4392C714.127 72.4644 715.333 70.3339 716.245 68.0476C717.157 65.7614 717.75 63.4117 718.025 60.9987C718.382 58.5679 718.332 56.2672 717.873 54.0966C716.256 54.7003 714.587 55.882 712.866 57.6417C711.127 59.3179 709.576 61.2598 708.211 63.4674C706.829 65.5915 705.756 67.7373 704.994 69.9047C704.231 72.0722 704 73.8655 704.3 75.2848C704.689 77.1214 705.842 78.4476 707.759 79.2631Z" fill="#DE445F"/>
<path d="M69.5806 80.9706C24.2651 90.558 -5.4507 132.151 3.3377 173.69C12.1261 215.229 56.1411 241.223 101.457 231.636C146.772 222.048 176.488 180.455 167.699 138.916C158.911 97.377 114.886 71.3853 69.5806 80.9706ZM14.1853 176.025L42.5812 170.017C44.9267 179.002 48.4295 187.585 53.1662 195.556L27.9995 200.88C21.6503 193.834 16.8912 185.425 14.1853 176.025ZM40.7061 161.154L12.3102 167.162C10.9772 157.472 11.9225 147.855 14.8741 138.842L40.0118 133.523C38.9186 142.727 39.2018 151.991 40.7061 161.154ZM50.2506 131.357L107.255 119.297C112.255 127.174 116 135.706 118.382 144.721L50.3745 159.109C48.8917 149.904 48.8695 140.584 50.2506 131.357ZM52.2495 167.971L120.266 153.581C121.72 162.792 121.752 172.11 120.361 181.339L63.405 193.389C58.3953 185.514 54.6412 176.984 52.2495 167.971ZM129.935 151.536L158.727 145.444C160.06 155.134 159.115 164.751 156.163 173.765L130.6 179.173C131.703 169.967 131.429 160.701 129.935 151.536ZM128.06 142.673C125.724 133.686 122.231 125.101 117.504 117.128L143.038 111.726C149.377 118.774 154.136 127.184 156.852 136.582L128.06 142.673ZM134.955 104.177L112.196 108.992C106.616 101.33 99.8562 94.3988 92.1476 88.2333C108.261 89.0557 123.216 94.8085 134.955 104.177ZM76.9031 88.94C86.5517 95.2043 94.8135 102.744 101.542 111.246L52.2138 121.682C54.9141 111.194 59.4068 100.966 65.6915 91.3306C67.5874 90.7906 69.4833 90.2506 71.4556 89.8333C73.2733 89.4487 75.0901 89.2032 76.9031 88.94ZM51.42 96.9704C46.9099 105.684 43.5487 114.719 41.569 123.934L19.1965 128.668C26.054 115.485 37.2345 104.259 51.42 96.9704ZM36.072 208.432L58.4735 203.692C64.037 211.321 70.7908 218.225 78.4725 224.359C62.5158 223.467 47.7059 217.73 36.072 208.432ZM93.8209 223.714C84.153 217.454 75.8737 209.927 69.1281 201.438L118.379 191.018C115.651 201.521 111.131 211.764 104.818 221.406C103.092 221.891 101.36 222.397 99.5815 222.773C97.6478 223.182 95.7344 223.448 93.8209 223.714ZM119.048 215.904C123.618 207.141 127.026 198.04 129.033 188.764L151.831 183.941C144.878 197.291 133.498 208.625 119.048 215.904Z" stroke="#B9715A" stroke-width="2" mask="url(#path-1-outside-1_4_10)"/>
<path d="M244.727 162.18C247.574 165.329 249.35 168.572 250.057 171.912C250.216 172.663 250.273 173.349 250.23 173.969C250.288 174.654 250.304 175.348 250.278 176.052C248.824 176.185 247.295 176.378 245.691 176.63C244.17 176.864 242.575 177.158 240.906 177.511C238.902 177.935 236.865 178.41 234.796 178.935C232.828 179.526 230.618 180.211 228.166 180.992C225.714 181.772 222.988 182.698 219.988 183.769C216.987 184.84 213.512 186.142 209.562 187.675C207.501 187.413 205.298 186.484 202.954 184.886C200.628 183.373 198.338 181.415 196.086 179.013C196.532 177 197.099 174.525 197.786 171.588C198.455 168.568 199.218 164.962 200.076 160.768C200.915 156.491 201.789 151.552 202.698 145.952C203.672 140.251 204.604 133.73 205.493 126.39C206.042 121.564 206.497 117.325 206.858 113.672C207.219 110.02 207.482 106.519 207.645 103.17C207.875 99.7195 208.036 96.1529 208.129 92.4699C208.222 88.7869 208.284 84.5436 208.314 79.7399C211.795 79.7013 214.94 80.3442 217.75 81.6686C220.625 82.892 223.543 84.9349 226.504 87.7974C226.066 89.024 225.56 90.9626 224.987 93.6133C224.414 96.264 223.747 99.5015 222.986 103.326C222.291 107.049 221.535 111.308 220.718 116.104C219.883 120.816 219.036 125.88 218.175 131.295C217.381 136.61 216.566 141.623 215.731 146.335C214.896 151.047 214.14 155.306 213.463 159.113C212.869 162.902 212.42 166.137 212.115 168.818C211.81 171.5 211.79 173.466 212.055 174.719C213.373 174.353 214.566 174.013 215.633 173.7C216.701 173.387 217.801 173.023 218.935 172.609C220.051 172.111 221.25 171.596 222.533 171.063C223.881 170.428 225.463 169.658 227.277 168.751C228.858 167.98 230.332 167.319 231.698 166.768C233.047 166.134 234.372 165.592 235.672 165.143C237.038 164.592 238.422 164.125 239.824 163.741C241.291 163.256 242.926 162.736 244.727 162.18Z" stroke="#B9715A" stroke-width="2" mask="url(#path-1-outside-1_4_10)"/>
<path d="M290.23 107.154C291.065 106.978 292.06 106.941 293.216 107.046C294.438 107.049 295.561 107.204 296.585 107.51C297.592 107.734 298.44 108.034 299.131 108.411C299.904 108.771 300.336 109.159 300.424 109.577C299.496 113.436 298.702 117.311 298.042 121.201C297.365 125.008 296.87 128.645 296.557 132.113C296.244 135.581 296.095 138.796 296.112 141.758C296.211 144.703 296.482 147.218 296.923 149.306C297.418 151.643 298.084 153.552 298.92 155.032C299.739 156.429 300.803 157.338 302.113 157.758C301.253 158.638 300.074 159.455 298.576 160.208C297.078 160.961 295.703 161.47 294.451 161.735C289.942 162.688 287.035 160.076 285.728 153.898C284.721 149.14 284.929 142.292 286.353 133.356C285.496 137.55 284.344 141.587 282.898 145.47C281.434 149.268 279.848 152.7 278.142 155.765C276.435 158.83 274.59 161.445 272.605 163.609C270.687 165.672 268.803 167.074 266.953 167.814C263.829 168.3 261.015 167.369 258.512 165.02C255.992 162.588 254.272 159.201 253.354 154.86C252.364 150.185 252.324 145.047 253.233 139.447C254.141 133.847 255.672 128.508 257.825 123.43C260.061 118.334 262.707 113.937 265.762 110.237C268.799 106.455 272.012 104.118 275.4 103.227C276.287 103.301 277.312 103.607 278.473 104.147C279.717 104.668 280.904 105.333 282.034 106.141C283.248 106.93 284.304 107.797 285.201 108.741C286.081 109.602 286.642 110.399 286.885 111.133C283.651 112.34 280.531 114.701 277.524 118.216C274.601 121.712 272.093 125.732 270.001 130.274C267.975 134.715 266.512 139.342 265.611 144.155C264.711 148.968 264.667 153.295 265.479 157.136C265.815 158.722 266.611 159.6 267.868 159.77C270.183 158.757 272.547 156.12 274.96 151.859C277.356 147.514 280.004 141.067 282.905 132.516C283.421 130.836 283.987 128.972 284.6 126.924C285.297 124.857 285.976 122.708 286.637 120.474C287.298 118.241 287.918 116.017 288.496 113.801C289.14 111.484 289.718 109.269 290.23 107.154Z" stroke="#B9715A" stroke-width="2" mask="url(#path-1-outside-1_4_10)"/>
<path d="M355.34 145.451C354.722 147.064 353.499 148.5 351.672 149.759C349.946 151.084 348.224 152.015 346.506 152.553C344.734 151.183 342.671 149.265 340.317 146.797C337.946 144.246 335.561 141.218 333.162 137.714C329.717 142.455 326.201 146.862 322.614 150.935C319.01 154.925 315.601 158.394 312.387 161.342C311.433 161.369 310.576 161.027 309.815 160.316C309.054 159.604 308.49 158.59 308.124 157.272C309.599 156 311.305 154.374 313.241 152.395C315.261 150.398 317.254 148.275 319.221 146.027C321.253 143.678 323.152 141.314 324.916 138.935C326.746 136.454 328.26 134.128 329.458 131.956C327.332 128.916 325.272 125.776 323.278 122.535C321.35 119.192 319.582 115.99 317.975 112.928C316.433 109.766 315.13 106.901 314.063 104.336C312.98 101.687 312.261 99.5275 311.908 97.8577C311.661 96.689 311.627 95.9111 311.807 95.5242C312.052 95.0361 312.718 94.6772 313.803 94.4476C314.638 94.271 315.657 94.1425 316.862 94.0622C318.149 93.9642 319.446 93.908 320.751 93.8935C322.056 93.879 323.37 93.9063 324.693 93.9753C325.998 93.9608 327.146 94.0234 328.135 94.163C328.162 95.1167 328.246 95.9275 328.388 96.5954C328.529 97.2632 328.732 98.2233 328.997 99.4756C329.686 102.732 330.643 106.018 331.868 109.335C333.159 112.551 334.845 115.988 336.928 119.647C339.521 114.999 341.775 109.986 343.69 104.61C345.587 99.1492 347.332 92.7617 348.925 85.447C351.1 85.4228 353.028 85.6692 354.707 86.1861C356.369 86.6196 357.505 87.2513 358.117 88.0813C358.011 92.116 356.448 97.5057 353.426 104.25C350.405 110.995 346.294 118.363 341.094 126.354C342.934 129.279 345.069 132.36 347.498 135.596C349.91 138.749 352.523 142.034 355.34 145.451Z" stroke="#B9715A" stroke-width="2" mask="url(#path-1-outside-1_4_10)"/>
<path d="M367.611 134.874C367.452 134.122 367.3 133.195 367.153 132.092C367.073 130.888 367.006 129.332 366.951 127.425C366.879 125.434 366.81 123.05 366.746 120.272C366.765 117.477 366.795 114.113 366.835 110.179C366.825 109.309 366.918 107.894 367.114 105.934C367.31 103.973 367.655 101.894 368.149 99.6963C368.71 97.3972 369.455 95.1463 370.384 92.9435C371.397 90.7231 372.767 88.9506 374.492 87.626C375.982 87.6597 378.046 88.1388 380.684 89.0635C383.304 89.9047 385.705 91.3592 387.887 93.4271C386.426 96.0039 385.258 98.519 384.381 100.972C383.588 103.408 382.896 105.909 382.305 108.476C381.798 111.026 381.35 113.65 380.962 116.349C380.657 119.03 380.253 121.863 379.751 124.848C379.327 127.38 379.004 129.977 378.783 132.641C378.544 135.221 378.577 137.438 378.882 139.292C379.2 140.795 379.379 141.847 379.419 142.45C379.56 143.117 379.422 143.496 379.005 143.584C378.671 143.654 377.959 143.587 376.869 143.382C375.778 143.176 374.602 142.771 373.34 142.166C372.144 141.459 370.988 140.526 369.87 139.367C368.753 138.208 368 136.71 367.611 134.874ZM380.031 75.4642C379.925 74.9633 379.891 74.1854 379.93 73.1306C379.424 72.8015 378.916 72.2548 378.405 71.4906C377.978 70.7088 377.694 69.9839 377.553 69.316C377.394 68.5646 377.265 67.5452 377.167 66.2575C377.135 64.8688 377.127 63.3877 377.143 61.8143C377.159 60.241 377.25 58.6082 377.415 56.916C377.563 55.1403 377.746 53.5316 377.964 52.0898C378.966 51.8779 380.238 51.9139 381.781 52.1981C383.39 52.3811 385.043 52.7727 386.74 53.3732C388.419 53.8901 390 54.5587 391.482 55.3791C392.946 56.116 394.109 56.8729 394.971 57.65C394.247 58.7626 393.31 60.3127 392.161 62.3004C390.994 64.2045 389.895 66.2251 388.864 68.362C387.816 70.4155 386.875 72.359 386.042 74.1925C385.209 76.026 384.696 77.312 384.503 78.0505C383.466 78.0955 382.501 77.8635 381.608 77.3546C380.698 76.7622 380.172 76.1321 380.031 75.4642Z" stroke="#B9715A" stroke-width="2" mask="url(#path-1-outside-1_4_10)"/>
<path d="M432.719 75.6996C433.48 80.9464 433.507 85.6071 432.799 89.6819C432.073 93.6732 430.591 97.3883 428.353 100.827C426.181 104.165 423.33 107.385 419.8 110.487C416.269 113.589 412.053 116.749 407.152 119.966C407.258 120.467 407.331 121.019 407.371 121.621C407.477 122.122 407.592 122.664 407.715 123.249C407.945 124.334 408.267 125.443 408.681 126.577C409.095 127.71 409.617 128.734 410.247 129.647C410.876 130.561 411.637 131.272 412.53 131.781C413.405 132.206 414.427 132.296 415.595 132.048C417.85 131.571 419.956 130.602 421.915 129.141C423.873 127.68 425.662 126.037 427.282 124.211C428.968 122.285 430.469 120.31 431.786 118.287C433.168 116.163 434.377 114.25 435.412 112.548C436.406 113.123 437.266 113.682 437.992 114.227C435.294 120.031 432.045 125.079 428.243 129.372C424.508 133.564 420.733 136.543 416.92 138.31C411.018 138.86 406.069 137.727 402.071 134.91C398.139 131.991 395.643 128.027 394.583 123.018C393.859 119.595 393.585 116.033 393.762 112.333C394.004 108.531 394.616 104.825 395.596 101.216C396.643 97.5057 397.984 93.9511 399.62 90.5522C401.34 87.1357 403.264 84.0683 405.393 81.3501C407.605 78.6143 409.956 76.3288 412.446 74.4937C415.02 72.6408 417.684 71.423 420.439 70.8401C424.385 70.5285 428.479 72.1484 432.719 75.6996ZM424.952 81.6602C422.769 82.4711 420.626 83.884 418.522 85.8989C416.419 87.9139 414.547 90.4033 412.907 93.3671C411.349 96.3132 410.047 99.6414 409.001 103.352C407.954 107.062 407.336 110.943 407.147 114.996C413.119 110.243 417.805 104.978 421.206 99.1996C424.588 93.3378 425.837 87.4914 424.952 81.6602Z" stroke="#B9715A" stroke-width="2" mask="url(#path-1-outside-1_4_10)"/>
<path d="M488.565 38.7643C485.226 39.4708 482.443 39.1 480.218 37.6519C478.059 36.1027 476.696 33.9923 476.131 31.3207C475.99 30.6529 475.905 29.8421 475.878 28.8884C475.934 27.9171 476.059 27.0622 476.251 26.3236C477.443 26.5949 479.108 26.635 481.248 26.4439C483.454 26.1516 485.977 25.7052 488.815 25.1047C493.073 24.2039 497.838 23.0213 503.11 21.5569C508.449 19.9914 513.536 18.4789 518.374 17.0193C523.211 15.5598 527.473 14.2657 531.159 13.1369C534.828 11.9246 537.204 11.2037 538.29 10.9741C541.379 10.3205 543.838 11.0213 545.669 13.0763C547.565 15.0301 549.253 17.8565 550.733 21.5555C548.528 21.8478 546.33 22.1818 544.142 22.5576C542.02 22.8322 540.207 23.1284 538.704 23.4464C536.033 24.0116 533.337 24.6691 530.617 25.419C527.981 26.1511 525.321 26.9756 522.637 27.8925C521.98 30.5608 521.295 33.7148 520.583 37.3545C519.852 40.9107 519.157 44.6339 518.497 48.524C517.921 52.3965 517.387 56.2601 516.894 60.1149C516.383 63.8863 515.969 67.2883 515.652 70.3211C514.981 76.2197 514.43 81.6568 514 86.6322C513.653 91.59 513.37 96.2291 513.15 100.549C512.996 104.769 512.932 108.795 512.958 112.627C512.984 116.459 513.075 120.19 513.233 123.82C507.463 124.169 502.046 121.652 496.982 116.269C497.102 113.539 497.303 110.575 497.586 107.375C497.934 104.074 498.328 100.371 498.768 96.2656C499.274 92.0592 499.882 87.3077 500.593 82.0112C501.304 76.7146 502.124 70.6972 503.054 63.9589C503.394 61.4447 503.758 58.8382 504.147 56.1393C504.518 53.357 504.856 50.6252 505.161 47.944C505.549 45.2452 505.83 42.6563 506.003 40.1774C506.26 37.6808 506.436 35.4195 506.53 33.3934C503.112 34.5526 499.852 35.6348 496.751 36.64C493.715 37.5439 490.986 38.252 488.565 38.7643Z" stroke="#B9715A" stroke-width="2" mask="url(#path-1-outside-1_4_10)"/>
<path d="M554.341 108.712C549.476 109.218 545.236 107.935 541.62 104.862C538.005 101.789 535.596 97.4142 534.395 91.7372C533.689 88.3978 533.457 84.8272 533.699 81.0254C533.941 77.2235 534.628 73.4586 535.758 69.7306C536.87 65.9191 538.361 62.2457 540.229 58.7104C542.098 55.175 544.264 52.0129 546.727 49.2241C550.594 44.8297 554.532 42.2086 558.539 41.3608C561.511 42.2149 564.768 44.6222 568.309 48.5829C568.727 48.4946 569.102 48.4151 569.436 48.3444C569.753 48.1903 570.12 48.0691 570.537 47.9807C574.962 47.0446 578.004 50.5004 579.665 58.348C580.777 63.6076 580.96 68.8021 580.214 73.9317C579.533 78.9602 578.055 83.7213 575.779 88.2151C573.586 92.6913 570.643 96.7156 566.95 100.288C563.323 103.759 559.12 106.567 554.341 108.712ZM552.382 67.9143C551.369 70.1348 550.475 72.5045 549.699 75.0235C548.924 77.5426 548.324 80.068 547.9 82.5999C547.459 85.0483 547.217 87.4108 547.176 89.6874C547.116 91.8805 547.263 93.8119 547.617 95.4816C548.041 97.4853 548.781 99.3348 549.837 101.03C550.894 102.726 551.866 103.61 552.754 103.684C556.334 102.054 559.43 99.7856 562.042 96.878C564.72 93.8692 566.824 90.4149 568.354 86.5151C569.967 82.5977 570.941 78.3359 571.275 73.7297C571.692 69.1058 571.38 64.3311 570.337 59.4055C569.878 57.2348 569.391 55.5499 568.875 54.3506C568.36 53.1513 567.713 52.1543 566.934 51.3596C563.491 53.2221 560.564 55.673 558.154 58.7122C555.828 61.7339 553.904 64.8012 552.382 67.9143Z" stroke="#B9715A" stroke-width="2" mask="url(#path-1-outside-1_4_10)"/>
<path d="M627.392 85.7995C625.523 84.7993 624.085 83.3592 623.077 81.4792C622.152 79.5815 621.539 77.9231 621.239 76.5038C620.868 74.7506 620.759 73.2037 620.911 71.8631C620.577 71.9338 619.967 72.7606 619.081 74.3437C618.195 75.9267 617.236 77.7867 616.206 79.9237C615.259 82.043 614.303 84.1205 613.338 86.1563C612.373 88.1921 611.645 89.6981 611.154 90.6742C610.316 92.0726 609.466 93.2118 608.606 94.0916C607.829 94.9538 607.157 95.4884 606.59 95.6955C605.237 95.8947 603.756 95.9027 602.147 95.7198C600.639 95.6026 599.129 95.2679 597.617 94.7157C596.188 94.1457 594.849 93.3824 593.6 92.4255C592.434 91.451 591.526 90.2477 590.874 88.8156C590.379 86.4781 590.015 84.5491 589.78 83.0287C589.629 81.4906 589.577 79.8008 589.623 77.9593C589.704 74.6279 590.029 70.8084 590.601 66.5008C591.256 62.1756 592.137 57.8897 593.245 53.6432C594.335 49.3131 595.695 45.2311 597.326 41.3971C599.023 37.462 601.004 34.2517 603.27 31.7664C604.021 31.6074 604.915 31.5054 605.952 31.4604C606.972 31.332 608.018 31.3287 609.09 31.4507C610.246 31.555 611.337 31.7605 612.361 32.0671C613.451 32.2726 614.409 32.6804 615.236 33.2904C614.662 34.2842 613.333 37.4873 611.251 42.8994C609.252 48.294 607.319 55.8551 605.453 65.5829C605.229 66.5895 605.011 68.0313 604.798 69.9081C604.584 71.7849 604.388 73.7453 604.21 75.7891C604.032 77.8329 603.929 79.8173 603.9 81.7422C603.954 83.6496 604.096 85.1459 604.326 86.2312C604.467 86.8991 604.657 87.3823 604.894 87.681C605.216 87.9619 605.477 88.1682 605.68 88.2999C606.826 87.534 608.121 85.8209 609.564 83.1605C611.007 80.5002 612.946 76.4703 615.379 71.071C615.967 69.7256 616.645 68.1867 617.412 66.4543C618.263 64.7043 619.096 62.8708 619.911 60.9538C620.709 58.9533 621.415 56.9288 622.028 54.8801C622.725 52.8139 623.213 50.7917 623.492 48.8137C623.614 47.7413 623.784 46.4842 624.003 45.0424C624.287 43.4995 624.646 41.8972 625.079 40.2355C625.596 38.5562 626.196 36.8591 626.88 35.1444C627.63 33.3286 628.573 31.6027 629.71 29.9666C630.795 29.737 631.99 29.615 633.296 29.6005C634.601 29.586 635.84 29.6726 637.014 29.8605C638.253 29.9471 639.344 30.1526 640.284 30.4769C641.208 30.7177 641.931 31.0444 642.454 31.457C641.729 35.4482 640.827 39.4331 639.75 43.4116C638.673 47.39 637.712 51.3002 636.868 55.1422C636.006 58.9007 635.394 62.6062 635.033 66.2587C634.672 69.9113 634.836 73.3655 635.525 76.6214C635.896 78.3746 636.348 79.8926 636.881 81.1754C637.479 82.357 638.043 83.3716 638.571 84.2193C639.082 84.9835 639.524 85.6313 639.898 86.1627C640.356 86.6765 640.629 87.1421 640.717 87.5595C640.735 87.643 640.678 87.7859 640.546 87.9882C640.48 88.0893 640.406 88.1487 640.322 88.1664C639.738 88.29 638.96 88.3238 637.989 88.2676C637.017 88.2114 635.894 88.0565 634.619 87.8029C633.446 87.6151 632.213 87.3526 630.92 87.0155C629.711 86.6607 628.535 86.2554 627.392 85.7995Z" stroke="#B9715A" stroke-width="2" mask="url(#path-1-outside-1_4_10)"/>
<path d="M652.258 80.8003C652.163 78.2909 652.202 74.9683 652.373 70.8326C652.611 66.5957 652.971 62.1147 653.454 57.3897C653.92 52.5812 654.469 47.7551 655.101 42.9113C655.733 38.0675 656.421 33.6917 657.164 29.7839C657.702 26.9662 658.238 24.7595 658.773 23.1636C659.29 21.4842 659.943 20.0376 660.733 18.8239C661.937 18.7436 663.21 18.7796 664.55 18.9321C665.891 19.0846 667.207 19.3294 668.5 19.6665C669.792 20.0036 670.968 20.409 672.028 20.8826C673.07 21.2727 673.903 21.707 674.528 22.1854C672.839 25.3338 671.48 28.8049 670.451 32.5987C669.505 36.3749 668.721 41.12 668.098 46.834C671.759 41.8729 674.912 37.1936 677.558 32.796C680.287 28.3808 682.677 23.6012 684.729 18.4571C685.142 17.9337 685.974 17.5395 687.226 17.2746C688.395 17.0273 689.566 16.9976 690.74 17.1854C691.896 17.2897 692.753 17.6317 693.312 18.2112C692.657 22.5365 692.745 26.661 693.575 30.5848C694.352 34.2581 695.477 36.8983 696.951 38.5054C696.974 39.024 696.593 40.1077 695.808 41.7566C695.106 43.3878 694.262 44.962 693.274 46.4792C690.773 45.7873 688.434 44.625 686.256 42.9923C684.062 41.2761 682.291 39.2957 680.944 37.0513C677.603 40.6365 674.837 44.0563 672.648 47.3107C670.44 50.4816 668.679 53.907 667.364 57.5868C666.115 61.1655 665.223 65.1921 664.687 69.6666C664.234 74.1235 663.991 79.3647 663.957 85.3901C663.188 85.4656 662.208 85.3677 661.017 85.0964C659.927 84.8909 658.768 84.569 657.542 84.1308C656.399 83.6748 655.33 83.1595 654.336 82.5848C653.343 82.01 652.65 81.4152 652.258 80.8003Z" stroke="#B9715A" stroke-width="2" mask="url(#path-1-outside-1_4_10)"/>
<path d="M737.003 13.416C737.255 15.0199 737.316 16.7514 737.186 18.6106C737.122 20.3686 736.906 22.0279 736.538 23.5884C736.153 25.0655 735.682 26.3427 735.125 27.42C734.567 28.4973 733.955 29.1066 733.287 29.2479C732.351 29.3587 731.676 28.8474 731.262 27.7139C731.209 27.4635 731.213 27.0701 731.274 26.5339C731.401 25.8965 731.519 25.2174 731.628 24.4965C731.737 23.7756 731.804 23.0636 731.83 22.3604C731.939 21.6395 731.941 21.0286 731.835 20.5277C731.587 19.3589 731.092 18.4606 730.349 17.8329C729.671 17.104 728.873 16.8367 727.955 17.031C724.615 17.7375 722.511 20.3634 721.641 24.9086C720.771 29.4538 721.192 35.7754 722.906 43.8735C723.082 44.7083 723.23 45.2004 723.349 45.3497C725.084 44.8953 726.62 44.5268 727.956 44.2442C729.357 43.8604 730.726 43.5273 732.062 43.2447C732.181 43.394 732.293 43.7191 732.399 44.22C732.558 44.9714 732.506 45.5493 732.242 45.9539C730.411 46.7776 728.946 47.4801 727.847 48.0613C726.815 48.5413 726.033 48.9684 725.502 49.3425C724.97 49.7166 724.657 50.0883 724.56 50.4576C724.53 50.7257 724.567 51.1102 724.673 51.6111C724.815 52.279 724.956 52.9469 725.097 53.6148C725.322 54.265 725.541 55.091 725.753 56.0928C727.236 63.1056 726.508 69.1471 723.569 74.2174C720.713 79.2699 715.974 82.8455 709.353 84.9441C708.167 85.1079 706.886 85.0301 705.51 84.7106C704.134 84.3911 702.764 83.8959 701.401 83.2248C700.121 82.5361 698.941 81.6957 697.858 80.7035C696.794 79.7948 695.971 78.7914 695.39 77.6933C694.719 74.5208 694.751 71.3741 695.486 68.2529C696.204 65.0484 697.46 62.1223 699.255 59.4748C701.115 56.7261 703.449 54.3571 706.255 52.3678C709.127 50.2774 712.374 48.7184 715.994 47.6908C715.552 45.6036 714.911 43.6024 714.07 41.687C713.228 39.7717 712.363 37.9487 711.473 36.218C710.65 34.3862 709.844 32.6378 709.055 30.9729C708.249 29.2245 707.661 27.4738 707.29 25.7206C706.813 23.4665 706.804 21.157 707.263 18.7921C707.705 16.3437 708.483 14.0422 709.597 11.8875C710.693 9.64945 712.102 7.65057 713.823 5.89089C715.544 4.13122 717.437 2.77131 719.502 1.81116C720.473 1.86732 721.842 2.36258 723.61 3.29693C725.443 4.13013 727.271 5.13913 729.091 6.32393C730.912 7.50874 732.574 8.77061 734.079 10.1095C735.566 11.365 736.54 12.4672 737.003 13.416ZM707.759 79.2631C709.586 78.0043 711.208 76.3964 712.626 74.4392C714.127 72.4644 715.333 70.3339 716.245 68.0476C717.157 65.7614 717.75 63.4117 718.025 60.9987C718.382 58.5679 718.332 56.2672 717.873 54.0966C716.256 54.7003 714.587 55.882 712.866 57.6417C711.127 59.3179 709.576 61.2598 708.211 63.4674C706.829 65.5915 705.756 67.7373 704.994 69.9047C704.231 72.0722 704 73.8655 704.3 75.2848C704.689 77.1214 705.842 78.4476 707.759 79.2631Z" stroke="#B9715A" stroke-width="2" mask="url(#path-1-outside-1_4_10)"/>
</svg>
